<svg width="453" height="300" viewBox="0 0 453 300" fill="none" xmlns="http://www.w3.org/2000/svg">
<g clip-path="url(#clip0_644_4572)">
<rect width="453" height="300" rx="16" fill="#121212" fill-opacity="0.62"/>
<g clip-path="url(#clip1_644_4572)">
<path fill-rule="evenodd" clip-rule="evenodd" d="M94.9297 139.031V146.426L133.779 168.897L94.9297 191.369V198.764C94.9297 198.764 210.546 265.642 248.593 287.649C251.064 289.078 254.107 289.078 256.578 287.649L256.59 287.642C256.59 287.642 372.853 220.391 375.324 218.962C377.794 217.533 379.316 214.892 379.316 212.034C379.316 200.768 379.316 185.188 379.316 175.394C379.316 169.678 376.272 164.396 371.331 161.538C338.25 142.403 213.675 70.3438 213.675 70.3438L94.9297 139.031Z" fill="url(#paint0_linear_644_4572)"/>
<path fill-rule="evenodd" clip-rule="evenodd" d="M94.9297 146.425L246.669 234.197C250.375 236.341 252.658 240.303 252.658 244.59C252.658 253.037 252.658 267.229 252.658 275.677C252.658 277.106 251.897 278.426 250.662 279.141C249.427 279.855 247.905 279.855 246.669 279.141L94.9297 191.369V198.764C94.9297 198.764 210.546 265.641 248.593 287.649C251.064 289.078 254.107 289.078 256.578 287.649C259.049 286.22 260.571 283.579 260.571 280.721C260.571 269.455 260.571 253.875 260.571 244.081C260.571 238.364 257.527 233.082 252.586 230.224C219.505 211.089 94.9297 139.03 94.9297 139.03V146.425Z" fill="#2A2C2E"/>
<g filter="url(#filter0_d_644_4572)">
<path fill-rule="evenodd" clip-rule="evenodd" d="M122.034 160.616C122.034 160.616 111.602 166.651 104.688 170.65C103.452 171.365 102.691 172.686 102.691 174.115C102.691 175.544 103.452 176.864 104.688 177.579C128.614 191.418 217.009 242.549 236.9 254.055C239.37 255.484 242.414 255.484 244.885 254.055C249.487 251.393 256.427 247.378 256.427 247.378C256.427 247.378 256.421 246.472 256.413 245.232C256.384 240.95 254.092 237.004 250.391 234.863C224.345 219.797 122.034 160.616 122.034 160.616Z" fill="#2A2C2E"/>
</g>
<g filter="url(#filter1_d_644_4572)">
<path fill-rule="evenodd" clip-rule="evenodd" d="M199.593 110.567C222.436 97.3545 259.526 97.3545 282.369 110.567C305.211 123.78 305.211 145.235 282.369 158.448C259.526 171.661 222.436 171.661 199.593 158.448C176.75 145.235 176.75 123.78 199.593 110.567Z" fill="url(#paint1_linear_644_4572)"/>
</g>
<g filter="url(#filter2_d_644_4572)">
<path fill-rule="evenodd" clip-rule="evenodd" d="M299.501 148.538H299.479C299.902 157.513 294.199 166.566 282.369 173.409C259.526 186.622 222.436 186.622 199.593 173.409C187.763 166.566 182.059 157.513 182.483 148.538H182.461V134.507C182.461 143.174 188.172 151.841 199.593 158.447C222.436 171.66 259.526 171.66 282.369 158.447C293.79 151.841 299.501 143.174 299.501 134.507V148.538Z" fill="#2A2C2E"/>
</g>
<g filter="url(#filter3_d_644_4572)">
<path fill-rule="evenodd" clip-rule="evenodd" d="M192.879 33.7968L213.018 22.5668C221.234 17.9033 232.626 18.6568 245.208 25.9348C270.227 40.4073 290.54 75.2318 290.54 103.654C290.54 117.575 285.667 127.395 277.752 132.091L256.775 143.796C264.974 139.219 270.048 129.284 270.048 115.079C270.048 86.6573 249.736 51.8323 224.716 37.3603C212.314 30.1863 201.068 29.3518 192.879 33.7968Z" fill="url(#paint2_linear_644_4572)"/>
</g>
<path fill-rule="evenodd" clip-rule="evenodd" d="M224.715 37.3619C249.734 51.8339 270.047 86.6589 270.047 115.081C270.047 143.503 249.734 154.828 224.715 140.356C199.696 125.884 179.383 91.0594 179.383 62.6374C179.383 34.2154 199.696 22.8899 224.715 37.3619ZM224.715 57.7104C239.848 66.4639 252.134 87.5279 252.134 104.72C252.134 121.911 239.848 128.762 224.715 120.008C209.581 111.254 197.295 90.1899 197.295 72.9984C197.295 55.8069 209.581 48.9564 224.715 57.7104Z" fill="#2A2C2E"/>
<g filter="url(#filter4_d_644_4572)">
<path fill-rule="evenodd" clip-rule="evenodd" d="M251.108 112.598C247.856 123.795 237.265 127.265 224.717 120.007C209.583 111.253 197.297 90.1888 197.297 72.9973C197.297 58.9413 205.51 51.7983 216.777 54.4448C216.107 56.7533 215.749 59.3878 215.749 62.3243C215.749 79.5158 228.035 100.58 243.168 109.334C245.928 110.93 248.594 112.008 251.108 112.598Z" fill="url(#paint3_linear_644_4572)"/>
</g>
<path opacity="0.3" fill-rule="evenodd" clip-rule="evenodd" d="M91.3311 208.663L66.6016 222.967L91.3311 237.272L101.312 237.245L111.07 222.967L91.3311 208.663Z" fill="#2A2C2E"/>
<path fill-rule="evenodd" clip-rule="evenodd" d="M101.317 178.662L76.5879 192.966V222.94L101.317 237.244L126.047 222.94V192.966L101.317 178.662Z" fill="#2A2C2E"/>
<path fill-rule="evenodd" clip-rule="evenodd" d="M126.042 192.967L101.312 207.271V237.245L126.042 222.94V192.967Z" fill="url(#paint4_linear_644_4572)"/>
<path fill-rule="evenodd" clip-rule="evenodd" d="M101.317 178.662L76.5879 192.966L101.317 207.271L126.047 192.966L101.317 178.662Z" fill="url(#paint5_linear_644_4572)"/>
<path opacity="0.3" fill-rule="evenodd" clip-rule="evenodd" d="M107.122 235.758L82.3926 250.063L107.122 264.368L132.075 264.341L141.833 250.063L107.122 235.758Z" fill="#2A2C2E"/>
<path fill-rule="evenodd" clip-rule="evenodd" d="M131.579 136.932L106.85 151.236V250.102L131.579 264.407L156.309 250.102V151.236L131.579 136.932Z" fill="#2A2C2E"/>
<path fill-rule="evenodd" clip-rule="evenodd" d="M156.308 151.236L131.578 165.541V264.407L156.308 250.102V151.236Z" fill="url(#paint6_linear_644_4572)"/>
<path fill-rule="evenodd" clip-rule="evenodd" d="M131.579 136.932L106.85 151.236L131.579 165.541L156.309 151.236L131.579 136.932Z" fill="url(#paint7_linear_644_4572)"/>
<path opacity="0.3" fill-rule="evenodd" clip-rule="evenodd" d="M148.851 259.281L124.121 273.586L148.851 287.89L168.813 287.864L178.571 273.586L148.851 259.281Z" fill="#2A2C2E"/>
<path fill-rule="evenodd" clip-rule="evenodd" d="M168.419 201.218L143.689 215.523V273.703L168.419 288.008L193.149 273.703V215.523L168.419 201.218Z" fill="#2A2C2E"/>
<path fill-rule="evenodd" clip-rule="evenodd" d="M193.15 215.523L168.42 229.827V288.008L193.15 273.703V215.523Z" fill="url(#paint8_linear_644_4572)"/>
<path fill-rule="evenodd" clip-rule="evenodd" d="M168.419 201.218L143.689 215.523L168.419 229.827L193.149 215.523L168.419 201.218Z" fill="url(#paint9_linear_644_4572)"/>
</g>
</g>
<defs>
<filter id="filter0_d_644_4572" x="98.1801" y="160.616" width="162.759" height="103.533" filterUnits="userSpaceOnUse" color-interpolation-filters="sRGB">
<feFlood flood-opacity="0" result="BackgroundImageFix"/>
<feColorMatrix in="SourceAlpha" type="matrix" values="0 0 0 0 0 0 0 0 0 0 0 0 0 0 0 0 0 0 127 0" result="hardAlpha"/>
<feOffset dy="4.51128"/>
<feGaussianBlur stdDeviation="2.25564"/>
<feComposite in2="hardAlpha" operator="out"/>
<feColorMatrix type="matrix" values="0 0 0 0 0.0823529 0 0 0 0 0.0823529 0 0 0 0 0.0862745 0 0 0 0.2 0"/>
<feBlend mode="normal" in2="BackgroundImageFix" result="effect1_dropShadow_644_4572"/>
<feBlend mode="normal" in="SourceGraphic" in2="effect1_dropShadow_644_4572" result="shape"/>
</filter>
<filter id="filter1_d_644_4572" x="177.95" y="100.658" width="126.062" height="76.7228" filterUnits="userSpaceOnUse" color-interpolation-filters="sRGB">
<feFlood flood-opacity="0" result="BackgroundImageFix"/>
<feColorMatrix in="SourceAlpha" type="matrix" values="0 0 0 0 0 0 0 0 0 0 0 0 0 0 0 0 0 0 127 0" result="hardAlpha"/>
<feOffset dy="4.51128"/>
<feGaussianBlur stdDeviation="2.25564"/>
<feComposite in2="hardAlpha" operator="out"/>
<feColorMatrix type="matrix" values="0 0 0 0 0.0823529 0 0 0 0 0.0823529 0 0 0 0 0.0862745 0 0 0 0.2 0"/>
<feBlend mode="normal" in2="BackgroundImageFix" result="effect1_dropShadow_644_4572"/>
<feBlend mode="normal" in="SourceGraphic" in2="effect1_dropShadow_644_4572" result="shape"/>
</filter>
<filter id="filter2_d_644_4572" x="177.95" y="134.507" width="126.062" height="57.8341" filterUnits="userSpaceOnUse" color-interpolation-filters="sRGB">
<feFlood flood-opacity="0" result="BackgroundImageFix"/>
<feColorMatrix in="SourceAlpha" type="matrix" values="0 0 0 0 0 0 0 0 0 0 0 0 0 0 0 0 0 0 127 0" result="hardAlpha"/>
<feOffset dy="4.51128"/>
<feGaussianBlur stdDeviation="2.25564"/>
<feComposite in2="hardAlpha" operator="out"/>
<feColorMatrix type="matrix" values="0 0 0 0 0.0823529 0 0 0 0 0.0823529 0 0 0 0 0.0862745 0 0 0 0.2 0"/>
<feBlend mode="normal" in2="BackgroundImageFix" result="effect1_dropShadow_644_4572"/>
<feBlend mode="normal" in="SourceGraphic" in2="effect1_dropShadow_644_4572" result="shape"/>
</filter>
<filter id="filter3_d_644_4572" x="188.368" y="19.6387" width="106.683" height="133.18" filterUnits="userSpaceOnUse" color-interpolation-filters="sRGB">
<feFlood flood-opacity="0" result="BackgroundImageFix"/>
<feColorMatrix in="SourceAlpha" type="matrix" values="0 0 0 0 0 0 0 0 0 0 0 0 0 0 0 0 0 0 127 0" result="hardAlpha"/>
<feOffset dy="4.51128"/>
<feGaussianBlur stdDeviation="2.25564"/>
<feComposite in2="hardAlpha" operator="out"/>
<feColorMatrix type="matrix" values="0 0 0 0 0.0823529 0 0 0 0 0.0823529 0 0 0 0 0.0862745 0 0 0 0.2 0"/>
<feBlend mode="normal" in2="BackgroundImageFix" result="effect1_dropShadow_644_4572"/>
<feBlend mode="normal" in="SourceGraphic" in2="effect1_dropShadow_644_4572" result="shape"/>
</filter>
<filter id="filter4_d_644_4572" x="195.041" y="53.9009" width="62.8331" height="78.9366" filterUnits="userSpaceOnUse" color-interpolation-filters="sRGB">
<feFlood flood-opacity="0" result="BackgroundImageFix"/>
<feColorMatrix in="SourceAlpha" type="matrix" values="0 0 0 0 0 0 0 0 0 0 0 0 0 0 0 0 0 0 127 0" result="hardAlpha"/>
<feOffset dx="2.25564" dy="4.51128"/>
<feGaussianBlur stdDeviation="2.25564"/>
<feComposite in2="hardAlpha" operator="out"/>
<feColorMatrix type="matrix" values="0 0 0 0 0.0823529 0 0 0 0 0.0823529 0 0 0 0 0.0862745 0 0 0 0.2 0"/>
<feBlend mode="normal" in2="BackgroundImageFix" result="effect1_dropShadow_644_4572"/>
<feBlend mode="normal" in="SourceGraphic" in2="effect1_dropShadow_644_4572" result="shape"/>
</filter>
<linearGradient id="paint0_linear_644_4572" x1="257.767" y1="-45.7743" x2="403.092" y2="216.199" gradientUnits="userSpaceOnUse">
<stop offset="0.176786" stop-color="#ABEADA"/>
<stop offset="0.633698" stop-color="#FFEA9E"/>
<stop offset="0.906431" stop-color="#ABEADA"/>
</linearGradient>
<linearGradient id="paint1_linear_644_4572" x1="238.381" y1="89.4087" x2="233.118" y2="195.604" gradientUnits="userSpaceOnUse">
<stop stop-color="#ABEADA"/>
<stop offset="1" stop-color="#FFEA9E"/>
</linearGradient>
<linearGradient id="paint2_linear_644_4572" x1="190.83" y1="19.6387" x2="304.123" y2="33.605" gradientUnits="userSpaceOnUse">
<stop stop-color="#ABEADA"/>
<stop offset="1" stop-color="#FFEA9E"/>
</linearGradient>
<linearGradient id="paint3_linear_644_4572" x1="188.681" y1="116.328" x2="196.215" y2="53.8637" gradientUnits="userSpaceOnUse">
<stop stop-color="#ABEADA"/>
<stop offset="1" stop-color="#FFEA9E"/>
</linearGradient>
<linearGradient id="paint4_linear_644_4572" x1="100.794" y1="192.967" x2="129.697" y2="195.497" gradientUnits="userSpaceOnUse">
<stop stop-color="#ABEADA"/>
<stop offset="1" stop-color="#FFEA9E"/>
</linearGradient>
<linearGradient id="paint5_linear_644_4572" x1="75.5501" y1="178.662" x2="129.815" y2="193.364" gradientUnits="userSpaceOnUse">
<stop offset="0.694063" stop-color="#FFEA9E"/>
<stop offset="1" stop-color="#ABEADA"/>
</linearGradient>
<linearGradient id="paint6_linear_644_4572" x1="137.656" y1="51.7812" x2="189.74" y2="63.5336" gradientUnits="userSpaceOnUse">
<stop stop-color="#FFEA9E"/>
<stop offset="1" stop-color="#ABEADA"/>
</linearGradient>
<linearGradient id="paint7_linear_644_4572" x1="105.812" y1="136.932" x2="346.1" y2="153.737" gradientUnits="userSpaceOnUse">
<stop stop-color="#FFEA9E"/>
<stop offset="1" stop-color="#ABEADA"/>
</linearGradient>
<linearGradient id="paint8_linear_644_4572" x1="187.278" y1="314.563" x2="188.406" y2="195.015" gradientUnits="userSpaceOnUse">
<stop stop-color="#ABEADA"/>
<stop offset="1" stop-color="#FFEA9E"/>
</linearGradient>
<linearGradient id="paint9_linear_644_4572" x1="142.652" y1="201.218" x2="196.917" y2="215.92" gradientUnits="userSpaceOnUse">
<stop offset="0.694063" stop-color="#FFEA9E"/>
<stop offset="1" stop-color="#ABEADA"/>
</linearGradient>
<clipPath id="clip0_644_4572">
<rect width="453" height="300" rx="16" fill="white"/>
</clipPath>
<clipPath id="clip1_644_4572">
<rect x="26" y="14" width="399.248" height="300" rx="5.6391" fill="white"/>
</clipPath>
</defs>
</svg>
