<svg width="453" height="300" viewBox="0 0 453 300" fill="none" xmlns="http://www.w3.org/2000/svg">
<rect width="453" height="300" rx="16" fill="#121212" fill-opacity="0.62"/>
<path opacity="0.3" fill-rule="evenodd" clip-rule="evenodd" d="M248.852 169.598C245.153 167.463 240.587 167.467 236.874 169.611C223.922 177.089 193.133 194.865 176.015 204.748C173.54 206.177 172.009 208.815 172 211.668C171.991 214.521 173.505 217.155 175.971 218.579C199.285 232.04 212.016 239.39 229.4 249.426C233.099 251.562 237.665 251.557 241.378 249.414C254.33 241.936 285.119 224.16 302.237 214.276C304.712 212.847 306.243 210.21 306.252 207.357C306.261 204.504 304.747 201.869 302.281 200.445C278.967 186.985 266.236 179.635 248.852 169.598Z" fill="#2A2C2E"/>
<path opacity="0.3" fill-rule="evenodd" clip-rule="evenodd" d="M88.8664 217.691C103.355 209.326 126.88 209.326 141.369 217.691C155.857 226.056 155.857 239.638 141.369 248.003C126.88 256.368 103.355 256.368 88.8664 248.003C74.3779 239.638 74.3779 226.056 88.8664 217.691Z" fill="#2A2C2E"/>
<path fill-rule="evenodd" clip-rule="evenodd" d="M255.352 160.598C251.653 158.463 247.087 158.467 243.374 160.611C230.422 168.089 199.633 185.865 182.515 195.748C180.04 197.177 178.509 199.815 178.5 202.668C178.491 205.521 180.005 208.155 182.471 209.579C205.785 223.04 218.516 230.39 235.9 240.426C239.599 242.562 244.165 242.557 247.878 240.414C260.83 232.936 291.619 215.16 308.737 205.276C311.212 203.847 312.743 201.21 312.752 198.357C312.761 195.504 311.247 192.869 308.781 191.445C285.467 177.985 272.736 170.635 255.352 160.598Z" fill="url(#paint0_linear_644_4457)"/>
<path fill-rule="evenodd" clip-rule="evenodd" d="M312.463 198.349V198.487C312.414 201.39 310.846 204.06 308.326 205.515C284.838 219.076 265.621 230.171 248.085 240.295C244.244 242.512 239.513 242.512 235.673 240.295C218.137 230.171 206.155 223.253 182.667 209.692C180.107 208.214 178.529 205.482 178.529 202.526C178.529 202.526 178.529 207.544 178.529 210.5C178.529 213.456 180.107 216.188 182.667 217.666C206.155 231.227 218.137 238.145 235.673 248.269C239.513 250.486 244.244 250.486 248.085 248.269C265.621 238.145 284.838 227.049 308.326 213.489C310.886 212.011 312.463 209.279 312.463 206.323V198.349Z" fill="#2A2C2E"/>
<path fill-rule="evenodd" clip-rule="evenodd" d="M306.314 52.2764C307.637 51.8534 309.095 51.9974 310.325 52.7074C327.926 62.8694 338.776 69.1339 355.518 78.7994C359.63 81.1739 362.163 85.5619 362.163 90.3104C362.163 120.636 362.163 115.724 362.163 147.697C362.163 149.156 361.526 150.524 360.448 151.46C363.064 149.988 367.195 147.611 368.297 146.975C369.839 146.084 370.789 144.439 370.789 142.658C370.789 110.685 370.789 115.597 370.789 85.2709C370.789 80.5224 368.256 76.1344 364.143 73.7599C347.402 64.0944 336.552 57.8299 318.951 47.6679C317.408 46.7774 315.508 46.7774 313.966 47.6679C312.424 48.5584 306.314 52.2764 306.314 52.2764Z" fill="url(#paint1_linear_644_4457)"/>
<path fill-rule="evenodd" clip-rule="evenodd" d="M362.011 90.1186C362.011 85.5511 359.574 81.3306 355.619 79.0471C344.532 72.6461 321.811 59.5281 310.191 52.8196C308.708 51.9631 306.881 51.9631 305.397 52.8196C303.914 53.6756 303 55.2586 303 56.9711C303 71.3951 303 100.85 303 114.603C303 119.17 305.437 123.391 309.392 125.674C320.479 132.075 343.2 145.193 354.82 151.902C356.303 152.758 358.13 152.758 359.614 151.902C361.097 151.046 362.011 149.463 362.011 147.75C362.011 133.326 362.011 103.872 362.011 90.1186Z" fill="#2A2C2E"/>
<path fill-rule="evenodd" clip-rule="evenodd" d="M95.3664 208.691C109.855 200.326 133.38 200.326 147.869 208.691C162.357 217.056 162.357 230.639 147.869 239.004C133.38 247.368 109.855 247.368 95.3664 239.004C80.8779 230.639 80.8779 217.056 95.3664 208.691Z" fill="url(#paint2_linear_644_4457)"/>
<path fill-rule="evenodd" clip-rule="evenodd" d="M158.735 231.324H158.721C158.99 237.006 155.372 242.737 147.869 247.07C133.38 255.434 109.855 255.434 95.3665 247.07C87.863 242.737 84.2455 237.006 84.514 231.324H84.5V223.847C84.5 229.334 88.1225 234.821 95.3665 239.003C109.855 247.368 133.38 247.368 147.869 239.003C155.113 234.821 158.735 229.334 158.735 223.847V231.324Z" fill="#2A2C2E"/>
<path fill-rule="evenodd" clip-rule="evenodd" d="M113.494 219.157C117.978 216.568 125.258 216.568 129.742 219.157C134.226 221.746 134.226 225.949 129.742 228.538C125.258 231.127 117.978 231.127 113.494 228.538C109.01 225.949 109.01 221.746 113.494 219.157Z" fill="#2A2C2E"/>
<g filter="url(#filter0_d_644_4457)">
<path fill-rule="evenodd" clip-rule="evenodd" d="M121.202 167C133.979 167 144.352 177.373 144.352 190.149C144.352 202.926 133.979 213.299 121.202 213.299C108.426 213.299 98.0527 202.926 98.0527 190.149C98.0527 177.373 108.426 167 121.202 167Z" fill="#2A2C2E"/>
</g>
<path fill-rule="evenodd" clip-rule="evenodd" d="M314.544 117.916C314.544 113.629 312.257 109.667 308.544 107.524C286.974 95.0703 213.1 52.4193 183.916 35.5698C181.441 34.1408 178.391 34.1408 175.916 35.5698C173.441 36.9988 171.916 39.6398 171.916 42.4983V163.068C171.916 167.355 174.203 171.317 177.916 173.46C199.486 185.914 273.36 228.565 302.544 245.415C305.019 246.844 308.069 246.844 310.544 245.415C313.019 243.985 314.544 241.344 314.544 238.486V117.916Z" fill="url(#paint3_linear_644_4457)"/>
<path fill-rule="evenodd" clip-rule="evenodd" d="M176.088 35.4738C178.531 34.1413 181.498 34.1733 183.917 35.5693C213.101 52.4188 286.975 95.0698 308.545 107.523C312.258 109.667 314.545 113.629 314.545 117.916V238.486C314.545 240.95 313.411 243.254 311.512 244.757C313.041 243.922 314.972 242.858 316.28 242.103C318.755 240.674 320.28 238.033 320.28 235.175V114.605C320.28 110.317 317.993 106.356 314.28 104.212C292.71 91.7588 218.836 49.1078 189.652 32.2583C187.177 30.8293 184.127 30.8293 181.652 32.2583C179.177 33.6873 176.088 35.4733 176.088 35.4733V35.4738Z" fill="url(#paint4_linear_644_4457)"/>
<g filter="url(#filter1_d_644_4457)">
<path fill-rule="evenodd" clip-rule="evenodd" d="M314.544 227.478L171.916 145.132V163.068C171.916 167.355 174.203 171.316 177.916 173.46C199.486 185.913 273.36 228.564 302.544 245.414C305.019 246.843 308.069 246.843 310.544 245.414C313.019 243.985 314.544 241.344 314.544 238.486V227.478Z" fill="#2A2C2E"/>
</g>
<path fill-rule="evenodd" clip-rule="evenodd" d="M155.096 82.4962C155.721 82.2962 156.41 82.3642 156.991 82.6997C165.307 87.5012 170.433 90.4612 178.344 95.0277C180.287 96.1497 181.484 98.2227 181.484 100.467C181.484 114.795 181.484 112.474 181.484 127.581C181.484 128.27 181.182 128.916 180.673 129.359C181.909 128.663 188.675 124.789 189.195 124.488C189.924 124.067 190.373 123.29 190.373 122.449V95.3342C190.373 93.0907 189.176 91.0172 187.233 89.8957C179.323 85.3287 174.196 82.3687 165.88 77.5677C165.152 77.1467 164.254 77.1467 163.525 77.5677C162.797 77.9882 155.096 82.4962 155.096 82.4962Z" fill="url(#paint5_linear_644_4457)"/>
<path fill-rule="evenodd" clip-rule="evenodd" d="M181.483 100.347C181.483 98.1775 180.325 96.173 178.447 95.0885C173.181 92.0485 162.391 85.8185 156.873 82.6325C156.168 82.226 155.3 82.226 154.596 82.6325C153.891 83.039 153.457 83.791 153.457 84.6045C153.457 91.4545 153.457 105.443 153.457 111.975C153.457 114.144 154.615 116.148 156.493 117.233C161.758 120.273 172.549 126.502 178.067 129.689C178.772 130.095 179.64 130.095 180.344 129.689C181.049 129.282 181.483 128.53 181.483 127.717C181.483 120.867 181.483 106.878 181.483 100.347Z" fill="#2A2C2E"/>
<path fill-rule="evenodd" clip-rule="evenodd" d="M182.88 43.6414C184.412 44.5259 185.656 46.6804 185.656 48.4494C185.656 50.2184 184.412 50.9369 182.88 50.0524C181.348 49.1674 180.104 47.0134 180.104 45.2439C180.104 43.4749 181.348 42.7569 182.88 43.6414Z" fill="#2A2C2E"/>
<path fill-rule="evenodd" clip-rule="evenodd" d="M191.859 48.8259C193.392 49.7104 194.635 51.8649 194.635 53.6339C194.635 55.4029 193.392 56.1209 191.859 55.2364C190.327 54.3519 189.084 52.1974 189.084 50.4284C189.084 48.6594 190.327 47.9414 191.859 48.8259Z" fill="#2A2C2E"/>
<path fill-rule="evenodd" clip-rule="evenodd" d="M200.838 54.0099C202.37 54.8949 203.614 57.0489 203.614 58.8184C203.614 60.5874 202.37 61.3054 200.838 60.4209C199.306 59.5364 198.062 57.3819 198.062 55.6129C198.062 53.8439 199.306 53.1254 200.838 54.0099Z" fill="#2A2C2E"/>
<g filter="url(#filter2_d_644_4457)">
<path fill-rule="evenodd" clip-rule="evenodd" d="M274.48 165.462C274.48 161.175 272.192 157.214 268.48 155.07C255.663 147.67 225.686 130.363 212.229 122.593C210.836 121.79 209.121 121.79 207.729 122.593C206.336 123.397 205.479 124.883 205.479 126.491C205.479 131.923 205.479 139.106 205.479 144.338C205.479 148.626 207.766 152.587 211.479 154.731C224.295 162.131 254.272 179.437 267.73 187.207C269.122 188.011 270.837 188.011 272.23 187.207C273.622 186.403 274.48 184.918 274.48 183.31C274.48 177.878 274.48 170.695 274.48 165.462Z" fill="url(#paint6_linear_644_4457)"/>
</g>
<g filter="url(#filter3_d_644_4457)">
<path fill-rule="evenodd" clip-rule="evenodd" d="M274.48 119.917C274.48 115.63 272.192 111.668 268.48 109.524C255.663 102.125 225.686 84.8179 212.229 77.0479C210.836 76.2444 209.121 76.2444 207.729 77.0479C206.336 77.8519 205.479 79.3374 205.479 80.9454C205.479 86.3779 205.479 93.5609 205.479 98.7929C205.479 103.08 207.766 107.042 211.479 109.185C224.295 116.585 254.272 133.892 267.73 141.662C269.122 142.466 270.837 142.466 272.23 141.662C273.622 140.858 274.48 139.372 274.48 137.765C274.48 132.332 274.48 125.149 274.48 119.917Z" fill="#2A2C2E"/>
</g>
<path fill-rule="evenodd" clip-rule="evenodd" d="M220.715 81.9478V89.9958C220.715 94.2828 223.002 98.2443 226.715 100.388L274.479 127.965V119.917C274.479 115.63 272.191 111.668 268.479 109.524L220.715 81.9478Z" fill="url(#paint7_linear_644_4457)"/>
<path fill-rule="evenodd" clip-rule="evenodd" d="M218.171 134.57C221.87 136.706 224.873 141.907 224.873 146.179C224.873 150.45 221.87 152.184 218.171 150.048C214.472 147.913 211.469 142.711 211.469 138.44C211.469 134.168 214.472 132.435 218.171 134.57Z" fill="#2A2C2E"/>
<path fill-rule="evenodd" clip-rule="evenodd" d="M217.573 90.611C221.201 92.7055 224.146 97.807 224.146 101.996C224.146 106.185 221.201 107.885 217.573 105.791C213.946 103.696 211 98.595 211 94.406C211 90.217 213.946 88.5165 217.573 90.611Z" fill="url(#paint8_linear_644_4457)"/>
<g filter="url(#filter4_d_644_4457)">
<path fill-rule="evenodd" clip-rule="evenodd" d="M213.059 90.0794L217.485 87.5249C217.578 87.4644 217.675 87.4084 217.774 87.3584L217.774 87.3579C218.95 86.7604 220.534 86.8919 222.274 87.8964C225.902 89.9909 228.847 95.0924 228.847 99.2814C228.847 101.408 228.088 102.893 226.865 103.566L222.227 106.245C223.412 105.557 224.145 104.086 224.145 101.996C224.145 97.8069 221.2 92.7054 217.572 90.6109C215.826 89.6024 214.237 89.4739 213.059 90.0794Z" fill="url(#paint9_linear_644_4457)"/>
</g>
<path fill-rule="evenodd" clip-rule="evenodd" d="M145.573 112.919C149.201 115.013 152.146 120.114 152.146 124.303C152.146 128.492 149.201 130.193 145.573 128.098C141.946 126.004 139 120.903 139 116.714C139 112.525 141.946 110.824 145.573 112.919Z" fill="#2A2C2E"/>
<path fill-rule="evenodd" clip-rule="evenodd" d="M141.061 112.387L147.751 108.525C147.845 108.464 147.941 108.408 148.04 108.358H148.041C149.217 107.76 150.8 107.892 152.54 108.896C156.168 110.991 159.113 116.092 159.113 120.281C159.113 122.408 158.354 123.893 157.132 124.566L150.228 128.553C151.413 127.864 152.147 126.394 152.147 124.303C152.147 120.114 149.202 115.013 145.574 112.919C143.827 111.91 142.239 111.781 141.061 112.387Z" fill="url(#paint10_linear_644_4457)"/>
<defs>
<filter id="filter0_d_644_4457" x="94.0527" y="167" width="54.2988" height="54.2988" filterUnits="userSpaceOnUse" color-interpolation-filters="sRGB">
<feFlood flood-opacity="0" result="BackgroundImageFix"/>
<feColorMatrix in="SourceAlpha" type="matrix" values="0 0 0 0 0 0 0 0 0 0 0 0 0 0 0 0 0 0 127 0" result="hardAlpha"/>
<feOffset dy="4"/>
<feGaussianBlur stdDeviation="2"/>
<feComposite in2="hardAlpha" operator="out"/>
<feColorMatrix type="matrix" values="0 0 0 0 0.0823529 0 0 0 0 0.0823529 0 0 0 0 0.0862745 0 0 0 0.2 0"/>
<feBlend mode="normal" in2="BackgroundImageFix" result="effect1_dropShadow_644_4457"/>
<feBlend mode="normal" in="SourceGraphic" in2="effect1_dropShadow_644_4457" result="shape"/>
</filter>
<filter id="filter1_d_644_4457" x="167.916" y="145.132" width="150.629" height="109.354" filterUnits="userSpaceOnUse" color-interpolation-filters="sRGB">
<feFlood flood-opacity="0" result="BackgroundImageFix"/>
<feColorMatrix in="SourceAlpha" type="matrix" values="0 0 0 0 0 0 0 0 0 0 0 0 0 0 0 0 0 0 127 0" result="hardAlpha"/>
<feOffset dy="4"/>
<feGaussianBlur stdDeviation="2"/>
<feComposite in2="hardAlpha" operator="out"/>
<feColorMatrix type="matrix" values="0 0 0 0 0.0823529 0 0 0 0 0.0823529 0 0 0 0 0.0862745 0 0 0 0.2 0"/>
<feBlend mode="normal" in2="BackgroundImageFix" result="effect1_dropShadow_644_4457"/>
<feBlend mode="normal" in="SourceGraphic" in2="effect1_dropShadow_644_4457" result="shape"/>
</filter>
<filter id="filter2_d_644_4457" x="201.479" y="121.991" width="77.002" height="73.8198" filterUnits="userSpaceOnUse" color-interpolation-filters="sRGB">
<feFlood flood-opacity="0" result="BackgroundImageFix"/>
<feColorMatrix in="SourceAlpha" type="matrix" values="0 0 0 0 0 0 0 0 0 0 0 0 0 0 0 0 0 0 127 0" result="hardAlpha"/>
<feOffset dy="4"/>
<feGaussianBlur stdDeviation="2"/>
<feComposite in2="hardAlpha" operator="out"/>
<feColorMatrix type="matrix" values="0 0 0 0 0.0823529 0 0 0 0 0.0823529 0 0 0 0 0.0862745 0 0 0 0.2 0"/>
<feBlend mode="normal" in2="BackgroundImageFix" result="effect1_dropShadow_644_4457"/>
<feBlend mode="normal" in="SourceGraphic" in2="effect1_dropShadow_644_4457" result="shape"/>
</filter>
<filter id="filter3_d_644_4457" x="201.479" y="76.4453" width="77.002" height="73.8198" filterUnits="userSpaceOnUse" color-interpolation-filters="sRGB">
<feFlood flood-opacity="0" result="BackgroundImageFix"/>
<feColorMatrix in="SourceAlpha" type="matrix" values="0 0 0 0 0 0 0 0 0 0 0 0 0 0 0 0 0 0 127 0" result="hardAlpha"/>
<feOffset dy="4"/>
<feGaussianBlur stdDeviation="2"/>
<feComposite in2="hardAlpha" operator="out"/>
<feColorMatrix type="matrix" values="0 0 0 0 0.0823529 0 0 0 0 0.0823529 0 0 0 0 0.0862745 0 0 0 0.2 0"/>
<feBlend mode="normal" in2="BackgroundImageFix" result="effect1_dropShadow_644_4457"/>
<feBlend mode="normal" in="SourceGraphic" in2="effect1_dropShadow_644_4457" result="shape"/>
</filter>
<filter id="filter4_d_644_4457" x="209.059" y="87" width="23.7871" height="27.2456" filterUnits="userSpaceOnUse" color-interpolation-filters="sRGB">
<feFlood flood-opacity="0" result="BackgroundImageFix"/>
<feColorMatrix in="SourceAlpha" type="matrix" values="0 0 0 0 0 0 0 0 0 0 0 0 0 0 0 0 0 0 127 0" result="hardAlpha"/>
<feOffset dy="4"/>
<feGaussianBlur stdDeviation="2"/>
<feComposite in2="hardAlpha" operator="out"/>
<feColorMatrix type="matrix" values="0 0 0 0 0.0823529 0 0 0 0 0.0823529 0 0 0 0 0.0862745 0 0 0 0.2 0"/>
<feBlend mode="normal" in2="BackgroundImageFix" result="effect1_dropShadow_644_4457"/>
<feBlend mode="normal" in="SourceGraphic" in2="effect1_dropShadow_644_4457" result="shape"/>
</filter>
<linearGradient id="paint0_linear_644_4457" x1="175.683" y1="159" x2="324.251" y2="196.65" gradientUnits="userSpaceOnUse">
<stop stop-color="#ABEADA"/>
<stop offset="1" stop-color="#FFEA9E"/>
</linearGradient>
<linearGradient id="paint1_linear_644_4457" x1="304.962" y1="47" x2="380.19" y2="54.277" gradientUnits="userSpaceOnUse">
<stop stop-color="#ABEADA"/>
<stop offset="1" stop-color="#FFEA9E"/>
</linearGradient>
<linearGradient id="paint2_linear_644_4457" x1="82.9424" y1="202.417" x2="164.37" y2="224.521" gradientUnits="userSpaceOnUse">
<stop stop-color="#ABEADA"/>
<stop offset="1" stop-color="#FFEA9E"/>
</linearGradient>
<linearGradient id="paint3_linear_644_4457" x1="168.923" y1="34.4981" x2="335.05" y2="52.0152" gradientUnits="userSpaceOnUse">
<stop stop-color="#ABEADA"/>
<stop offset="1" stop-color="#FFEA9E"/>
</linearGradient>
<linearGradient id="paint4_linear_644_4457" x1="173.062" y1="31.1865" x2="340.998" y2="48.9559" gradientUnits="userSpaceOnUse">
<stop stop-color="#FFEA9E"/>
<stop offset="1" stop-color="#ABEADA"/>
</linearGradient>
<linearGradient id="paint5_linear_644_4457" x1="154.356" y1="77.252" x2="195.439" y2="81.611" gradientUnits="userSpaceOnUse">
<stop stop-color="#ABEADA"/>
<stop offset="1" stop-color="#FFEA9E"/>
</linearGradient>
<linearGradient id="paint6_linear_644_4457" x1="253.5" y1="100" x2="320.459" y2="204.803" gradientUnits="userSpaceOnUse">
<stop stop-color="#FFEA9E"/>
<stop offset="1" stop-color="#ABEADA"/>
</linearGradient>
<linearGradient id="paint7_linear_644_4457" x1="219.587" y1="81.9478" x2="280.851" y2="93.1656" gradientUnits="userSpaceOnUse">
<stop stop-color="#FFEA9E"/>
<stop offset="1" stop-color="#ABEADA"/>
</linearGradient>
<linearGradient id="paint8_linear_644_4457" x1="199" y1="95.5" x2="216.603" y2="88.167" gradientUnits="userSpaceOnUse">
<stop stop-color="#ABEADA"/>
<stop offset="1" stop-color="#FFEA9E"/>
</linearGradient>
<linearGradient id="paint9_linear_644_4457" x1="204" y1="79" x2="230.121" y2="88.8751" gradientUnits="userSpaceOnUse">
<stop stop-color="#FFEA9E"/>
<stop offset="1" stop-color="#ABEADA"/>
</linearGradient>
<linearGradient id="paint10_linear_644_4457" x1="140.682" y1="108" x2="161.547" y2="110.872" gradientUnits="userSpaceOnUse">
<stop stop-color="#FFEA9E"/>
<stop offset="1" stop-color="#ABEADA"/>
</linearGradient>
</defs>
</svg>
