<svg width="453" height="300" viewBox="0 0 453 300" fill="none" xmlns="http://www.w3.org/2000/svg">
<rect width="453" height="300" rx="16" fill="#121212" fill-opacity="0.62"/>
<path opacity="0.3" fill-rule="evenodd" clip-rule="evenodd" d="M143.939 210.975C167.073 197.584 204.637 197.584 227.771 210.975C250.905 224.366 250.905 246.109 227.771 259.499C204.637 272.89 167.073 272.89 143.939 259.499C120.804 246.109 120.804 224.366 143.939 210.975Z" fill="#2A2C2E"/>
<path opacity="0.3" fill-rule="evenodd" clip-rule="evenodd" d="M84.3591 245.058C96.4059 238.085 115.967 238.085 128.013 245.058C140.06 252.031 140.06 263.353 128.013 270.326C115.967 277.299 96.4059 277.299 84.3591 270.326C72.3126 263.353 72.3126 252.031 84.3591 245.058Z" fill="#2A2C2E"/>
<path opacity="0.3" fill-rule="evenodd" clip-rule="evenodd" d="M229.331 263.287C239.152 257.602 255.099 257.602 264.92 263.287C274.741 268.972 274.741 278.202 264.92 283.887C255.099 289.572 239.152 289.572 229.331 283.887C219.51 278.202 219.51 268.972 229.331 263.287Z" fill="#2A2C2E"/>
<path fill-rule="evenodd" clip-rule="evenodd" d="M242.717 135.32C242.717 135.32 260.226 125.176 261.435 124.476C262.646 123.776 264.136 123.776 265.345 124.476C277.946 131.769 307.316 148.77 317.924 154.91C320.343 156.31 321.834 158.898 321.834 161.699V222.567C321.834 223.967 321.089 225.261 319.879 225.962C318.67 226.662 301.16 236.789 301.16 236.789L242.717 135.32Z" fill="url(#paint0_linear_645_5103)"/>
<path fill-rule="evenodd" clip-rule="evenodd" d="M240.975 138.582C240.975 137.182 241.72 135.887 242.93 135.187C244.139 134.487 245.63 134.487 246.84 135.187C259.44 142.48 288.81 159.481 299.418 165.621C301.838 167.022 303.328 169.61 303.328 172.411V233.278C303.328 234.679 302.583 235.973 301.373 236.673C300.163 237.373 298.673 237.373 297.463 236.673C284.863 229.38 255.493 212.379 244.885 206.239C242.465 204.839 240.975 202.251 240.975 199.45V138.582Z" fill="#2A2C2E"/>
<path fill-rule="evenodd" clip-rule="evenodd" d="M280 161L298 171.11V201L280 190.889V161Z" fill="url(#paint1_linear_645_5103)"/>
<path fill-rule="evenodd" clip-rule="evenodd" d="M262 182L280 192.11V222L262 211.889V182Z" fill="url(#paint2_linear_645_5103)"/>
<path fill-rule="evenodd" clip-rule="evenodd" d="M245 144L262 153.605V182L245 172.395V144Z" fill="url(#paint3_linear_645_5103)"/>
<path fill-rule="evenodd" clip-rule="evenodd" d="M161.534 191.375C184.668 177.984 222.232 177.984 245.367 191.375C268.501 204.766 268.501 226.509 245.367 239.899C222.232 253.29 184.668 253.29 161.534 239.899C138.4 226.509 138.4 204.766 161.534 191.375Z" fill="url(#paint4_linear_645_5103)"/>
<path fill-rule="evenodd" clip-rule="evenodd" d="M262.717 233.209H262.695C263.124 242.305 257.348 251.48 245.367 258.415C222.232 271.806 184.668 271.806 161.534 258.415C149.553 251.48 143.777 242.305 144.206 233.209H144.184V215.637C144.184 224.421 149.967 233.204 161.534 239.899C184.668 253.29 222.232 253.29 245.367 239.899C256.934 233.204 262.717 224.421 262.717 215.637V233.209Z" fill="#2A2C2E"/>
<g filter="url(#filter0_d_645_5103)">
<path fill-rule="evenodd" clip-rule="evenodd" d="M154.643 215.638V190.9C154.643 163.876 176.495 141.968 203.45 141.968H203.451C230.406 141.968 252.258 163.876 252.258 190.9V215.638C252.258 222.871 247.495 230.104 237.97 235.618C218.918 246.645 187.983 246.645 168.931 235.618C159.405 230.104 154.643 222.871 154.643 215.638Z" fill="url(#paint5_linear_645_5103)"/>
</g>
<g filter="url(#filter1_d_645_5103)">
<path fill-rule="evenodd" clip-rule="evenodd" d="M168.931 195.657C187.983 184.629 218.918 184.629 237.97 195.657C257.021 206.684 257.021 224.59 237.97 235.618C218.918 246.645 187.983 246.645 168.931 235.618C149.88 224.59 149.88 206.684 168.931 195.657Z" fill="url(#paint6_linear_645_5103)"/>
</g>
<g filter="url(#filter2_d_645_5103)">
<path fill-rule="evenodd" clip-rule="evenodd" d="M154.643 76.7796C154.643 69.5463 159.405 62.3129 168.931 56.7994C187.983 45.7719 218.918 45.7719 237.97 56.7994C247.495 62.3129 252.258 69.5463 252.258 76.7796C252.258 76.7796 252.258 87.9095 252.258 101.517C252.258 128.541 230.406 150.449 203.451 150.449H203.45C176.495 150.449 154.643 128.541 154.643 101.517V76.7796Z" fill="url(#paint7_linear_645_5103)"/>
</g>
<path fill-rule="evenodd" clip-rule="evenodd" d="M237.97 96.7604C218.918 107.788 187.983 107.788 168.931 96.7604C149.88 85.7329 149.88 67.8268 168.931 56.7994C187.983 45.7719 218.918 45.7719 237.97 56.7994C257.021 67.8268 257.021 85.7329 237.97 96.7604Z" fill="url(#paint8_linear_645_5103)"/>
<path fill-rule="evenodd" clip-rule="evenodd" d="M161.534 32.8619C184.668 19.4712 222.232 19.4712 245.367 32.8619C268.501 46.2526 268.501 67.9954 245.367 81.3861C222.232 94.7768 184.668 94.7768 161.534 81.3861C138.4 67.9954 138.4 46.2526 161.534 32.8619Z" fill="url(#paint9_linear_645_5103)"/>
<path fill-rule="evenodd" clip-rule="evenodd" d="M262.717 74.6964H262.695C263.124 83.7923 257.348 92.9675 245.367 99.9025C222.232 113.293 184.668 113.293 161.534 99.9025C149.553 92.9675 143.777 83.7923 144.206 74.6964H144.184V57.1245C144.184 65.9078 149.967 74.691 161.534 81.3864C184.668 94.7771 222.232 94.7771 245.367 81.3864C256.934 74.691 262.717 65.9078 262.717 57.1245V74.6964Z" fill="#2A2C2E"/>
<g filter="url(#filter3_d_645_5103)">
<path fill-rule="evenodd" clip-rule="evenodd" d="M203 187C214.038 187 223 195.738 223 206.5C223 217.262 214.038 226 203 226C191.962 226 183 217.262 183 206.5C183 195.738 191.962 187 203 187Z" fill="#2A2C2E"/>
</g>
<path fill-rule="evenodd" clip-rule="evenodd" d="M203.5 162C207.639 162 211 165.36 211 169.5C211 173.639 207.639 177 203.5 177C199.361 177 196 173.639 196 169.5C196 165.36 199.361 162 203.5 162Z" fill="#2A2C2E"/>
<path fill-rule="evenodd" clip-rule="evenodd" d="M202.501 127C205.535 127 208 129.464 208 132.499C208 135.535 205.535 138 202.501 138C199.465 138 197 135.535 197 132.499C197 129.464 199.465 127 202.501 127Z" fill="#2A2C2E"/>
<path fill-rule="evenodd" clip-rule="evenodd" d="M240.369 250.265L303.444 213.891C306.098 212.383 309.777 212.627 313.842 214.98C321.924 219.658 328.486 230.915 328.486 240.103C328.486 244.603 326.912 247.777 324.355 249.295L261.01 285.823C263.659 284.343 265.298 281.132 265.298 276.54C265.298 267.352 258.736 256.095 250.654 251.417C246.647 249.098 243.015 248.828 240.369 250.265Z" fill="url(#paint10_linear_645_5103)"/>
<path fill-rule="evenodd" clip-rule="evenodd" d="M250.654 251.417C258.736 256.095 265.298 267.352 265.298 276.54C265.298 285.727 258.736 289.388 250.654 284.71C242.572 280.032 236.01 268.775 236.01 259.587C236.01 250.4 242.572 246.739 250.654 251.417Z" fill="#2A2C2E"/>
<path fill-rule="evenodd" clip-rule="evenodd" d="M101.953 235.258C114 228.285 133.56 228.285 145.607 235.258C157.653 242.231 157.653 253.553 145.607 260.526C133.56 267.499 114 267.499 101.953 260.526C89.9063 253.553 89.9063 242.231 101.953 235.258Z" fill="url(#paint11_linear_645_5103)"/>
<path fill-rule="evenodd" clip-rule="evenodd" d="M154.642 257.042H154.63C154.853 261.778 151.846 266.556 145.607 270.168C133.56 277.14 114 277.14 101.953 270.168C95.7141 266.556 92.7063 261.778 92.9297 257.042H92.918V247.892C92.918 252.466 95.9296 257.039 101.953 260.526C114 267.499 133.56 267.499 145.607 260.526C151.63 257.039 154.642 252.466 154.642 247.892V257.042Z" fill="#2A2C2E"/>
<defs>
<filter id="filter0_d_645_5103" x="150.643" y="141.968" width="105.615" height="109.92" filterUnits="userSpaceOnUse" color-interpolation-filters="sRGB">
<feFlood flood-opacity="0" result="BackgroundImageFix"/>
<feColorMatrix in="SourceAlpha" type="matrix" values="0 0 0 0 0 0 0 0 0 0 0 0 0 0 0 0 0 0 127 0" result="hardAlpha"/>
<feOffset dy="4"/>
<feGaussianBlur stdDeviation="2"/>
<feComposite in2="hardAlpha" operator="out"/>
<feColorMatrix type="matrix" values="0 0 0 0 0.0823529 0 0 0 0 0.0823529 0 0 0 0 0.0862745 0 0 0 0.2 0"/>
<feBlend mode="normal" in2="BackgroundImageFix" result="effect1_dropShadow_645_5103"/>
<feBlend mode="normal" in="SourceGraphic" in2="effect1_dropShadow_645_5103" result="shape"/>
</filter>
<filter id="filter1_d_645_5103" x="150.643" y="187.386" width="105.615" height="64.5022" filterUnits="userSpaceOnUse" color-interpolation-filters="sRGB">
<feFlood flood-opacity="0" result="BackgroundImageFix"/>
<feColorMatrix in="SourceAlpha" type="matrix" values="0 0 0 0 0 0 0 0 0 0 0 0 0 0 0 0 0 0 127 0" result="hardAlpha"/>
<feOffset dy="4"/>
<feGaussianBlur stdDeviation="2"/>
<feComposite in2="hardAlpha" operator="out"/>
<feColorMatrix type="matrix" values="0 0 0 0 0.0823529 0 0 0 0 0.0823529 0 0 0 0 0.0862745 0 0 0 0.2 0"/>
<feBlend mode="normal" in2="BackgroundImageFix" result="effect1_dropShadow_645_5103"/>
<feBlend mode="normal" in="SourceGraphic" in2="effect1_dropShadow_645_5103" result="shape"/>
</filter>
<filter id="filter2_d_645_5103" x="150.643" y="48.5288" width="105.615" height="109.92" filterUnits="userSpaceOnUse" color-interpolation-filters="sRGB">
<feFlood flood-opacity="0" result="BackgroundImageFix"/>
<feColorMatrix in="SourceAlpha" type="matrix" values="0 0 0 0 0 0 0 0 0 0 0 0 0 0 0 0 0 0 127 0" result="hardAlpha"/>
<feOffset dy="4"/>
<feGaussianBlur stdDeviation="2"/>
<feComposite in2="hardAlpha" operator="out"/>
<feColorMatrix type="matrix" values="0 0 0 0 0.0823529 0 0 0 0 0.0823529 0 0 0 0 0.0862745 0 0 0 0.2 0"/>
<feBlend mode="normal" in2="BackgroundImageFix" result="effect1_dropShadow_645_5103"/>
<feBlend mode="normal" in="SourceGraphic" in2="effect1_dropShadow_645_5103" result="shape"/>
</filter>
<filter id="filter3_d_645_5103" x="179" y="187" width="48" height="47" filterUnits="userSpaceOnUse" color-interpolation-filters="sRGB">
<feFlood flood-opacity="0" result="BackgroundImageFix"/>
<feColorMatrix in="SourceAlpha" type="matrix" values="0 0 0 0 0 0 0 0 0 0 0 0 0 0 0 0 0 0 127 0" result="hardAlpha"/>
<feOffset dy="4"/>
<feGaussianBlur stdDeviation="2"/>
<feComposite in2="hardAlpha" operator="out"/>
<feColorMatrix type="matrix" values="0 0 0 0 0.0823529 0 0 0 0 0.0823529 0 0 0 0 0.0862745 0 0 0 0.2 0"/>
<feBlend mode="normal" in2="BackgroundImageFix" result="effect1_dropShadow_645_5103"/>
<feBlend mode="normal" in="SourceGraphic" in2="effect1_dropShadow_645_5103" result="shape"/>
</filter>
<linearGradient id="paint0_linear_645_5103" x1="241.057" y1="123.951" x2="333.122" y2="134.067" gradientUnits="userSpaceOnUse">
<stop stop-color="#FFEA9E"/>
<stop offset="1" stop-color="#ABEADA"/>
</linearGradient>
<linearGradient id="paint1_linear_645_5103" x1="279.622" y1="161" x2="300.716" y2="162.488" gradientUnits="userSpaceOnUse">
<stop stop-color="#ABEADA"/>
<stop offset="1" stop-color="#FFEA9E"/>
</linearGradient>
<linearGradient id="paint2_linear_645_5103" x1="261.622" y1="182" x2="282.716" y2="183.488" gradientUnits="userSpaceOnUse">
<stop stop-color="#ABEADA"/>
<stop offset="1" stop-color="#FFEA9E"/>
</linearGradient>
<linearGradient id="paint3_linear_645_5103" x1="244.643" y1="144" x2="264.566" y2="145.397" gradientUnits="userSpaceOnUse">
<stop stop-color="#ABEADA"/>
<stop offset="1" stop-color="#FFEA9E"/>
</linearGradient>
<linearGradient id="paint4_linear_645_5103" x1="141.697" y1="181.332" x2="271.759" y2="216.548" gradientUnits="userSpaceOnUse">
<stop stop-color="#ABEADA"/>
<stop offset="1" stop-color="#FFEA9E"/>
</linearGradient>
<linearGradient id="paint5_linear_645_5103" x1="152.594" y1="141.968" x2="265.024" y2="158.844" gradientUnits="userSpaceOnUse">
<stop stop-color="#ABEADA"/>
<stop offset="1" stop-color="#FFEA9E"/>
</linearGradient>
<linearGradient id="paint6_linear_645_5103" x1="152.594" y1="187.386" x2="292.413" y2="222.101" gradientUnits="userSpaceOnUse">
<stop stop-color="#FFEA9E"/>
<stop offset="1" stop-color="#ABEADA"/>
</linearGradient>
<linearGradient id="paint7_linear_645_5103" x1="152.594" y1="48.5288" x2="265.024" y2="65.4048" gradientUnits="userSpaceOnUse">
<stop stop-color="#ABEADA"/>
<stop offset="1" stop-color="#FFEA9E"/>
</linearGradient>
<linearGradient id="paint8_linear_645_5103" x1="152.594" y1="48.5288" x2="259.704" y2="77.53" gradientUnits="userSpaceOnUse">
<stop stop-color="#ABEADA"/>
<stop offset="1" stop-color="#FFEA9E"/>
</linearGradient>
<linearGradient id="paint9_linear_645_5103" x1="133.979" y1="3.10708" x2="287.076" y2="67.5836" gradientUnits="userSpaceOnUse">
<stop stop-color="#FFEA9E"/>
<stop offset="1" stop-color="#ABEADA"/>
</linearGradient>
<linearGradient id="paint10_linear_645_5103" x1="238.52" y1="212.944" x2="318.003" y2="215.739" gradientUnits="userSpaceOnUse">
<stop stop-color="#ABEADA"/>
<stop offset="1" stop-color="#FFEA9E"/>
</linearGradient>
<linearGradient id="paint11_linear_645_5103" x1="91.6229" y1="230.028" x2="159.35" y2="248.366" gradientUnits="userSpaceOnUse">
<stop stop-color="#ABEADA"/>
<stop offset="1" stop-color="#FFEA9E"/>
</linearGradient>
</defs>
</svg>
