<svg width="453" height="300" viewBox="0 0 453 300" fill="none" xmlns="http://www.w3.org/2000/svg">
<rect width="453" height="300" rx="16" fill="#121212" fill-opacity="0.62"/>
<g opacity="0.3" filter="url(#filter0_d_644_4246)">
<path fill-rule="evenodd" clip-rule="evenodd" d="M279.423 272.557L311.972 254.942C313.341 254.209 315.24 253.969 317.337 254.397C321.508 255.249 324.894 258.424 324.894 261.483C324.894 262.981 324.082 264.175 322.762 264.904L290.156 282.549L290.136 282.56L290.105 282.577L290.075 282.593C288.706 283.317 286.817 283.553 284.731 283.127C280.56 282.275 277.174 279.1 277.174 276.041C277.174 274.498 278.035 273.278 279.423 272.557ZM291.987 280.617C291.719 281.239 291.278 281.773 290.702 282.199C291.278 281.773 291.719 281.239 291.987 280.617ZM292.287 279.057C292.287 279.081 292.287 279.104 292.287 279.128C292.287 279.14 292.287 279.152 292.287 279.164V279.128C292.287 279.104 292.287 279.081 292.287 279.057ZM292.28 278.877C292.282 278.909 292.283 278.94 292.284 278.972C292.283 278.928 292.28 278.885 292.277 278.841L292.28 278.877ZM291.882 277.251C291.874 277.234 291.867 277.217 291.859 277.2L291.875 277.235L291.882 277.251ZM291.62 276.712C291.635 276.74 291.65 276.768 291.665 276.797C291.65 276.768 291.635 276.74 291.62 276.712ZM291.396 276.335C291.407 276.352 291.418 276.369 291.428 276.386C291.411 276.357 291.393 276.329 291.375 276.301L291.396 276.335ZM290.785 275.507C290.907 275.65 291.022 275.797 291.13 275.945C291.022 275.797 290.907 275.65 290.785 275.507ZM290.469 275.153C290.441 275.123 290.412 275.093 290.384 275.063L290.443 275.126L290.469 275.153ZM289.916 274.614C289.881 274.583 289.845 274.552 289.81 274.521L289.877 274.58L289.916 274.614ZM287.788 273.14C287.836 273.166 287.883 273.191 287.93 273.217C287.883 273.191 287.836 273.166 287.788 273.14ZM291.308 276.2C291.316 276.211 291.323 276.222 291.331 276.234L291.308 276.2C291.3 276.188 291.293 276.177 291.285 276.166L291.308 276.2Z" fill="#2A2C2E"/>
</g>
<g opacity="0.3" filter="url(#filter1_d_644_4246)">
<path fill-rule="evenodd" clip-rule="evenodd" d="M177.476 185.097L103.248 227.877L204.11 286.008L229.137 286.034L278.338 243.228L177.476 185.097Z" fill="#2A2C2E"/>
</g>
<g filter="url(#filter2_d_644_4246)">
<path fill-rule="evenodd" clip-rule="evenodd" d="M223.558 136.597L149.33 179.377L250.192 237.508L324.42 194.728L223.558 136.597Z" fill="url(#paint0_linear_644_4246)"/>
</g>
<g filter="url(#filter3_d_644_4246)">
<path fill-rule="evenodd" clip-rule="evenodd" d="M149.348 191.504L138.803 197.582L239.665 255.713L250.21 249.635L149.348 191.504Z" fill="url(#paint1_linear_644_4246)"/>
</g>
<g filter="url(#filter4_d_644_4246)">
<path fill-rule="evenodd" clip-rule="evenodd" d="M138.821 209.708L128.275 215.786L229.137 273.917L239.683 267.84L138.821 209.708Z" fill="url(#paint2_linear_644_4246)"/>
</g>
<g filter="url(#filter5_d_644_4246)">
<path fill-rule="evenodd" clip-rule="evenodd" d="M149.33 179.377V191.493L250.192 249.624V237.508L149.33 179.377Z" fill="#2A2C2E"/>
</g>
<g filter="url(#filter6_d_644_4246)">
<path fill-rule="evenodd" clip-rule="evenodd" d="M138.803 197.582V209.698L239.665 267.829V255.713L138.803 197.582Z" fill="#2A2C2E"/>
</g>
<g filter="url(#filter7_d_644_4246)">
<path fill-rule="evenodd" clip-rule="evenodd" d="M128.275 215.786V227.902L229.137 286.033V273.917L128.275 215.786Z" fill="#2A2C2E"/>
</g>
<g filter="url(#filter8_d_644_4246)">
<path fill-rule="evenodd" clip-rule="evenodd" d="M192.691 29.5567C200.625 25.5187 211.31 26.4017 223.065 33.1762C223.065 33.1767 223.066 33.1767 223.066 33.1767C247.54 47.2822 267.38 81.5863 267.38 109.797V220.211L290.228 207.043V96.6292C290.228 68.4187 270.387 34.1142 245.913 20.0087H245.913C234.201 13.2587 223.551 12.3572 215.628 16.3437C206.994 20.6877 192.691 29.5567 192.691 29.5567Z" fill="url(#paint3_linear_644_4246)"/>
</g>
<g filter="url(#filter9_d_644_4246)">
<path fill-rule="evenodd" clip-rule="evenodd" d="M259.852 177.473L209.129 148.239V51.5591C209.129 46.7376 209.827 42.5061 211.114 38.9261C196.667 36.3166 186.281 46.1311 186.281 64.7271C186.281 104.003 186.281 161.407 186.281 161.407L259.852 203.809V177.473Z" fill="url(#paint4_linear_644_4246)"/>
</g>
<g filter="url(#filter10_d_644_4246)">
<path fill-rule="evenodd" clip-rule="evenodd" d="M209.129 148.24L186.281 161.407L259.852 203.809V177.473L209.129 148.24Z" fill="url(#paint5_linear_644_4246)"/>
</g>
<g filter="url(#filter11_d_644_4246)">
<path fill-rule="evenodd" clip-rule="evenodd" d="M259.851 135.531C253.285 145.388 242.059 151.89 229.324 151.89C209.106 151.89 192.691 135.504 192.691 115.321C192.691 95.1389 209.106 78.7529 229.324 78.7529C240.897 78.7529 251.223 84.1214 257.939 92.4994C259.179 97.4614 259.851 102.398 259.851 107.128V135.531Z" fill="#2A2C2E"/>
</g>
<g filter="url(#filter12_d_644_4246)">
<path fill-rule="evenodd" clip-rule="evenodd" d="M250.193 237.508L250.211 249.635L239.667 255.713V267.829L229.121 273.907L229.14 286.034L324.425 231.118V194.73L250.193 237.508Z" fill="url(#paint6_linear_644_4246)"/>
</g>
<g filter="url(#filter13_d_644_4246)">
<path fill-rule="evenodd" clip-rule="evenodd" d="M267.383 109.797C267.383 81.5863 247.543 47.2822 223.069 33.1767C223.069 33.1767 223.068 33.1767 223.068 33.1762C198.594 19.0712 178.754 30.5057 178.754 58.7167C178.754 106.031 178.754 169.13 178.754 169.13L267.383 220.211V109.797ZM259.853 107.129C259.853 83.7113 243.385 55.2358 223.069 43.5268C223.069 43.5268 223.068 43.5268 223.068 43.5263C202.752 31.8178 186.283 41.3092 186.283 64.7272C186.283 104.003 186.283 161.407 186.283 161.407L259.853 203.809C259.853 203.809 259.853 146.405 259.853 107.129Z" fill="#2A2C2E"/>
</g>
<g filter="url(#filter14_d_644_4246)">
<path fill-rule="evenodd" clip-rule="evenodd" d="M284.172 261.509L316.72 242.82C318.09 242.046 319.988 242.171 322.086 243.38C326.256 245.783 329.642 251.567 329.642 256.288C329.642 258.6 328.83 260.231 327.511 261.011L294.823 279.779C296.19 279.019 297.036 277.369 297.036 275.01C297.036 270.289 293.649 264.505 289.479 262.101C287.412 260.91 285.537 260.771 284.172 261.509Z" fill="url(#paint7_linear_644_4246)"/>
</g>
<g filter="url(#filter15_d_644_4246)">
<path fill-rule="evenodd" clip-rule="evenodd" d="M289.479 262.101C293.649 264.505 297.035 270.289 297.035 275.009C297.035 279.73 293.649 281.611 289.479 279.207C285.308 276.804 281.922 271.02 281.922 266.299C281.922 261.578 285.308 259.697 289.479 262.101Z" fill="#2A2C2E"/>
</g>
<defs>
<filter id="filter0_d_644_4246" x="273.174" y="254.185" width="55.7207" height="37.1533" filterUnits="userSpaceOnUse" color-interpolation-filters="sRGB">
<feFlood flood-opacity="0" result="BackgroundImageFix"/>
<feColorMatrix in="SourceAlpha" type="matrix" values="0 0 0 0 0 0 0 0 0 0 0 0 0 0 0 0 0 0 127 0" result="hardAlpha"/>
<feOffset dy="4"/>
<feGaussianBlur stdDeviation="2"/>
<feComposite in2="hardAlpha" operator="out"/>
<feColorMatrix type="matrix" values="0 0 0 0 0.0823529 0 0 0 0 0.0823529 0 0 0 0 0.0862745 0 0 0 0.2 0"/>
<feBlend mode="normal" in2="BackgroundImageFix" result="effect1_dropShadow_644_4246"/>
<feBlend mode="normal" in="SourceGraphic" in2="effect1_dropShadow_644_4246" result="shape"/>
</filter>
<filter id="filter1_d_644_4246" x="99.248" y="185.097" width="183.09" height="108.937" filterUnits="userSpaceOnUse" color-interpolation-filters="sRGB">
<feFlood flood-opacity="0" result="BackgroundImageFix"/>
<feColorMatrix in="SourceAlpha" type="matrix" values="0 0 0 0 0 0 0 0 0 0 0 0 0 0 0 0 0 0 127 0" result="hardAlpha"/>
<feOffset dy="4"/>
<feGaussianBlur stdDeviation="2"/>
<feComposite in2="hardAlpha" operator="out"/>
<feColorMatrix type="matrix" values="0 0 0 0 0.0823529 0 0 0 0 0.0823529 0 0 0 0 0.0862745 0 0 0 0.2 0"/>
<feBlend mode="normal" in2="BackgroundImageFix" result="effect1_dropShadow_644_4246"/>
<feBlend mode="normal" in="SourceGraphic" in2="effect1_dropShadow_644_4246" result="shape"/>
</filter>
<filter id="filter2_d_644_4246" x="145.33" y="136.597" width="183.09" height="108.912" filterUnits="userSpaceOnUse" color-interpolation-filters="sRGB">
<feFlood flood-opacity="0" result="BackgroundImageFix"/>
<feColorMatrix in="SourceAlpha" type="matrix" values="0 0 0 0 0 0 0 0 0 0 0 0 0 0 0 0 0 0 127 0" result="hardAlpha"/>
<feOffset dy="4"/>
<feGaussianBlur stdDeviation="2"/>
<feComposite in2="hardAlpha" operator="out"/>
<feColorMatrix type="matrix" values="0 0 0 0 0.0823529 0 0 0 0 0.0823529 0 0 0 0 0.0862745 0 0 0 0.2 0"/>
<feBlend mode="normal" in2="BackgroundImageFix" result="effect1_dropShadow_644_4246"/>
<feBlend mode="normal" in="SourceGraphic" in2="effect1_dropShadow_644_4246" result="shape"/>
</filter>
<filter id="filter3_d_644_4246" x="134.803" y="191.504" width="119.406" height="72.2085" filterUnits="userSpaceOnUse" color-interpolation-filters="sRGB">
<feFlood flood-opacity="0" result="BackgroundImageFix"/>
<feColorMatrix in="SourceAlpha" type="matrix" values="0 0 0 0 0 0 0 0 0 0 0 0 0 0 0 0 0 0 127 0" result="hardAlpha"/>
<feOffset dy="4"/>
<feGaussianBlur stdDeviation="2"/>
<feComposite in2="hardAlpha" operator="out"/>
<feColorMatrix type="matrix" values="0 0 0 0 0.0823529 0 0 0 0 0.0823529 0 0 0 0 0.0862745 0 0 0 0.2 0"/>
<feBlend mode="normal" in2="BackgroundImageFix" result="effect1_dropShadow_644_4246"/>
<feBlend mode="normal" in="SourceGraphic" in2="effect1_dropShadow_644_4246" result="shape"/>
</filter>
<filter id="filter4_d_644_4246" x="124.275" y="209.708" width="119.408" height="72.2085" filterUnits="userSpaceOnUse" color-interpolation-filters="sRGB">
<feFlood flood-opacity="0" result="BackgroundImageFix"/>
<feColorMatrix in="SourceAlpha" type="matrix" values="0 0 0 0 0 0 0 0 0 0 0 0 0 0 0 0 0 0 127 0" result="hardAlpha"/>
<feOffset dy="4"/>
<feGaussianBlur stdDeviation="2"/>
<feComposite in2="hardAlpha" operator="out"/>
<feColorMatrix type="matrix" values="0 0 0 0 0.0823529 0 0 0 0 0.0823529 0 0 0 0 0.0862745 0 0 0 0.2 0"/>
<feBlend mode="normal" in2="BackgroundImageFix" result="effect1_dropShadow_644_4246"/>
<feBlend mode="normal" in="SourceGraphic" in2="effect1_dropShadow_644_4246" result="shape"/>
</filter>
<filter id="filter5_d_644_4246" x="145.33" y="179.377" width="108.861" height="78.2476" filterUnits="userSpaceOnUse" color-interpolation-filters="sRGB">
<feFlood flood-opacity="0" result="BackgroundImageFix"/>
<feColorMatrix in="SourceAlpha" type="matrix" values="0 0 0 0 0 0 0 0 0 0 0 0 0 0 0 0 0 0 127 0" result="hardAlpha"/>
<feOffset dy="4"/>
<feGaussianBlur stdDeviation="2"/>
<feComposite in2="hardAlpha" operator="out"/>
<feColorMatrix type="matrix" values="0 0 0 0 0.0823529 0 0 0 0 0.0823529 0 0 0 0 0.0862745 0 0 0 0.2 0"/>
<feBlend mode="normal" in2="BackgroundImageFix" result="effect1_dropShadow_644_4246"/>
<feBlend mode="normal" in="SourceGraphic" in2="effect1_dropShadow_644_4246" result="shape"/>
</filter>
<filter id="filter6_d_644_4246" x="134.803" y="197.582" width="108.861" height="78.2476" filterUnits="userSpaceOnUse" color-interpolation-filters="sRGB">
<feFlood flood-opacity="0" result="BackgroundImageFix"/>
<feColorMatrix in="SourceAlpha" type="matrix" values="0 0 0 0 0 0 0 0 0 0 0 0 0 0 0 0 0 0 127 0" result="hardAlpha"/>
<feOffset dy="4"/>
<feGaussianBlur stdDeviation="2"/>
<feComposite in2="hardAlpha" operator="out"/>
<feColorMatrix type="matrix" values="0 0 0 0 0.0823529 0 0 0 0 0.0823529 0 0 0 0 0.0862745 0 0 0 0.2 0"/>
<feBlend mode="normal" in2="BackgroundImageFix" result="effect1_dropShadow_644_4246"/>
<feBlend mode="normal" in="SourceGraphic" in2="effect1_dropShadow_644_4246" result="shape"/>
</filter>
<filter id="filter7_d_644_4246" x="124.275" y="215.786" width="108.861" height="78.2476" filterUnits="userSpaceOnUse" color-interpolation-filters="sRGB">
<feFlood flood-opacity="0" result="BackgroundImageFix"/>
<feColorMatrix in="SourceAlpha" type="matrix" values="0 0 0 0 0 0 0 0 0 0 0 0 0 0 0 0 0 0 127 0" result="hardAlpha"/>
<feOffset dy="4"/>
<feGaussianBlur stdDeviation="2"/>
<feComposite in2="hardAlpha" operator="out"/>
<feColorMatrix type="matrix" values="0 0 0 0 0.0823529 0 0 0 0 0.0823529 0 0 0 0 0.0862745 0 0 0 0.2 0"/>
<feBlend mode="normal" in2="BackgroundImageFix" result="effect1_dropShadow_644_4246"/>
<feBlend mode="normal" in="SourceGraphic" in2="effect1_dropShadow_644_4246" result="shape"/>
</filter>
<filter id="filter8_d_644_4246" x="188.691" y="13.9668" width="105.537" height="214.245" filterUnits="userSpaceOnUse" color-interpolation-filters="sRGB">
<feFlood flood-opacity="0" result="BackgroundImageFix"/>
<feColorMatrix in="SourceAlpha" type="matrix" values="0 0 0 0 0 0 0 0 0 0 0 0 0 0 0 0 0 0 127 0" result="hardAlpha"/>
<feOffset dy="4"/>
<feGaussianBlur stdDeviation="2"/>
<feComposite in2="hardAlpha" operator="out"/>
<feColorMatrix type="matrix" values="0 0 0 0 0.0823529 0 0 0 0 0.0823529 0 0 0 0 0.0862745 0 0 0 0.2 0"/>
<feBlend mode="normal" in2="BackgroundImageFix" result="effect1_dropShadow_644_4246"/>
<feBlend mode="normal" in="SourceGraphic" in2="effect1_dropShadow_644_4246" result="shape"/>
</filter>
<filter id="filter9_d_644_4246" x="182.281" y="38.5107" width="81.5703" height="173.298" filterUnits="userSpaceOnUse" color-interpolation-filters="sRGB">
<feFlood flood-opacity="0" result="BackgroundImageFix"/>
<feColorMatrix in="SourceAlpha" type="matrix" values="0 0 0 0 0 0 0 0 0 0 0 0 0 0 0 0 0 0 127 0" result="hardAlpha"/>
<feOffset dy="4"/>
<feGaussianBlur stdDeviation="2"/>
<feComposite in2="hardAlpha" operator="out"/>
<feColorMatrix type="matrix" values="0 0 0 0 0.0823529 0 0 0 0 0.0823529 0 0 0 0 0.0862745 0 0 0 0.2 0"/>
<feBlend mode="normal" in2="BackgroundImageFix" result="effect1_dropShadow_644_4246"/>
<feBlend mode="normal" in="SourceGraphic" in2="effect1_dropShadow_644_4246" result="shape"/>
</filter>
<filter id="filter10_d_644_4246" x="182.281" y="148.24" width="81.5703" height="63.5693" filterUnits="userSpaceOnUse" color-interpolation-filters="sRGB">
<feFlood flood-opacity="0" result="BackgroundImageFix"/>
<feColorMatrix in="SourceAlpha" type="matrix" values="0 0 0 0 0 0 0 0 0 0 0 0 0 0 0 0 0 0 127 0" result="hardAlpha"/>
<feOffset dy="4"/>
<feGaussianBlur stdDeviation="2"/>
<feComposite in2="hardAlpha" operator="out"/>
<feColorMatrix type="matrix" values="0 0 0 0 0.0823529 0 0 0 0 0.0823529 0 0 0 0 0.0862745 0 0 0 0.2 0"/>
<feBlend mode="normal" in2="BackgroundImageFix" result="effect1_dropShadow_644_4246"/>
<feBlend mode="normal" in="SourceGraphic" in2="effect1_dropShadow_644_4246" result="shape"/>
</filter>
<filter id="filter11_d_644_4246" x="188.691" y="78.7529" width="75.1602" height="81.1372" filterUnits="userSpaceOnUse" color-interpolation-filters="sRGB">
<feFlood flood-opacity="0" result="BackgroundImageFix"/>
<feColorMatrix in="SourceAlpha" type="matrix" values="0 0 0 0 0 0 0 0 0 0 0 0 0 0 0 0 0 0 127 0" result="hardAlpha"/>
<feOffset dy="4"/>
<feGaussianBlur stdDeviation="2"/>
<feComposite in2="hardAlpha" operator="out"/>
<feColorMatrix type="matrix" values="0 0 0 0 0.0823529 0 0 0 0 0.0823529 0 0 0 0 0.0862745 0 0 0 0.2 0"/>
<feBlend mode="normal" in2="BackgroundImageFix" result="effect1_dropShadow_644_4246"/>
<feBlend mode="normal" in="SourceGraphic" in2="effect1_dropShadow_644_4246" result="shape"/>
</filter>
<filter id="filter12_d_644_4246" x="225.121" y="194.73" width="103.305" height="99.3032" filterUnits="userSpaceOnUse" color-interpolation-filters="sRGB">
<feFlood flood-opacity="0" result="BackgroundImageFix"/>
<feColorMatrix in="SourceAlpha" type="matrix" values="0 0 0 0 0 0 0 0 0 0 0 0 0 0 0 0 0 0 127 0" result="hardAlpha"/>
<feOffset dy="4"/>
<feGaussianBlur stdDeviation="2"/>
<feComposite in2="hardAlpha" operator="out"/>
<feColorMatrix type="matrix" values="0 0 0 0 0.0823529 0 0 0 0 0.0823529 0 0 0 0 0.0862745 0 0 0 0.2 0"/>
<feBlend mode="normal" in2="BackgroundImageFix" result="effect1_dropShadow_644_4246"/>
<feBlend mode="normal" in="SourceGraphic" in2="effect1_dropShadow_644_4246" result="shape"/>
</filter>
<filter id="filter13_d_644_4246" x="174.754" y="27.1348" width="96.6289" height="201.077" filterUnits="userSpaceOnUse" color-interpolation-filters="sRGB">
<feFlood flood-opacity="0" result="BackgroundImageFix"/>
<feColorMatrix in="SourceAlpha" type="matrix" values="0 0 0 0 0 0 0 0 0 0 0 0 0 0 0 0 0 0 127 0" result="hardAlpha"/>
<feOffset dy="4"/>
<feGaussianBlur stdDeviation="2"/>
<feComposite in2="hardAlpha" operator="out"/>
<feColorMatrix type="matrix" values="0 0 0 0 0.0823529 0 0 0 0 0.0823529 0 0 0 0 0.0862745 0 0 0 0.2 0"/>
<feBlend mode="normal" in2="BackgroundImageFix" result="effect1_dropShadow_644_4246"/>
<feBlend mode="normal" in="SourceGraphic" in2="effect1_dropShadow_644_4246" result="shape"/>
</filter>
<filter id="filter14_d_644_4246" x="280.172" y="242.334" width="53.4707" height="45.4453" filterUnits="userSpaceOnUse" color-interpolation-filters="sRGB">
<feFlood flood-opacity="0" result="BackgroundImageFix"/>
<feColorMatrix in="SourceAlpha" type="matrix" values="0 0 0 0 0 0 0 0 0 0 0 0 0 0 0 0 0 0 127 0" result="hardAlpha"/>
<feOffset dy="4"/>
<feGaussianBlur stdDeviation="2"/>
<feComposite in2="hardAlpha" operator="out"/>
<feColorMatrix type="matrix" values="0 0 0 0 0.0823529 0 0 0 0 0.0823529 0 0 0 0 0.0862745 0 0 0 0.2 0"/>
<feBlend mode="normal" in2="BackgroundImageFix" result="effect1_dropShadow_644_4246"/>
<feBlend mode="normal" in="SourceGraphic" in2="effect1_dropShadow_644_4246" result="shape"/>
</filter>
<filter id="filter15_d_644_4246" x="277.922" y="261.055" width="23.1133" height="27.1978" filterUnits="userSpaceOnUse" color-interpolation-filters="sRGB">
<feFlood flood-opacity="0" result="BackgroundImageFix"/>
<feColorMatrix in="SourceAlpha" type="matrix" values="0 0 0 0 0 0 0 0 0 0 0 0 0 0 0 0 0 0 127 0" result="hardAlpha"/>
<feOffset dy="4"/>
<feGaussianBlur stdDeviation="2"/>
<feComposite in2="hardAlpha" operator="out"/>
<feColorMatrix type="matrix" values="0 0 0 0 0.0823529 0 0 0 0 0.0823529 0 0 0 0 0.0862745 0 0 0 0.2 0"/>
<feBlend mode="normal" in2="BackgroundImageFix" result="effect1_dropShadow_644_4246"/>
<feBlend mode="normal" in="SourceGraphic" in2="effect1_dropShadow_644_4246" result="shape"/>
</filter>
<linearGradient id="paint0_linear_644_4246" x1="145.656" y1="136.597" x2="337.662" y2="188.808" gradientUnits="userSpaceOnUse">
<stop stop-color="#ABEADA"/>
<stop offset="1" stop-color="#FFEA9E"/>
</linearGradient>
<linearGradient id="paint1_linear_644_4246" x1="136.465" y1="191.504" x2="258.636" y2="224.726" gradientUnits="userSpaceOnUse">
<stop stop-color="#ABEADA"/>
<stop offset="1" stop-color="#FFEA9E"/>
</linearGradient>
<linearGradient id="paint2_linear_644_4246" x1="125.938" y1="209.709" x2="248.109" y2="242.93" gradientUnits="userSpaceOnUse">
<stop stop-color="#ABEADA"/>
<stop offset="1" stop-color="#FFEA9E"/>
</linearGradient>
<linearGradient id="paint3_linear_644_4246" x1="190.645" y1="13.9668" x2="304.886" y2="22.434" gradientUnits="userSpaceOnUse">
<stop stop-color="#ABEADA"/>
<stop offset="1" stop-color="#FFEA9E"/>
</linearGradient>
<linearGradient id="paint4_linear_644_4246" x1="184.738" y1="38.5108" x2="270.962" y2="44.5252" gradientUnits="userSpaceOnUse">
<stop stop-color="#ABEADA"/>
<stop offset="1" stop-color="#FFEA9E"/>
</linearGradient>
<linearGradient id="paint5_linear_644_4246" x1="184.738" y1="148.24" x2="267.806" y2="165.476" gradientUnits="userSpaceOnUse">
<stop stop-color="#ABEADA"/>
<stop offset="1" stop-color="#FFEA9E"/>
</linearGradient>
<linearGradient id="paint6_linear_644_4246" x1="227.121" y1="194.73" x2="336.436" y2="212.613" gradientUnits="userSpaceOnUse">
<stop stop-color="#ABEADA"/>
<stop offset="1" stop-color="#FFEA9E"/>
</linearGradient>
<linearGradient id="paint7_linear_644_4246" x1="283.218" y1="242.334" x2="334.897" y2="252.169" gradientUnits="userSpaceOnUse">
<stop stop-color="#ABEADA"/>
<stop offset="1" stop-color="#FFEA9E"/>
</linearGradient>
</defs>
</svg>
