<svg width="453" height="300" viewBox="0 0 453 300" fill="none" xmlns="http://www.w3.org/2000/svg">
<g clip-path="url(#clip0_443_3410)">
<rect width="453" height="300" rx="16" fill="#131517"/>
<g opacity="0.1">
<path d="M22 -9V308.5" stroke="white" stroke-dasharray="8 8"/>
<path d="M46 -9V308.5" stroke="white" stroke-dasharray="8 8"/>
<path d="M70 -9V308.5" stroke="white" stroke-dasharray="8 8"/>
<path d="M94 -9V308.5" stroke="white" stroke-dasharray="8 8"/>
<path d="M118 -9V308.5" stroke="white" stroke-dasharray="8 8"/>
<path d="M142 -9V308.5" stroke="white" stroke-dasharray="8 8"/>
<path d="M166 -9V308.5" stroke="white" stroke-dasharray="8 8"/>
<path d="M190 -9V308.5" stroke="white" stroke-dasharray="8 8"/>
<path d="M214 -9V308.5" stroke="white" stroke-dasharray="8 8"/>
<path d="M238 -9V308.5" stroke="white" stroke-dasharray="8 8"/>
<path d="M262 -9V308.5" stroke="white" stroke-dasharray="8 8"/>
<path d="M286 -9V308.5" stroke="white" stroke-dasharray="8 8"/>
<path d="M310 -9V308.5" stroke="white" stroke-dasharray="8 8"/>
<path d="M334 -9V308.5" stroke="white" stroke-dasharray="8 8"/>
<path d="M358 -9V308.5" stroke="white" stroke-dasharray="8 8"/>
<path d="M382 -9V308.5" stroke="white" stroke-dasharray="8 8"/>
<path d="M406 -9V308.5" stroke="white" stroke-dasharray="8 8"/>
<path d="M430 -9V308.5" stroke="white" stroke-dasharray="8 8"/>
<path d="M-2 284H454" stroke="white" stroke-dasharray="8 8"/>
<path d="M-2 260H454" stroke="white" stroke-dasharray="8 8"/>
<path d="M-2 236L454 236" stroke="white" stroke-dasharray="8 8"/>
<path d="M-2 212L454 212" stroke="white" stroke-dasharray="8 8"/>
<path d="M-2 188L454 188" stroke="white" stroke-dasharray="8 8"/>
<path d="M-2 164L454 164" stroke="white" stroke-dasharray="8 8"/>
<path d="M-2 140L454 140" stroke="white" stroke-dasharray="8 8"/>
<path d="M-2 116L454 116" stroke="white" stroke-dasharray="8 8"/>
<path d="M-2 92L454 92" stroke="white" stroke-dasharray="8 8"/>
<path d="M-2 68L454 68" stroke="white" stroke-dasharray="8 8"/>
<path d="M-2 44L454 44" stroke="white" stroke-dasharray="8 8"/>
<path d="M-2 20L454 20" stroke="white" stroke-dasharray="8 8"/>
</g>
<g style="mix-blend-mode:color-dodge" opacity="0.4">
<path d="M49 238C49 214.756 53.5912 191.74 62.5114 170.265C71.4316 148.79 84.5062 129.278 100.989 112.842C117.471 96.4061 137.038 83.3684 158.574 74.4733C180.109 65.5782 203.19 61 226.5 61C249.81 61 272.891 65.5782 294.426 74.4733C315.962 83.3684 335.529 96.4061 352.011 112.842C368.494 129.278 381.568 148.79 390.489 170.265C399.409 191.74 404 214.756 404 238L49 238Z" fill="url(#paint0_linear_443_3410)"/>
</g>
<path d="M49 238C49 214.756 53.5912 191.74 62.5114 170.265C71.4316 148.79 84.5062 129.278 100.989 112.842C117.471 96.4061 137.038 83.3684 158.574 74.4733C180.109 65.5782 203.19 61 226.5 61C249.81 61 272.891 65.5782 294.426 74.4733C315.962 83.3684 335.529 96.4061 352.011 112.842C368.494 129.278 381.568 148.79 390.489 170.265C399.409 191.74 404 214.756 404 238L49 238Z" fill="#1D1F22"/>
<path d="M41.8452 215L46.7276 221.545L53.272 216.662L48.3896 210.118L41.8452 215ZM50.8337 216.308L50.6898 217.297L50.8337 216.308ZM157.061 176.525L156.376 175.796L157.061 176.525ZM47.4147 216.821L50.6898 217.297L50.9777 215.318L47.7025 214.842L47.4147 216.821ZM147.549 186.829L157.745 177.254L156.376 175.796L146.18 185.371L147.549 186.829ZM342.326 115.474L387.058 43.3061L385.358 42.2525L340.626 114.42L342.326 115.474ZM241.528 155.856C280.345 165.926 321.198 149.56 342.326 115.474L340.626 114.42C319.96 147.761 279.999 163.77 242.03 153.92L241.528 155.856ZM50.6898 217.297C85.9314 222.423 121.588 211.207 147.549 186.829L146.18 185.371C120.663 209.332 85.6164 220.356 50.9777 215.318L50.6898 217.297ZM157.745 177.254C180.15 156.216 211.779 148.138 241.528 155.856L242.03 153.92C211.616 146.029 179.281 154.288 156.376 175.796L157.745 177.254Z" fill="url(#paint1_linear_443_3410)"/>
<path d="M32.7722 229.531L37.829 235.942L44.2395 230.885L39.1828 224.474L32.7722 229.531ZM62.2723 233.014L62.1551 234.007L62.2723 233.014ZM38.3886 231.201L62.1551 234.007L62.3896 232.021L38.6231 229.215L38.3886 231.201ZM153.321 202.048L159.007 196.289L157.583 194.883L151.898 200.643L153.321 202.048ZM356.373 130.319L408.35 48.6409L406.662 47.5671L354.685 129.245L356.373 130.319ZM250.377 171.525C290.917 182.419 333.836 165.734 356.373 130.319L354.685 129.245C332.617 163.923 290.592 180.261 250.896 169.594L250.377 171.525ZM62.1551 234.007C95.8462 237.984 129.488 226.191 153.321 202.048L151.898 200.643C128.498 224.347 95.4681 235.926 62.3896 232.021L62.1551 234.007ZM159.007 196.289C182.79 172.196 217.683 162.74 250.377 171.525L250.896 169.594C217.507 160.621 181.872 170.279 157.583 194.883L159.007 196.289Z" fill="url(#paint2_linear_443_3410)"/>
<path d="M23.7222 243.368L28.771 249.785L35.1879 244.736L30.1391 238.319L23.7222 243.368ZM367.097 146.414L366.254 145.876L367.097 146.414ZM29.3366 245.045L69.2078 249.802L69.4448 247.816L29.5736 243.059L29.3366 245.045ZM162.102 217.477L169.726 209.805L168.308 208.395L160.683 216.067L162.102 217.477ZM367.94 146.952L402.493 92.837L400.807 91.7607L366.254 145.876L367.94 146.952ZM261.549 186.483C301.862 198.559 345.293 182.421 367.94 146.952L366.254 145.876C344.089 180.592 301.58 196.386 262.123 184.567L261.549 186.483ZM69.2078 249.802C103.497 253.894 137.76 241.971 162.102 217.477L160.683 216.067C136.775 240.124 103.123 251.835 69.4448 247.816L69.2078 249.802ZM169.726 209.805C193.69 185.691 228.983 176.727 261.549 186.483L262.123 184.567C228.85 174.599 192.792 183.758 168.308 208.395L169.726 209.805Z" fill="url(#paint3_linear_443_3410)"/>
<path d="M16.2618 256.726L21.3624 263.102L27.7382 258.001L22.6376 251.626L16.2618 256.726ZM78.6682 263.66L78.5578 264.654L78.6682 263.66ZM177.595 224.522L176.89 223.813L177.595 224.522ZM21.8896 258.358L78.5578 264.654L78.7786 262.666L22.1104 256.37L21.8896 258.358ZM171.146 232.34L178.299 225.231L176.89 223.813L169.736 230.921L171.146 232.34ZM377.756 158.965L421.67 87.4976L419.966 86.4506L376.052 157.918L377.756 158.965ZM269.976 201.292C311.322 212.797 355.288 195.531 377.756 158.965L376.052 157.918C354.051 193.724 310.998 210.631 270.512 199.365L269.976 201.292ZM78.5578 264.654C112.721 268.45 146.764 256.568 171.146 232.34L169.736 230.921C145.784 254.723 112.34 266.395 78.7786 262.666L78.5578 264.654ZM178.299 225.231C202.332 201.35 237.335 192.21 269.976 201.292L270.512 199.365C237.179 190.09 201.432 199.425 176.89 223.813L178.299 225.231Z" fill="url(#paint4_linear_443_3410)"/>
<circle cx="386.208" cy="40.6494" r="8.51948" fill="white" stroke="#131517" stroke-width="4.25974"/>
<circle cx="408.571" cy="48.1039" r="8.51948" fill="white" stroke="#131517" stroke-width="4.25974"/>
<circle cx="397.923" cy="97.0908" r="8.51948" fill="white" stroke="#131517" stroke-width="4.25974"/>
<circle cx="421.351" cy="84.3115" r="8.51948" fill="white" stroke="#131517" stroke-width="4.25974"/>
<circle cx="83.5" cy="215.5" r="9.5" fill="#1D1F22" stroke="white" stroke-width="2"/>
<circle cx="211" cy="205" r="9" fill="#1D1F22" stroke="white" stroke-width="2"/>
<path d="M329 142C329 144.248 327.397 146.478 324.378 148.203C321.388 149.911 317.191 151 312.5 151C307.809 151 303.612 149.911 300.622 148.203C297.603 146.478 296 144.248 296 142C296 139.752 297.603 137.522 300.622 135.797C303.612 134.089 307.809 133 312.5 133C317.191 133 321.388 134.089 324.378 135.797C327.397 137.522 329 139.752 329 142Z" fill="#1D1F22" stroke="white" stroke-width="2"/>
<path d="M128.51 247.429L152.676 243.863L143.681 266.574L128.51 247.429Z" fill="#131517" stroke="white" stroke-width="2"/>
<path d="M383.33 134.755L396.085 140.169L385.019 148.508L383.33 134.755Z" fill="#131517" stroke="white" stroke-width="2"/>
<path d="M135.388 169.181L142.5 165.149L149.612 169.181L156.66 173.325L156.725 181.5L156.66 189.675L149.612 193.819L142.5 197.851L135.388 193.819L128.34 189.675L128.275 181.5L128.34 173.325L135.388 169.181Z" fill="#1D1F22" stroke="white" stroke-width="2"/>
<path d="M287.388 171.181L294.5 167.149L301.612 171.181L308.66 175.325L308.725 183.5L308.66 191.675L301.612 195.819L294.5 199.851L287.388 195.819L280.34 191.675L280.275 183.5L280.34 175.325L287.388 171.181Z" fill="#1D1F22" stroke="white" stroke-width="2"/>
<rect x="344.158" y="175.98" width="22.0047" height="22.0047" transform="rotate(-10 344.158 175.98)" fill="#1D1F22" stroke="white" stroke-width="2"/>
<rect x="233.744" y="140.414" width="16.0229" height="16.0229" transform="rotate(45 233.744 140.414)" fill="#1D1F22" stroke="white" stroke-width="2"/>
<path d="M350.5 89L353.336 96.664L361 99.5L353.336 102.336L350.5 110L347.664 102.336L340 99.5L347.664 96.664L350.5 89Z" fill="#131517" stroke="white" stroke-width="2"/>
<path d="M68.4246 256.425L75.8492 259.838L83.2739 256.425L79.8599 263.849L83.2739 271.274L75.8492 267.86L68.4246 271.274L71.8386 263.849L68.4246 256.425Z" fill="#131517" stroke="white" stroke-width="2"/>
</g>
<defs>
<linearGradient id="paint0_linear_443_3410" x1="41.5513" y1="61" x2="422.043" y2="180.6" gradientUnits="userSpaceOnUse">
<stop stop-color="#ABEADA"/>
<stop offset="1" stop-color="#FFEA9E"/>
</linearGradient>
<linearGradient id="paint1_linear_443_3410" x1="22.5326" y1="224.351" x2="319.49" y2="17.89" gradientUnits="userSpaceOnUse">
<stop offset="0.427282" stop-color="#ABEADA"/>
<stop offset="0.523643" stop-color="white"/>
<stop offset="0.577403" stop-color="#FFEA9E"/>
</linearGradient>
<linearGradient id="paint2_linear_443_3410" x1="22.5318" y1="239.26" x2="319.489" y2="32.7992" gradientUnits="userSpaceOnUse">
<stop offset="0.427282" stop-color="#ABEADA"/>
<stop offset="0.523643" stop-color="white"/>
<stop offset="0.577403" stop-color="#FFEA9E"/>
</linearGradient>
<linearGradient id="paint3_linear_443_3410" x1="22.5329" y1="254.169" x2="319.49" y2="47.7082" gradientUnits="userSpaceOnUse">
<stop offset="0.427282" stop-color="#ABEADA"/>
<stop offset="0.523643" stop-color="white"/>
<stop offset="0.577403" stop-color="#FFEA9E"/>
</linearGradient>
<linearGradient id="paint4_linear_443_3410" x1="22.5325" y1="269.078" x2="319.49" y2="62.6176" gradientUnits="userSpaceOnUse">
<stop offset="0.427282" stop-color="#ABEADA"/>
<stop offset="0.523643" stop-color="white"/>
<stop offset="0.577403" stop-color="#FFEA9E"/>
</linearGradient>
<clipPath id="clip0_443_3410">
<rect width="453" height="300" rx="16" fill="white"/>
</clipPath>
</defs>
</svg>
