<svg width="453" height="300" viewBox="0 0 453 300" fill="none" xmlns="http://www.w3.org/2000/svg">
<rect width="453" height="300" rx="16" fill="#121212" fill-opacity="0.62"/>
<g clip-path="url(#clip0_644_4703)">
<path opacity="0.3" fill-rule="evenodd" clip-rule="evenodd" d="M191.94 244.443C195.736 246.641 197.644 249.704 197.145 252.799C196.216 258.565 194.628 269.369 193.296 277.636C192.942 279.827 195 281.912 198.441 282.848C201.881 283.783 225.844 283.152 225.844 283.152C225.844 283.152 296.509 229.993 322.304 215.058C329.348 210.979 329.348 204.367 322.304 200.288C291.927 182.7 215.573 138.491 185.196 120.903C178.152 116.825 166.731 116.825 159.687 120.903C139.828 132.401 101.741 154.453 81.8827 165.951C74.8386 170.03 74.8386 176.642 81.8827 180.721C109.15 196.509 172.234 233.034 191.94 244.443Z" fill="#2A2C2E"/>
<g filter="url(#filter0_d_644_4703)">
<path fill-rule="evenodd" clip-rule="evenodd" d="M215.688 214.411C219.484 216.609 221.392 219.671 220.893 222.766C219.964 228.533 218.376 238.384 217.044 246.651C216.691 248.842 218.748 250.927 222.188 251.863C225.629 252.798 229.713 252.385 232.401 250.829C261.851 233.777 320.257 199.96 346.052 185.025C353.096 180.947 353.096 174.334 346.052 170.255C315.675 152.667 239.321 108.459 208.944 90.8709C201.9 86.7924 190.479 86.7924 183.434 90.8709C163.576 102.369 125.489 124.421 105.631 135.919C98.5865 139.997 98.5865 146.61 105.631 150.688C132.898 166.476 195.983 203.002 215.688 214.411Z" fill="url(#paint0_linear_644_4703)"/>
</g>
<path fill-rule="evenodd" clip-rule="evenodd" d="M217.005 246.057C217.005 246.057 219.964 228.534 220.893 222.767C221.332 220.04 219.903 217.337 216.959 215.23L216.855 215.156L216.792 215.113L216.697 215.047L216.624 214.997L216.537 214.938L216.454 214.884L216.373 214.831L216.282 214.773L216.206 214.724L216.106 214.663L216.036 214.619L215.921 214.55L215.864 214.515L215.688 214.412C195.983 203.003 132.898 166.477 105.631 150.689C105.576 150.658 105.521 150.626 105.467 150.593L105.306 150.496C102 148.483 100.348 145.894 100.348 143.304V174.653L100.374 174.656C100.601 177.141 102.354 179.587 105.631 181.484C132.898 197.272 195.983 233.797 215.688 245.206C216.156 245.477 216.595 245.762 217.005 246.057ZM100.38 142.678L100.386 142.628L100.348 142.622V143.304C100.348 143.271 100.348 143.237 100.349 143.204L100.349 143.179L100.35 143.148V143.135L100.351 143.109L100.353 143.054L100.36 142.929L100.363 142.883L100.369 142.803C100.372 142.762 100.376 142.72 100.38 142.678Z" fill="#2A2C2E"/>
<g filter="url(#filter1_i_644_4703)">
<path fill-rule="evenodd" clip-rule="evenodd" d="M346.051 185.027L232.4 250.83C229.713 252.386 225.628 252.8 222.188 251.864C219.017 251.001 217.021 249.164 217.004 247.166V277.964C217.023 279.96 219.019 281.796 222.188 282.658C225.628 283.594 229.713 283.181 232.4 281.624C261.85 264.573 320.256 230.756 346.051 215.821C349.17 214.015 350.908 211.712 351.265 209.352L351.265 209.351C351.356 208.75 351.357 208.146 351.269 207.546L351.302 178.268L351.295 178.33L351.294 178.336L351.294 178.342L351.288 178.393L351.28 178.451L351.279 178.458L351.278 178.465L351.271 178.518L351.263 178.572L351.261 178.58L351.26 178.588L351.252 178.643L351.243 178.694L351.241 178.701L351.24 178.71L351.23 178.768L351.221 178.815L351.219 178.823L351.217 178.833L351.206 178.892L351.196 178.936L351.194 178.944L351.192 178.956L351.178 179.017L351.169 179.058L351.167 179.066L351.164 179.078L351.149 179.141L351.139 179.179L351.137 179.187L351.133 179.2L351.116 179.265L351.106 179.301L351.104 179.308L351.1 179.322L351.081 179.389L351.072 179.422L351.07 179.428L351.065 179.443L351.044 179.513L351.035 179.543L351.033 179.549L351.028 179.564L351.004 179.637L350.995 179.664L350.993 179.669L350.988 179.685L350.962 179.76L350.952 179.785L350.951 179.789L350.945 179.805L350.916 179.883L350.908 179.905L350.906 179.909L350.9 179.924L350.869 180.006L350.861 180.026L350.86 180.029L350.854 180.042L350.818 180.128L350.811 180.146L350.81 180.148L350.805 180.159L350.765 180.251L350.71 180.373L350.704 180.386C350.575 180.661 350.426 180.933 350.259 181.202L350.25 181.216L350.195 181.302L350.181 181.324L350.174 181.335L350.124 181.41L350.105 181.439L350.102 181.443L350.095 181.454L350.049 181.52L350.026 181.554L350.022 181.56L350.013 181.572L349.97 181.633L349.945 181.669L349.939 181.676L349.93 181.69L349.888 181.746L349.861 181.783L349.854 181.792L349.843 181.807L349.803 181.859L349.775 181.897L349.766 181.908L349.754 181.923L349.715 181.973L349.686 182.01L349.676 182.023L349.662 182.04L349.625 182.086L349.595 182.123L349.583 182.137L349.569 182.155L349.532 182.199L349.501 182.235L349.488 182.251L349.472 182.27L349.436 182.312L349.405 182.347L349.39 182.364L349.372 182.385L349.337 182.424L349.307 182.458L349.29 182.477L349.271 182.499L349.237 182.536L349.206 182.569L349.187 182.589L349.166 182.612L349.133 182.647L349.103 182.679L349.082 182.701L349.059 182.725L349.027 182.758L348.997 182.789L348.974 182.812L348.949 182.837L348.918 182.868L348.889 182.898L348.864 182.922L348.837 182.949L348.807 182.978L348.778 183.006L348.751 183.032L348.723 183.06L348.693 183.087L348.665 183.114L348.635 183.141L348.605 183.17L348.577 183.196L348.55 183.221L348.517 183.25L348.485 183.28L348.458 183.304L348.431 183.327L348.397 183.358L348.363 183.388L348.337 183.411L348.311 183.433L348.274 183.465L348.238 183.497L348.213 183.518L348.188 183.538L348.148 183.572L348.11 183.604L348.086 183.623L348.063 183.643L348.02 183.678L347.979 183.711L347.957 183.729L347.935 183.747L347.89 183.783L347.847 183.817L347.826 183.833L347.805 183.85L347.756 183.887L347.711 183.922L347.692 183.937L347.672 183.952L347.621 183.991L347.573 184.027L347.555 184.04L347.537 184.054L347.482 184.094L347.432 184.131L347.416 184.143L347.399 184.155L347.342 184.196L347.289 184.234L347.275 184.244L347.259 184.255L347.198 184.298L347.144 184.336L347.13 184.345L347.117 184.354L347.051 184.399L346.995 184.437L346.984 184.445L346.972 184.453L346.902 184.499L346.844 184.538L346.835 184.544L346.825 184.55L346.75 184.599L346.691 184.637L346.683 184.642L346.675 184.647L346.595 184.698L346.535 184.736L346.529 184.74L346.522 184.744L346.435 184.798L346.376 184.834L346.368 184.839L346.266 184.9L346.215 184.931L346.213 184.932C346.159 184.964 346.105 184.995 346.051 185.027Z" fill="url(#paint1_linear_644_4703)"/>
</g>
<path fill-rule="evenodd" clip-rule="evenodd" d="M219.618 157.368C234.053 149.011 257.489 149.011 271.924 157.368C286.358 165.726 286.358 179.296 271.924 187.653C257.489 196.01 234.053 196.01 219.618 187.653C205.184 179.296 205.184 165.726 219.618 157.368Z" fill="url(#paint2_linear_644_4703)"/>
<path fill-rule="evenodd" clip-rule="evenodd" d="M221.398 188.618C235.57 195.818 257.004 195.686 270.904 188.222C256.732 181.022 235.298 181.154 221.398 188.618Z" fill="#0F0F0F"/>
<path fill-rule="evenodd" clip-rule="evenodd" d="M260.13 113.002C262.039 114.108 263.85 116.142 265.069 118.55C267.341 123.037 271.222 130.703 274.478 137.135C275.341 138.841 276.764 140.114 278.036 140.319C279.309 140.524 280.156 139.617 280.156 138.051C280.156 120.894 280.156 86.8669 280.156 71.8389C280.156 67.7349 277.283 62.7449 273.739 60.6929C258.456 51.8439 220.042 29.6024 204.759 20.7534C201.215 18.7014 198.342 20.3649 198.342 24.4689C198.342 36.0384 198.342 58.2274 198.342 69.7969C198.342 73.9009 201.215 78.8914 204.759 80.9434C218.477 88.8864 250.216 107.262 260.13 113.002Z" fill="#2A2C2E"/>
<g filter="url(#filter2_d_644_4703)">
<path fill-rule="evenodd" clip-rule="evenodd" d="M200.311 20.2522C201.464 19.6357 203.031 19.7537 204.757 20.7532C220.04 29.6022 258.454 51.8437 273.738 60.6927C277.282 62.7447 280.155 67.7347 280.155 71.8387C280.155 86.8667 280.155 120.894 280.155 138.051C280.155 139.061 279.803 139.796 279.212 140.136L298.266 129.093C298.369 129.048 298.465 128.992 298.554 128.926L298.555 128.926C299.059 128.554 299.354 127.859 299.354 126.935C299.354 109.778 299.354 75.7502 299.354 60.7222C299.354 56.6182 296.482 51.6282 292.937 49.5762C277.654 40.7272 239.24 18.4857 223.957 9.63673C222.191 8.61423 220.592 8.51423 219.432 9.17923L219.417 9.18773L200.311 20.2522Z" fill="#2A2C2E"/>
<path fill-rule="evenodd" clip-rule="evenodd" d="M260.128 113.002C262.037 114.108 263.848 116.142 265.067 118.55C267.339 123.037 271.22 130.703 274.476 137.135C275.339 138.841 276.762 140.114 278.034 140.319C279.307 140.524 280.154 139.617 280.154 138.051C280.154 120.894 280.154 86.8669 280.154 71.8389C280.154 67.7349 277.281 62.7449 273.738 60.6929C258.454 51.8439 220.04 29.6024 204.757 20.7534C201.213 18.7014 198.34 20.3649 198.34 24.4689C198.34 36.0384 198.34 58.2274 198.34 69.7969C198.34 73.9009 201.213 78.8914 204.757 80.9434C218.475 88.8864 250.214 107.262 260.128 113.002Z" fill="url(#paint3_linear_644_4703)"/>
</g>
<path fill-rule="evenodd" clip-rule="evenodd" d="M213.602 49.2996C217.68 51.6606 220.991 57.4451 220.991 62.2086C220.991 66.9721 217.68 68.9226 213.602 66.5611C209.524 64.2001 206.213 58.4156 206.213 53.6521C206.213 48.8886 209.524 46.9381 213.602 49.2996Z" fill="#2A2C2E"/>
<path fill-rule="evenodd" clip-rule="evenodd" d="M236.356 62.4734C240.434 64.8344 243.745 70.6189 243.745 75.3824C243.745 80.1459 240.434 82.0964 236.356 79.7354C232.278 77.3739 228.967 71.5894 228.967 66.8259C228.967 62.0624 232.278 60.1119 236.356 62.4734Z" fill="#2A2C2E"/>
<path fill-rule="evenodd" clip-rule="evenodd" d="M259.108 75.6465C263.187 78.008 266.497 83.792 266.497 88.556C266.497 93.3195 263.187 95.2695 259.108 92.9085C255.03 90.547 251.719 84.7625 251.719 79.999C251.719 75.2355 255.03 73.2855 259.108 75.6465Z" fill="#2A2C2E"/>
<path fill-rule="evenodd" clip-rule="evenodd" d="M213.002 48.98C213.201 49.0765 213.401 49.183 213.603 49.3C217.681 51.661 220.992 57.4455 220.992 62.209C220.992 62.4705 220.982 62.7235 220.963 62.9685C220.764 62.8725 220.564 62.7655 220.362 62.6485C216.283 60.2875 212.973 54.503 212.973 49.7395C212.973 49.478 212.983 49.225 213.002 48.98Z" fill="#0F0F0F"/>
<path fill-rule="evenodd" clip-rule="evenodd" d="M235.754 62.1538C235.953 62.2503 236.153 62.3568 236.355 62.4738C240.434 64.8348 243.745 70.6193 243.745 75.3828C243.745 75.6443 243.735 75.8973 243.715 76.1423C243.516 76.0463 243.316 75.9398 243.114 75.8223C239.036 73.4613 235.725 67.6768 235.725 62.9133C235.725 62.6518 235.735 62.3988 235.754 62.1538Z" fill="#0F0F0F"/>
<path fill-rule="evenodd" clip-rule="evenodd" d="M258.506 75.3267C258.704 75.4232 258.905 75.5297 259.107 75.6467C263.186 78.0082 266.496 83.7922 266.496 88.5562C266.496 88.8177 266.486 89.0707 266.467 89.3152C266.268 89.2192 266.068 89.1127 265.866 88.9957C261.788 86.6342 258.477 80.8497 258.477 76.0862C258.477 75.8247 258.487 75.5717 258.506 75.3267Z" fill="#0F0F0F"/>
<g filter="url(#filter3_d_644_4703)">
<path fill-rule="evenodd" clip-rule="evenodd" d="M135.652 206.083C135.652 190.958 135.652 161.951 135.652 146.827C135.652 141.462 139.408 134.938 144.041 132.256C164.021 120.688 214.238 91.6124 234.217 80.0444C236.076 78.9679 237.793 78.6739 239.184 79.0539L216.576 65.8219C215.041 64.7549 212.827 64.8094 210.365 66.2344C190.386 77.8024 140.169 106.878 120.19 118.446C115.557 121.128 111.801 127.652 111.801 133.017C111.801 148.141 111.801 177.148 111.801 192.273C111.801 194.736 112.593 196.527 113.897 197.484L113.899 197.484C114.131 197.654 114.379 197.798 114.642 197.914L137.711 211.266C136.429 210.302 135.652 208.522 135.652 206.083Z" fill="#2A2C2E"/>
</g>
<g filter="url(#filter4_d_644_4703)">
<path fill-rule="evenodd" clip-rule="evenodd" d="M216.428 169.03C218.925 167.584 221.291 167.501 222.885 168.804C225.855 171.231 230.928 175.378 235.185 178.857C236.314 179.78 238.174 179.29 239.837 177.632C241.5 175.975 242.608 173.506 242.608 171.459C242.608 149.03 242.608 104.547 242.608 84.901C242.608 79.536 238.852 77.3615 234.219 80.044C214.24 91.612 164.022 120.688 144.043 132.256C139.41 134.938 135.654 141.462 135.654 146.827C135.654 161.951 135.654 190.958 135.654 206.083C135.654 211.448 139.41 213.622 144.043 210.94C161.977 200.556 203.468 176.534 216.428 169.03Z" fill="url(#paint4_linear_644_4703)"/>
</g>
<path fill-rule="evenodd" clip-rule="evenodd" d="M158.91 152.014C164.18 148.909 168.458 151.43 168.458 157.64C168.458 163.851 164.18 171.414 158.91 174.519C153.64 177.624 149.361 175.103 149.361 168.893C149.361 162.682 153.64 155.119 158.91 152.014Z" fill="#2A2C2E"/>
<path fill-rule="evenodd" clip-rule="evenodd" d="M159.421 151.729C159.433 151.953 159.439 152.183 159.439 152.418C159.439 158.628 155.161 166.192 149.891 169.297C149.719 169.398 149.549 169.493 149.38 169.582C149.368 169.358 149.361 169.128 149.361 168.893C149.361 162.682 153.64 155.119 158.91 152.014C159.081 151.913 159.252 151.818 159.421 151.729Z" fill="#0F0F0F"/>
<g filter="url(#filter5_d_644_4703)">
<path fill-rule="evenodd" clip-rule="evenodd" d="M242.059 159.361L210.304 140.975C208.558 139.965 207.477 137.775 207.477 134.652C207.477 128.441 211.755 120.878 217.025 117.773C219.67 116.214 222.066 116.073 223.796 117.105L223.796 117.104L255.501 135.461C253.774 134.462 251.399 134.615 248.78 136.159C243.51 139.264 239.232 146.827 239.232 153.038C239.232 156.161 240.314 158.351 242.059 159.361Z" fill="#2A2C2E"/>
</g>
<g filter="url(#filter6_d_644_4703)">
<path fill-rule="evenodd" clip-rule="evenodd" d="M198.731 169.463L179.917 158.57V158.569C178.172 157.559 177.09 155.369 177.09 152.246C177.09 146.035 181.368 138.472 186.638 135.367C189.284 133.808 191.679 133.667 193.409 134.699V134.698L212.173 145.563C210.446 144.563 208.072 144.716 205.452 146.26C200.182 149.365 195.903 156.928 195.903 163.139C195.903 166.262 196.986 168.452 198.731 169.463Z" fill="#2A2C2E"/>
</g>
<path fill-rule="evenodd" clip-rule="evenodd" d="M248.781 136.159C254.051 133.054 258.329 135.575 258.329 141.786C258.329 147.996 254.051 155.559 248.781 158.664C243.511 161.769 239.232 159.248 239.232 153.038C239.232 146.828 243.511 139.265 248.781 136.159Z" fill="url(#paint5_linear_644_4703)"/>
<path fill-rule="evenodd" clip-rule="evenodd" d="M205.451 146.261C210.721 143.155 214.999 145.676 214.999 151.887C214.999 158.097 210.721 165.66 205.451 168.766C200.181 171.871 195.902 169.35 195.902 163.139C195.902 156.929 200.181 149.366 205.451 146.261Z" fill="url(#paint6_linear_644_4703)"/>
</g>
<defs>
<filter id="filter0_d_644_4703" x="95.8022" y="87.812" width="260.079" height="173.637" filterUnits="userSpaceOnUse" color-interpolation-filters="sRGB">
<feFlood flood-opacity="0" result="BackgroundImageFix"/>
<feColorMatrix in="SourceAlpha" type="matrix" values="0 0 0 0 0 0 0 0 0 0 0 0 0 0 0 0 0 0 127 0" result="hardAlpha"/>
<feOffset dy="4.54545"/>
<feGaussianBlur stdDeviation="2.27273"/>
<feComposite in2="hardAlpha" operator="out"/>
<feColorMatrix type="matrix" values="0 0 0 0 0.0823529 0 0 0 0 0.0823529 0 0 0 0 0.0862745 0 0 0 0.2 0"/>
<feBlend mode="normal" in2="BackgroundImageFix" result="effect1_dropShadow_644_4703"/>
<feBlend mode="normal" in="SourceGraphic" in2="effect1_dropShadow_644_4703" result="shape"/>
</filter>
<filter id="filter1_i_644_4703" x="211.322" y="178.268" width="140.012" height="111.704" filterUnits="userSpaceOnUse" color-interpolation-filters="sRGB">
<feFlood flood-opacity="0" result="BackgroundImageFix"/>
<feBlend mode="normal" in="SourceGraphic" in2="BackgroundImageFix" result="shape"/>
<feColorMatrix in="SourceAlpha" type="matrix" values="0 0 0 0 0 0 0 0 0 0 0 0 0 0 0 0 0 0 127 0" result="hardAlpha"/>
<feOffset dx="-5.68182" dy="6.81818"/>
<feGaussianBlur stdDeviation="3.75"/>
<feComposite in2="hardAlpha" operator="arithmetic" k2="-1" k3="1"/>
<feColorMatrix type="matrix" values="0 0 0 0 0.0823529 0 0 0 0 0.0823529 0 0 0 0 0.0862745 0 0 0 0.2 0"/>
<feBlend mode="normal" in2="shape" result="effect1_innerShadow_644_4703"/>
</filter>
<filter id="filter2_d_644_4703" x="193.794" y="8.75781" width="110.105" height="140.681" filterUnits="userSpaceOnUse" color-interpolation-filters="sRGB">
<feFlood flood-opacity="0" result="BackgroundImageFix"/>
<feColorMatrix in="SourceAlpha" type="matrix" values="0 0 0 0 0 0 0 0 0 0 0 0 0 0 0 0 0 0 127 0" result="hardAlpha"/>
<feOffset dy="4.54545"/>
<feGaussianBlur stdDeviation="2.27273"/>
<feComposite in2="hardAlpha" operator="out"/>
<feColorMatrix type="matrix" values="0 0 0 0 0.0823529 0 0 0 0 0.0823529 0 0 0 0 0.0862745 0 0 0 0.2 0"/>
<feBlend mode="normal" in2="BackgroundImageFix" result="effect1_dropShadow_644_4703"/>
<feBlend mode="normal" in="SourceGraphic" in2="effect1_dropShadow_644_4703" result="shape"/>
</filter>
<filter id="filter3_d_644_4703" x="107.255" y="65.0854" width="136.474" height="155.272" filterUnits="userSpaceOnUse" color-interpolation-filters="sRGB">
<feFlood flood-opacity="0" result="BackgroundImageFix"/>
<feColorMatrix in="SourceAlpha" type="matrix" values="0 0 0 0 0 0 0 0 0 0 0 0 0 0 0 0 0 0 127 0" result="hardAlpha"/>
<feOffset dy="4.54545"/>
<feGaussianBlur stdDeviation="2.27273"/>
<feComposite in2="hardAlpha" operator="out"/>
<feColorMatrix type="matrix" values="0 0 0 0 0.0823529 0 0 0 0 0.0823529 0 0 0 0 0.0862745 0 0 0 0.2 0"/>
<feBlend mode="normal" in2="BackgroundImageFix" result="effect1_dropShadow_644_4703"/>
<feBlend mode="normal" in="SourceGraphic" in2="effect1_dropShadow_644_4703" result="shape"/>
</filter>
<filter id="filter4_d_644_4703" x="131.109" y="78.895" width="116.044" height="142.284" filterUnits="userSpaceOnUse" color-interpolation-filters="sRGB">
<feFlood flood-opacity="0" result="BackgroundImageFix"/>
<feColorMatrix in="SourceAlpha" type="matrix" values="0 0 0 0 0 0 0 0 0 0 0 0 0 0 0 0 0 0 127 0" result="hardAlpha"/>
<feOffset dy="4.54545"/>
<feGaussianBlur stdDeviation="2.27273"/>
<feComposite in2="hardAlpha" operator="out"/>
<feColorMatrix type="matrix" values="0 0 0 0 0.0823529 0 0 0 0 0.0823529 0 0 0 0 0.0862745 0 0 0 0.2 0"/>
<feBlend mode="normal" in2="BackgroundImageFix" result="effect1_dropShadow_644_4703"/>
<feBlend mode="normal" in="SourceGraphic" in2="effect1_dropShadow_644_4703" result="shape"/>
</filter>
<filter id="filter5_d_644_4703" x="202.931" y="116.444" width="57.1143" height="52.0084" filterUnits="userSpaceOnUse" color-interpolation-filters="sRGB">
<feFlood flood-opacity="0" result="BackgroundImageFix"/>
<feColorMatrix in="SourceAlpha" type="matrix" values="0 0 0 0 0 0 0 0 0 0 0 0 0 0 0 0 0 0 127 0" result="hardAlpha"/>
<feOffset dy="4.54545"/>
<feGaussianBlur stdDeviation="2.27273"/>
<feComposite in2="hardAlpha" operator="out"/>
<feColorMatrix type="matrix" values="0 0 0 0 0.0823529 0 0 0 0 0.0823529 0 0 0 0 0.0862745 0 0 0 0.2 0"/>
<feBlend mode="normal" in2="BackgroundImageFix" result="effect1_dropShadow_644_4703"/>
<feBlend mode="normal" in="SourceGraphic" in2="effect1_dropShadow_644_4703" result="shape"/>
</filter>
<filter id="filter6_d_644_4703" x="172.544" y="134.038" width="44.1749" height="44.5162" filterUnits="userSpaceOnUse" color-interpolation-filters="sRGB">
<feFlood flood-opacity="0" result="BackgroundImageFix"/>
<feColorMatrix in="SourceAlpha" type="matrix" values="0 0 0 0 0 0 0 0 0 0 0 0 0 0 0 0 0 0 127 0" result="hardAlpha"/>
<feOffset dy="4.54545"/>
<feGaussianBlur stdDeviation="2.27273"/>
<feComposite in2="hardAlpha" operator="out"/>
<feColorMatrix type="matrix" values="0 0 0 0 0.0823529 0 0 0 0 0.0823529 0 0 0 0 0.0862745 0 0 0 0.2 0"/>
<feBlend mode="normal" in2="BackgroundImageFix" result="effect1_dropShadow_644_4703"/>
<feBlend mode="normal" in="SourceGraphic" in2="effect1_dropShadow_644_4703" result="shape"/>
</filter>
<linearGradient id="paint0_linear_644_4703" x1="95.0814" y1="87.812" x2="374.692" y2="154.654" gradientUnits="userSpaceOnUse">
<stop stop-color="#ABEADA"/>
<stop offset="1" stop-color="#FFEA9E"/>
</linearGradient>
<linearGradient id="paint1_linear_644_4703" x1="214.185" y1="178.268" x2="366.26" y2="208.792" gradientUnits="userSpaceOnUse">
<stop stop-color="#ABEADA"/>
<stop offset="1" stop-color="#FFEA9E"/>
</linearGradient>
<linearGradient id="paint2_linear_644_4703" x1="246.317" y1="175.568" x2="317.588" y2="236.231" gradientUnits="userSpaceOnUse">
<stop stop-color="#ABEADA"/>
<stop offset="1" stop-color="#FFEA9E"/>
</linearGradient>
<linearGradient id="paint3_linear_644_4703" x1="196.623" y1="19.8745" x2="291.897" y2="30.0147" gradientUnits="userSpaceOnUse">
<stop stop-color="#ABEADA"/>
<stop offset="1" stop-color="#FFEA9E"/>
</linearGradient>
<linearGradient id="paint4_linear_644_4703" x1="133.41" y1="78.895" x2="257.406" y2="94.4996" gradientUnits="userSpaceOnUse">
<stop stop-color="#ABEADA"/>
<stop offset="1" stop-color="#FFEA9E"/>
</linearGradient>
<linearGradient id="paint5_linear_644_4703" x1="238.832" y1="134.83" x2="261.008" y2="137.468" gradientUnits="userSpaceOnUse">
<stop stop-color="#ABEADA"/>
<stop offset="1" stop-color="#FFEA9E"/>
</linearGradient>
<linearGradient id="paint6_linear_644_4703" x1="195.502" y1="144.931" x2="217.679" y2="147.569" gradientUnits="userSpaceOnUse">
<stop offset="1" stop-color="#ABEADA"/>
<stop offset="1" stop-color="#FFEA9E"/>
</linearGradient>
<clipPath id="clip0_644_4703">
<rect x="27" width="398.864" height="300" rx="11.3636" fill="white"/>
</clipPath>
</defs>
</svg>
