<svg width="453" height="300" viewBox="0 0 453 300" fill="none" xmlns="http://www.w3.org/2000/svg">
<g clip-path="url(#clip0_443_3411)">
<rect width="453" height="300" rx="16" fill="#131517"/>
<g opacity="0.1">
<path d="M22 -9V308.5" stroke="white" stroke-dasharray="8 8"/>
<path d="M46 -9V308.5" stroke="white" stroke-dasharray="8 8"/>
<path d="M70 -9V308.5" stroke="white" stroke-dasharray="8 8"/>
<path d="M94 -9V308.5" stroke="white" stroke-dasharray="8 8"/>
<path d="M118 -9V308.5" stroke="white" stroke-dasharray="8 8"/>
<path d="M142 -9V308.5" stroke="white" stroke-dasharray="8 8"/>
<path d="M166 -9V308.5" stroke="white" stroke-dasharray="8 8"/>
<path d="M190 -9V308.5" stroke="white" stroke-dasharray="8 8"/>
<path d="M214 -9V308.5" stroke="white" stroke-dasharray="8 8"/>
<path d="M238 -9V308.5" stroke="white" stroke-dasharray="8 8"/>
<path d="M262 -9V308.5" stroke="white" stroke-dasharray="8 8"/>
<path d="M286 -9V308.5" stroke="white" stroke-dasharray="8 8"/>
<path d="M310 -9V308.5" stroke="white" stroke-dasharray="8 8"/>
<path d="M334 -9V308.5" stroke="white" stroke-dasharray="8 8"/>
<path d="M358 -9V308.5" stroke="white" stroke-dasharray="8 8"/>
<path d="M382 -9V308.5" stroke="white" stroke-dasharray="8 8"/>
<path d="M406 -9V308.5" stroke="white" stroke-dasharray="8 8"/>
<path d="M430 -9V308.5" stroke="white" stroke-dasharray="8 8"/>
<path d="M-2 284H454" stroke="white" stroke-dasharray="8 8"/>
<path d="M-2 260H454" stroke="white" stroke-dasharray="8 8"/>
<path d="M-2 236L454 236" stroke="white" stroke-dasharray="8 8"/>
<path d="M-2 212L454 212" stroke="white" stroke-dasharray="8 8"/>
<path d="M-2 188L454 188" stroke="white" stroke-dasharray="8 8"/>
<path d="M-2 164L454 164" stroke="white" stroke-dasharray="8 8"/>
<path d="M-2 140L454 140" stroke="white" stroke-dasharray="8 8"/>
<path d="M-2 116L454 116" stroke="white" stroke-dasharray="8 8"/>
<path d="M-2 92L454 92" stroke="white" stroke-dasharray="8 8"/>
<path d="M-2 68L454 68" stroke="white" stroke-dasharray="8 8"/>
<path d="M-2 44L454 44" stroke="white" stroke-dasharray="8 8"/>
<path d="M-2 20L454 20" stroke="white" stroke-dasharray="8 8"/>
</g>
<g style="mix-blend-mode:color-dodge" opacity="0.4">
<path d="M349 217.945V82.0554C349 79.5429 347.67 77.2181 345.504 75.945L230.091 8.11088C227.874 6.80783 225.126 6.80784 222.909 8.11089L107.496 75.945C105.33 77.2181 104 79.5429 104 82.0554V217.945C104 220.457 105.33 222.782 107.496 224.055L222.909 291.889C225.126 293.192 227.874 293.192 230.091 291.889L345.504 224.055C347.67 222.782 349 220.457 349 217.945Z" fill="url(#paint0_linear_443_3411)"/>
</g>
<path d="M349 219.711V80.2887C349 78.8707 348.249 77.5587 347.027 76.8402L228.527 7.19129C227.276 6.4559 225.724 6.4559 224.473 7.19129L105.973 76.8402C104.751 77.5587 104 78.8707 104 80.2887V219.711C104 221.129 104.751 222.441 105.973 223.16L224.473 292.809C225.724 293.544 227.276 293.544 228.527 292.809L347.027 223.16C348.249 222.441 349 221.129 349 219.711Z" fill="#1D1F22"/>
<path d="M328 206.79V92.6484C328 91.2304 327.249 89.9184 326.027 89.1999L229.027 32.1912C227.776 31.4559 226.224 31.4559 224.973 32.1912L127.973 89.1999C126.751 89.9184 126 91.2304 126 92.6484V206.79C126 208.208 126.751 209.52 127.973 210.239L224.973 267.247C226.224 267.983 227.776 267.983 229.027 267.247L326.027 210.239C327.249 209.52 328 208.208 328 206.79Z" fill="#1D1F22" stroke="url(#paint1_linear_443_3411)" stroke-width="2"/>
<path d="M267.243 78.8741V124.991C267.243 126.002 266.708 126.937 265.837 127.449L226.622 150.496M267.243 78.8741L226.622 102.748M267.243 78.8741L228.066 55.8489C227.174 55.3249 226.069 55.3249 225.177 55.8489L186 78.8741M226.622 150.496V102.748M226.622 150.496L187.406 127.449C186.535 126.937 186 126.002 186 124.991V78.8741M226.622 102.748L186 78.8741" stroke="url(#paint2_linear_443_3411)" stroke-width="2"/>
<path d="M307.243 150.874V197.478C307.243 198.187 306.868 198.843 306.256 199.202L266.622 222.496M307.243 150.874L266.622 174.748M307.243 150.874L267.635 127.596C267.009 127.228 266.234 127.228 265.608 127.596L226 150.874M266.622 222.496V174.748M266.622 222.496L226.987 199.202C226.375 198.843 226 198.187 226 197.478V150.874M266.622 174.748L226 150.874" stroke="url(#paint3_linear_443_3411)" stroke-width="2"/>
<g style="mix-blend-mode:color-dodge" opacity="0.4">
<path d="M308.243 149.478V104.018C308.243 103.309 307.868 102.653 307.256 102.294L268.635 79.5956C268.009 79.2279 267.234 79.2279 266.608 79.5956L227.987 102.294C227.375 102.653 227 103.309 227 104.018V149.478C227 150.187 227.375 150.843 227.987 151.202L266.608 173.901C267.234 174.268 268.009 174.268 268.635 173.901L307.256 151.202C307.868 150.843 308.243 150.187 308.243 149.478Z" fill="url(#paint4_linear_443_3411)"/>
<path d="M308.243 149.478V104.018C308.243 103.309 307.868 102.653 307.256 102.294L268.635 79.5956C268.009 79.2279 267.234 79.2279 266.608 79.5956L227.987 102.294C227.375 102.653 227 103.309 227 104.018V149.478C227 150.187 227.375 150.843 227.987 151.202L266.608 173.901C267.234 174.268 268.009 174.268 268.635 173.901L307.256 151.202C307.868 150.843 308.243 150.187 308.243 149.478Z" stroke="url(#paint5_linear_443_3411)" stroke-width="2"/>
</g>
<path d="M307.256 151.202C307.868 150.843 308.243 150.187 308.243 149.478V102.874L267.622 126.748V174.496L307.256 151.202Z" fill="white"/>
<path d="M227 149.478C227 150.187 227.375 150.843 227.987 151.202L267.622 174.496V126.748L227 102.874V149.478Z" fill="#B0B0B0"/>
<path d="M308.243 102.874L268.635 79.5956C268.009 79.2279 267.234 79.2279 266.608 79.5956L227 102.874L267.622 126.748L308.243 102.874Z" fill="white"/>
<path d="M308.243 102.874V149.478C308.243 150.187 307.868 150.843 307.256 151.202L267.622 174.496M308.243 102.874L267.622 126.748M308.243 102.874L268.635 79.5956C268.009 79.2279 267.234 79.2279 266.608 79.5956L227 102.874M267.622 174.496V126.748M267.622 174.496L227.987 151.202C227.375 150.843 227 150.187 227 149.478V102.874M267.622 126.748L227 102.874" stroke="white" stroke-width="2"/>
<path d="M226.243 150.378V196.982C226.243 197.691 225.868 198.347 225.256 198.706L185.622 222M226.243 150.378L185.622 174.252M226.243 150.378L186.635 127.099C186.009 126.732 185.234 126.732 184.608 127.099L145 150.378M185.622 222V174.252M185.622 222L145.987 198.706C145.375 198.347 145 197.691 145 196.982V150.378M185.622 174.252L145 150.378" stroke="url(#paint6_linear_443_3411)" stroke-width="2"/>
<g style="mix-blend-mode:color-dodge" opacity="0.4">
<path d="M226.243 149.478V104.018C226.243 103.309 225.868 102.653 225.256 102.294L186.635 79.5956C186.009 79.2279 185.234 79.2279 184.608 79.5956L145.987 102.294C145.375 102.653 145 103.309 145 104.018V149.478C145 150.187 145.375 150.843 145.987 151.202L184.608 173.901C185.234 174.268 186.009 174.268 186.635 173.901L225.256 151.202C225.868 150.843 226.243 150.187 226.243 149.478Z" fill="url(#paint7_linear_443_3411)"/>
<path d="M226.243 149.478V104.018C226.243 103.309 225.868 102.653 225.256 102.294L186.635 79.5956C186.009 79.2279 185.234 79.2279 184.608 79.5956L145.987 102.294C145.375 102.653 145 103.309 145 104.018V149.478C145 150.187 145.375 150.843 145.987 151.202L184.608 173.901C185.234 174.268 186.009 174.268 186.635 173.901L225.256 151.202C225.868 150.843 226.243 150.187 226.243 149.478Z" stroke="url(#paint8_linear_443_3411)" stroke-width="2"/>
</g>
<path d="M185.622 174.496V126.748L145 102.874V149.478C145 150.187 145.375 150.843 145.987 151.202L185.622 174.496Z" fill="#ECECEC"/>
<path d="M185.622 126.748L226.243 102.874L186.635 79.5956C186.009 79.2279 185.234 79.2279 184.608 79.5956L145 102.874L185.622 126.748Z" fill="white"/>
<path d="M225.256 151.202C225.868 150.843 226.243 150.187 226.243 149.478V102.874L185.622 126.748V174.496L225.256 151.202Z" fill="#B0B0B0"/>
<path d="M226.243 102.874V149.478C226.243 150.187 225.868 150.843 225.256 151.202L185.622 174.496M226.243 102.874L185.622 126.748M226.243 102.874L186.635 79.5956C186.009 79.2279 185.234 79.2279 184.608 79.5956L145 102.874M185.622 174.496V126.748M185.622 174.496L145.987 151.202C145.375 150.843 145 150.187 145 149.478V102.874M185.622 126.748L145 102.874" stroke="white" stroke-width="2"/>
<g style="mix-blend-mode:color-dodge" opacity="0.4">
<path d="M267.243 220.478V175.018C267.243 174.309 266.868 173.653 266.256 173.294L227.635 150.596C227.009 150.228 226.234 150.228 225.608 150.596L186.987 173.294C186.375 173.653 186 174.309 186 175.018V220.478C186 221.187 186.375 221.843 186.987 222.202L225.608 244.901C226.234 245.268 227.009 245.268 227.635 244.901L266.256 222.202C266.868 221.843 267.243 221.187 267.243 220.478Z" fill="url(#paint9_linear_443_3411)"/>
<path d="M267.243 220.478V175.018C267.243 174.309 266.868 173.653 266.256 173.294L227.635 150.596C227.009 150.228 226.234 150.228 225.608 150.596L186.987 173.294C186.375 173.653 186 174.309 186 175.018V220.478C186 221.187 186.375 221.843 186.987 222.202L225.608 244.901C226.234 245.268 227.009 245.268 227.635 244.901L266.256 222.202C266.868 221.843 267.243 221.187 267.243 220.478Z" stroke="url(#paint10_linear_443_3411)" stroke-width="2"/>
</g>
<path d="M226.622 245.496V197.748L186 173.874V220.478C186 221.187 186.375 221.843 186.987 222.202L226.622 245.496Z" fill="#ECECEC"/>
<path d="M266.256 222.202C266.868 221.843 267.243 221.187 267.243 220.478V173.874L226.622 197.748V245.496L266.256 222.202Z" fill="white"/>
<path d="M226.622 197.748L267.243 173.874L227.635 150.596C227.009 150.228 226.234 150.228 225.608 150.596L186 173.874L226.622 197.748Z" fill="#D5D5D5"/>
<path d="M267.243 173.874V220.478C267.243 221.187 266.868 221.843 266.256 222.202L226.622 245.496M267.243 173.874L226.622 197.748M267.243 173.874L227.635 150.596C227.009 150.228 226.234 150.228 225.608 150.596L186 173.874M226.622 245.496V197.748M226.622 245.496L186.987 222.202C186.375 221.843 186 221.187 186 220.478V173.874M226.622 197.748L186 173.874" stroke="url(#paint11_linear_443_3411)" stroke-width="2"/>
<path d="M267.243 126.874V173.478C267.243 174.187 266.868 174.843 266.256 175.202L226.622 198.496M267.243 126.874L226.622 150.748M267.243 126.874L227.635 103.596C227.009 103.228 226.234 103.228 225.608 103.596L186 126.874M226.622 198.496V150.748M226.622 198.496L186.987 175.202C186.375 174.843 186 174.187 186 173.478V126.874M226.622 150.748L186 126.874" stroke="white" stroke-width="2"/>
</g>
<defs>
<linearGradient id="paint0_linear_443_3411" x1="98.8594" y1="6.00002" x2="382.358" y2="43.7968" gradientUnits="userSpaceOnUse">
<stop stop-color="#ABEADA"/>
<stop offset="1" stop-color="#FFEA9E"/>
</linearGradient>
<linearGradient id="paint1_linear_443_3411" x1="121.762" y1="31" x2="355.503" y2="62.1649" gradientUnits="userSpaceOnUse">
<stop stop-color="#ABEADA"/>
<stop offset="1" stop-color="#FFEA9E"/>
</linearGradient>
<linearGradient id="paint2_linear_443_3411" x1="184.295" y1="55" x2="278.305" y2="67.5343" gradientUnits="userSpaceOnUse">
<stop stop-color="#ABEADA"/>
<stop offset="1" stop-color="#FFEA9E"/>
</linearGradient>
<linearGradient id="paint3_linear_443_3411" x1="224.295" y1="127" x2="318.305" y2="139.534" gradientUnits="userSpaceOnUse">
<stop stop-color="#ABEADA"/>
<stop offset="1" stop-color="#FFEA9E"/>
</linearGradient>
<linearGradient id="paint4_linear_443_3411" x1="225.295" y1="79" x2="319.305" y2="91.5343" gradientUnits="userSpaceOnUse">
<stop stop-color="#ABEADA"/>
<stop offset="1" stop-color="#FFEA9E"/>
</linearGradient>
<linearGradient id="paint5_linear_443_3411" x1="225.295" y1="79" x2="319.305" y2="91.5343" gradientUnits="userSpaceOnUse">
<stop stop-color="#ABEADA"/>
<stop offset="1" stop-color="#FFEA9E"/>
</linearGradient>
<linearGradient id="paint6_linear_443_3411" x1="143.295" y1="126.504" x2="237.305" y2="139.038" gradientUnits="userSpaceOnUse">
<stop stop-color="#ABEADA"/>
<stop offset="1" stop-color="#FFEA9E"/>
</linearGradient>
<linearGradient id="paint7_linear_443_3411" x1="143.295" y1="79" x2="237.305" y2="91.5343" gradientUnits="userSpaceOnUse">
<stop stop-color="#ABEADA"/>
<stop offset="1" stop-color="#FFEA9E"/>
</linearGradient>
<linearGradient id="paint8_linear_443_3411" x1="143.295" y1="79" x2="237.305" y2="91.5343" gradientUnits="userSpaceOnUse">
<stop stop-color="#ABEADA"/>
<stop offset="1" stop-color="#FFEA9E"/>
</linearGradient>
<linearGradient id="paint9_linear_443_3411" x1="184.295" y1="150" x2="278.305" y2="162.534" gradientUnits="userSpaceOnUse">
<stop stop-color="#ABEADA"/>
<stop offset="1" stop-color="#FFEA9E"/>
</linearGradient>
<linearGradient id="paint10_linear_443_3411" x1="184.295" y1="150" x2="278.305" y2="162.534" gradientUnits="userSpaceOnUse">
<stop stop-color="#ABEADA"/>
<stop offset="1" stop-color="#FFEA9E"/>
</linearGradient>
<linearGradient id="paint11_linear_443_3411" x1="184.295" y1="150" x2="278.305" y2="162.534" gradientUnits="userSpaceOnUse">
<stop stop-color="#ABEADA"/>
<stop offset="1" stop-color="#FFEA9E"/>
</linearGradient>
<clipPath id="clip0_443_3411">
<rect width="453" height="300" rx="16" fill="white"/>
</clipPath>
</defs>
</svg>
