<svg width="453" height="300" viewBox="0 0 453 300" fill="none" xmlns="http://www.w3.org/2000/svg">
<rect width="453" height="300" rx="16" fill="#121212" fill-opacity="0.62"/>
<g clip-path="url(#clip0_644_4346)">
<path opacity="0.3" fill-rule="evenodd" clip-rule="evenodd" d="M294.964 177.727C288.779 181.301 287.085 186.494 289.882 190.955L243.518 217.735C221.178 210.423 192.264 212.265 173.232 223.263C154.207 234.256 151.015 250.956 163.655 263.865L103.757 298.463C102.069 298.225 100.303 298.098 98.4866 298.098C86.3933 298.098 76.5897 303.705 76.5897 310.621C76.5897 317.538 86.3933 323.145 98.4866 323.145C110.58 323.145 120.383 317.538 120.383 310.621C120.383 309.567 120.155 308.542 119.726 307.564L178.287 273.738C201.271 284.278 234.83 283.41 256.075 271.133C277.313 258.861 278.821 239.477 260.599 226.195L307.439 199.14C313.966 199.653 320.819 198.461 325.832 195.564C334.35 190.642 334.35 182.649 325.832 177.727C317.313 172.805 303.482 172.805 294.964 177.727Z" fill="#2A2C2E"/>
<path fill-rule="evenodd" clip-rule="evenodd" d="M185.976 182.209C208.837 168.999 245.958 168.999 268.819 182.209C291.68 195.42 291.68 216.87 268.819 230.08C245.958 243.291 208.837 243.291 185.976 230.08C163.115 216.87 163.115 195.42 185.976 182.209Z" fill="url(#paint0_linear_644_4346)"/>
<g filter="url(#filter0_d_644_4346)">
<path fill-rule="evenodd" clip-rule="evenodd" d="M253.384 196.871C253.431 196.969 253.475 197.067 253.518 197.166L253.521 197.171C255.756 202.309 253.4 207.98 246.45 211.996C235.934 218.073 218.86 218.073 208.344 211.996C201.394 207.98 199.037 202.309 201.274 197.171L201.276 197.166C201.319 197.067 201.364 196.969 201.41 196.871L227.397 156.103L253.384 196.871Z" fill="url(#paint1_linear_644_4346)"/>
</g>
<g filter="url(#filter1_d_644_4346)">
<path fill-rule="evenodd" clip-rule="evenodd" d="M208.346 189.977C218.861 183.9 235.936 183.9 246.452 189.977C256.967 196.053 256.967 205.92 246.452 211.996C235.936 218.073 218.861 218.073 208.346 211.996C197.83 205.92 197.83 196.053 208.346 189.977Z" fill="url(#paint2_linear_644_4346)"/>
</g>
<path fill-rule="evenodd" clip-rule="evenodd" d="M168.83 206.022C168.776 214.727 174.491 223.443 185.976 230.08C208.837 243.291 245.958 243.291 268.819 230.08C280.305 223.443 286.02 214.727 285.965 206.022C285.965 206.061 285.965 206.103 285.965 206.145C285.965 238.497 259.722 264.763 227.398 264.763C195.074 264.763 168.83 238.497 168.83 206.145C168.83 206.103 168.83 206.061 168.83 206.022Z" fill="#2A2C2E"/>
<path fill-rule="evenodd" clip-rule="evenodd" d="M200.648 120.955C215.701 112.257 240.142 112.257 255.194 120.955C270.246 129.653 270.246 143.776 255.194 152.474C240.142 161.172 215.701 161.172 200.648 152.474C185.596 143.776 185.596 129.653 200.648 120.955Z" fill="url(#paint3_linear_644_4346)"/>
<path fill-rule="evenodd" clip-rule="evenodd" d="M266.482 148.128H266.467C266.746 154.037 262.988 159.996 255.192 164.501C240.14 173.199 215.699 173.199 200.647 164.501C192.851 159.996 189.093 154.037 189.372 148.128H189.357V136.714C189.357 142.42 193.12 148.125 200.647 152.474C215.699 161.172 240.14 161.172 255.192 152.474C262.718 148.125 266.482 142.42 266.482 136.714V148.128Z" fill="#2A2C2E"/>
<g filter="url(#filter2_d_644_4346)">
<path fill-rule="evenodd" clip-rule="evenodd" d="M129.447 175.088L326.359 61.3754C327.788 60.5652 329.769 60.6962 331.957 61.9601C336.307 64.4744 339.839 70.5232 339.839 75.4603C339.839 77.8787 338.992 79.5843 337.615 80.4003L140.558 194.195C141.983 193.4 142.866 191.675 142.866 189.207C142.866 184.27 139.334 178.221 134.984 175.707C132.827 174.461 130.871 174.316 129.447 175.088Z" fill="url(#paint4_linear_644_4346)"/>
</g>
<path fill-rule="evenodd" clip-rule="evenodd" d="M134.982 175.707C139.332 178.221 142.864 184.27 142.864 189.207C142.864 194.144 139.332 196.111 134.982 193.597C130.632 191.084 127.1 185.034 127.1 180.097C127.1 175.16 130.632 173.193 134.982 175.707Z" fill="#2A2C2E"/>
<path fill-rule="evenodd" clip-rule="evenodd" d="M323.068 20.8823C336.419 20.8823 347.258 31.7304 347.258 45.0928C347.258 58.4552 336.419 69.3038 323.068 69.3038C309.718 69.3038 298.879 58.4552 298.879 45.0928C298.879 31.7304 309.718 20.8823 323.068 20.8823Z" fill="#2A2C2E"/>
<path fill-rule="evenodd" clip-rule="evenodd" d="M101.518 80.1568L118.935 70.4546C126.04 66.4254 135.892 67.0767 146.774 73.3643C168.411 85.8679 185.978 115.955 185.978 140.511C185.978 152.538 181.764 161.022 174.919 165.08L156.778 175.193C163.868 171.238 168.257 162.655 168.257 150.382C168.257 125.826 150.69 95.7392 129.052 83.2356C118.326 77.0375 108.6 76.3165 101.518 80.1568Z" fill="url(#paint5_linear_644_4346)"/>
<path fill-rule="evenodd" clip-rule="evenodd" d="M129.051 83.2356C150.689 95.7392 168.256 125.826 168.256 150.382C168.256 174.938 150.689 184.722 129.051 172.219C107.413 159.716 89.8457 129.628 89.8457 105.073C89.8457 80.517 107.413 70.732 129.051 83.2356ZM129.051 100.816C142.139 108.379 152.764 126.577 152.764 141.43C152.764 156.283 142.139 162.201 129.051 154.639C115.963 147.076 105.337 128.877 105.337 114.024C105.337 99.1715 115.963 93.2528 129.051 100.816Z" fill="#2A2C2E"/>
<g filter="url(#filter3_d_644_4346)">
<path fill-rule="evenodd" clip-rule="evenodd" d="M323.068 20.8823C336.419 20.8823 347.258 31.7304 347.258 45.0928C347.258 58.4552 336.419 69.3038 323.068 69.3038C309.718 69.3038 298.879 58.4552 298.879 45.0928C298.879 31.7304 309.718 20.8823 323.068 20.8823Z" fill="#2A2C2E"/>
</g>
<g filter="url(#filter4_d_644_4346)">
<path fill-rule="evenodd" clip-rule="evenodd" d="M151.875 148.238C149.064 157.912 139.904 160.91 129.051 154.639C115.963 147.076 105.338 128.877 105.338 114.024C105.338 101.88 112.441 95.7092 122.185 97.9951C121.606 99.9897 121.296 102.266 121.296 104.803C121.296 119.656 131.921 137.855 145.009 145.418C147.397 146.797 149.702 147.728 151.875 148.238Z" fill="url(#paint6_linear_644_4346)"/>
</g>
<g filter="url(#filter5_d_644_4346)">
<path fill-rule="evenodd" clip-rule="evenodd" d="M227.399 40.8916L199.598 56.9566V122.135L227.399 138.2L255.201 122.135V56.9566L227.399 40.8916Z" fill="#2A2C2E"/>
</g>
<path fill-rule="evenodd" clip-rule="evenodd" d="M255.2 56.9565L227.398 73.0216V138.2L255.2 122.135V56.9565Z" fill="url(#paint7_linear_644_4346)"/>
<path fill-rule="evenodd" clip-rule="evenodd" d="M227.399 40.8916L199.598 56.9566L227.399 73.0217L255.201 56.9566L227.399 40.8916Z" fill="url(#paint8_linear_644_4346)"/>
</g>
<defs>
<filter id="filter0_d_644_4346" x="200.457" y="150.303" width="59.6809" height="66.2507" filterUnits="userSpaceOnUse" color-interpolation-filters="sRGB">
<feFlood flood-opacity="0" result="BackgroundImageFix"/>
<feColorMatrix in="SourceAlpha" type="matrix" values="0 0 0 0 0 0 0 0 0 0 0 0 0 0 0 0 0 0 127 0" result="hardAlpha"/>
<feOffset dx="3" dy="-3"/>
<feGaussianBlur stdDeviation="1.4"/>
<feComposite in2="hardAlpha" operator="out"/>
<feColorMatrix type="matrix" values="0 0 0 0 0 0 0 0 0 0 0 0 0 0 0 0 0 0 0.25 0"/>
<feBlend mode="normal" in2="BackgroundImageFix" result="effect1_dropShadow_644_4346"/>
<feBlend mode="normal" in="SourceGraphic" in2="effect1_dropShadow_644_4346" result="shape"/>
</filter>
<filter id="filter1_d_644_4346" x="196.459" y="185.419" width="61.8789" height="39.1343" filterUnits="userSpaceOnUse" color-interpolation-filters="sRGB">
<feFlood flood-opacity="0" result="BackgroundImageFix"/>
<feColorMatrix in="SourceAlpha" type="matrix" values="0 0 0 0 0 0 0 0 0 0 0 0 0 0 0 0 0 0 127 0" result="hardAlpha"/>
<feOffset dy="4"/>
<feGaussianBlur stdDeviation="2"/>
<feComposite in2="hardAlpha" operator="out"/>
<feColorMatrix type="matrix" values="0 0 0 0 0.0823529 0 0 0 0 0.0823529 0 0 0 0 0.0862745 0 0 0 0.2 0"/>
<feBlend mode="normal" in2="BackgroundImageFix" result="effect1_dropShadow_644_4346"/>
<feBlend mode="normal" in="SourceGraphic" in2="effect1_dropShadow_644_4346" result="shape"/>
</filter>
<filter id="filter2_d_644_4346" x="125.447" y="60.8667" width="218.391" height="141.329" filterUnits="userSpaceOnUse" color-interpolation-filters="sRGB">
<feFlood flood-opacity="0" result="BackgroundImageFix"/>
<feColorMatrix in="SourceAlpha" type="matrix" values="0 0 0 0 0 0 0 0 0 0 0 0 0 0 0 0 0 0 127 0" result="hardAlpha"/>
<feOffset dy="4"/>
<feGaussianBlur stdDeviation="2"/>
<feComposite in2="hardAlpha" operator="out"/>
<feColorMatrix type="matrix" values="0 0 0 0 0.0823529 0 0 0 0 0.0823529 0 0 0 0 0.0862745 0 0 0 0.2 0"/>
<feBlend mode="normal" in2="BackgroundImageFix" result="effect1_dropShadow_644_4346"/>
<feBlend mode="normal" in="SourceGraphic" in2="effect1_dropShadow_644_4346" result="shape"/>
</filter>
<filter id="filter3_d_644_4346" x="294.879" y="20.8823" width="56.3789" height="56.4214" filterUnits="userSpaceOnUse" color-interpolation-filters="sRGB">
<feFlood flood-opacity="0" result="BackgroundImageFix"/>
<feColorMatrix in="SourceAlpha" type="matrix" values="0 0 0 0 0 0 0 0 0 0 0 0 0 0 0 0 0 0 127 0" result="hardAlpha"/>
<feOffset dy="4"/>
<feGaussianBlur stdDeviation="2"/>
<feComposite in2="hardAlpha" operator="out"/>
<feColorMatrix type="matrix" values="0 0 0 0 0.0823529 0 0 0 0 0.0823529 0 0 0 0 0.0862745 0 0 0 0.2 0"/>
<feBlend mode="normal" in2="BackgroundImageFix" result="effect1_dropShadow_644_4346"/>
<feBlend mode="normal" in="SourceGraphic" in2="effect1_dropShadow_644_4346" result="shape"/>
</filter>
<filter id="filter4_d_644_4346" x="101.338" y="97.5254" width="54.5371" height="68.4038" filterUnits="userSpaceOnUse" color-interpolation-filters="sRGB">
<feFlood flood-opacity="0" result="BackgroundImageFix"/>
<feColorMatrix in="SourceAlpha" type="matrix" values="0 0 0 0 0 0 0 0 0 0 0 0 0 0 0 0 0 0 127 0" result="hardAlpha"/>
<feOffset dy="4"/>
<feGaussianBlur stdDeviation="2"/>
<feComposite in2="hardAlpha" operator="out"/>
<feColorMatrix type="matrix" values="0 0 0 0 0.0823529 0 0 0 0 0.0823529 0 0 0 0 0.0862745 0 0 0 0.2 0"/>
<feBlend mode="normal" in2="BackgroundImageFix" result="effect1_dropShadow_644_4346"/>
<feBlend mode="normal" in="SourceGraphic" in2="effect1_dropShadow_644_4346" result="shape"/>
</filter>
<filter id="filter5_d_644_4346" x="195.598" y="40.8916" width="63.6035" height="105.309" filterUnits="userSpaceOnUse" color-interpolation-filters="sRGB">
<feFlood flood-opacity="0" result="BackgroundImageFix"/>
<feColorMatrix in="SourceAlpha" type="matrix" values="0 0 0 0 0 0 0 0 0 0 0 0 0 0 0 0 0 0 127 0" result="hardAlpha"/>
<feOffset dy="4"/>
<feGaussianBlur stdDeviation="2"/>
<feComposite in2="hardAlpha" operator="out"/>
<feColorMatrix type="matrix" values="0 0 0 0 0.0823529 0 0 0 0 0.0823529 0 0 0 0 0.0862745 0 0 0 0.2 0"/>
<feBlend mode="normal" in2="BackgroundImageFix" result="effect1_dropShadow_644_4346"/>
<feBlend mode="normal" in="SourceGraphic" in2="effect1_dropShadow_644_4346" result="shape"/>
</filter>
<linearGradient id="paint0_linear_644_4346" x1="166.372" y1="172.302" x2="294.87" y2="207.152" gradientUnits="userSpaceOnUse">
<stop stop-color="#ABEADA"/>
<stop offset="1" stop-color="#FFEA9E"/>
</linearGradient>
<linearGradient id="paint1_linear_644_4346" x1="219.5" y1="176" x2="260.032" y2="182.849" gradientUnits="userSpaceOnUse">
<stop stop-color="#FFEA9E"/>
<stop offset="1" stop-color="#ABEADA"/>
</linearGradient>
<linearGradient id="paint2_linear_644_4346" x1="199.328" y1="185.419" x2="258.435" y2="201.45" gradientUnits="userSpaceOnUse">
<stop stop-color="#ABEADA"/>
<stop offset="1" stop-color="#FFEA9E"/>
</linearGradient>
<linearGradient id="paint3_linear_644_4346" x1="187.741" y1="114.431" x2="272.347" y2="137.378" gradientUnits="userSpaceOnUse">
<stop stop-color="#ABEADA"/>
<stop offset="1" stop-color="#FFEA9E"/>
</linearGradient>
<linearGradient id="paint4_linear_644_4346" x1="125.033" y1="60.8667" x2="358.531" y2="118.612" gradientUnits="userSpaceOnUse">
<stop stop-color="#ABEADA"/>
<stop offset="1" stop-color="#FFEA9E"/>
</linearGradient>
<linearGradient id="paint5_linear_644_4346" x1="99.7454" y1="67.9248" x2="197.723" y2="80.0153" gradientUnits="userSpaceOnUse">
<stop stop-color="#ABEADA"/>
<stop offset="1" stop-color="#FFEA9E"/>
</linearGradient>
<linearGradient id="paint6_linear_644_4346" x1="104.361" y1="97.5254" x2="158.381" y2="104.048" gradientUnits="userSpaceOnUse">
<stop stop-color="#ABEADA"/>
<stop offset="1" stop-color="#FFEA9E"/>
</linearGradient>
<linearGradient id="paint7_linear_644_4346" x1="226.815" y1="56.9565" x2="259.464" y2="58.7075" gradientUnits="userSpaceOnUse">
<stop stop-color="#ABEADA"/>
<stop offset="1" stop-color="#FFEA9E"/>
</linearGradient>
<linearGradient id="paint8_linear_644_4346" x1="198.431" y1="40.8916" x2="259.428" y2="57.4351" gradientUnits="userSpaceOnUse">
<stop stop-color="#ABEADA"/>
<stop offset="1" stop-color="#FFEA9E"/>
</linearGradient>
<clipPath id="clip0_644_4346">
<rect x="34" y="6" width="385" height="289" rx="5.6625" fill="white"/>
</clipPath>
</defs>
</svg>
