<svg width="453" height="300" viewBox="0 0 453 300" fill="none" xmlns="http://www.w3.org/2000/svg">
<g clip-path="url(#clip0_645_4973)">
<rect width="453" height="300" rx="16" fill="#121212" fill-opacity="0.62"/>
<path opacity="0.3" fill-rule="evenodd" clip-rule="evenodd" d="M90.8965 215.583C90.8965 232.395 102.464 248.519 123.055 260.407C165.903 285.145 235.479 285.145 278.327 260.407C298.918 248.519 310.485 232.395 310.485 215.583H255.589C255.589 223.989 249.804 232.051 239.509 237.995C218.085 250.364 183.297 250.364 161.873 237.995C151.578 232.051 145.794 223.989 145.794 215.583H90.8965Z" fill="#2A2C2E"/>
<path fill-rule="evenodd" clip-rule="evenodd" d="M122.756 109.28V195.682L174.629 206.056C177.348 201.524 181.812 197.408 187.685 194.017C200.533 186.6 218.904 183.333 236.754 185.291L247.005 154.154V67.7527C211.306 63.8349 174.562 70.3691 148.867 85.204C137.121 91.986 128.192 100.218 122.756 109.28Z" fill="url(#paint0_linear_645_4973)"/>
<path fill-rule="evenodd" clip-rule="evenodd" d="M247.005 67.7527C211.306 63.8349 174.562 70.3691 148.867 85.204C137.121 91.986 128.192 100.218 122.756 109.28L174.629 119.654C177.348 115.123 181.812 111.007 187.685 107.616C200.533 100.199 218.904 96.9312 236.754 98.8903L247.005 67.7527Z" fill="url(#paint1_linear_645_4973)"/>
<path fill-rule="evenodd" clip-rule="evenodd" d="M122.756 195.682V109.28L174.629 119.654V206.055L122.756 195.682Z" fill="#2A2C2E"/>
<path fill-rule="evenodd" clip-rule="evenodd" d="M247.005 154.155V67.7529L236.754 98.8906V185.292L247.005 154.155Z" fill="url(#paint2_linear_645_4973)"/>
<path fill-rule="evenodd" clip-rule="evenodd" d="M331.79 144.489C326.595 134.349 317.09 125.121 304.14 117.645C291.19 110.168 275.206 104.68 257.644 101.681L226.504 162.468L331.79 144.489Z" fill="url(#paint3_linear_645_4973)"/>
<path fill-rule="evenodd" clip-rule="evenodd" d="M331.789 198.917V144.489L226.488 162.476L226.503 216.896L331.789 198.917Z" fill="#2A2C2E"/>
<g filter="url(#filter0_d_645_4973)">
<path fill-rule="evenodd" clip-rule="evenodd" d="M116.709 183.059C116.709 199.871 128.277 215.995 148.867 227.882C191.716 252.621 261.291 252.621 304.14 227.882C324.73 215.995 336.298 199.871 336.298 183.059H281.401C281.401 191.465 275.617 199.527 265.322 205.471C243.897 217.84 209.109 217.84 187.685 205.471C177.39 199.527 171.606 191.465 171.606 183.059H116.709Z" fill="url(#paint4_linear_645_4973)"/>
</g>
<path opacity="0.3" fill-rule="evenodd" clip-rule="evenodd" d="M139.477 189.779L122.393 199.642L139.477 209.506L146.188 209.135C146.188 209.135 149.855 202.936 156.561 199.642L139.477 189.779Z" fill="#2A2C2E"/>
<path opacity="0.3" fill-rule="evenodd" clip-rule="evenodd" d="M162.948 209.496L145.863 219.359L162.948 229.223L169.659 228.852C169.659 228.852 173.326 222.653 180.031 219.359L162.948 209.496Z" fill="#2A2C2E"/>
<path opacity="0.3" fill-rule="evenodd" clip-rule="evenodd" d="M195.571 218.904L178.486 228.768L195.571 238.631L202.282 238.261C202.282 238.261 205.949 232.062 212.654 228.768L195.571 218.904Z" fill="#2A2C2E"/>
<path fill-rule="evenodd" clip-rule="evenodd" d="M336.278 215.508H336.236C337.031 232.314 326.332 249.267 304.137 262.081C261.283 286.823 191.698 286.823 148.844 262.081C126.65 249.267 115.95 232.314 116.744 215.508H116.703V183.04C116.703 199.269 127.417 215.498 148.844 227.869C191.698 252.611 261.283 252.611 304.137 227.869C325.564 215.498 336.278 199.269 336.278 183.04V215.508Z" fill="#2A2C2E"/>
<path fill-rule="evenodd" clip-rule="evenodd" d="M146.19 168.741L129.105 178.604V199.272L146.19 209.135L163.273 199.272V178.604L146.19 168.741Z" fill="#2A2C2E"/>
<path fill-rule="evenodd" clip-rule="evenodd" d="M163.273 178.604L146.189 188.467V209.135L163.273 199.272V178.604Z" fill="url(#paint5_linear_645_4973)"/>
<g filter="url(#filter1_d_645_4973)">
<path fill-rule="evenodd" clip-rule="evenodd" d="M146.19 168.741L129.105 178.604L146.19 188.468L163.273 178.604L146.19 168.741Z" fill="url(#paint6_linear_645_4973)"/>
</g>
<path fill-rule="evenodd" clip-rule="evenodd" d="M169.748 169.111L152.664 178.975V219.092L169.748 228.956L186.832 219.092V178.975L169.748 169.111Z" fill="#2A2C2E"/>
<path fill-rule="evenodd" clip-rule="evenodd" d="M186.834 178.975L169.75 188.839V228.956L186.834 219.092V178.975Z" fill="url(#paint7_linear_645_4973)"/>
<g filter="url(#filter2_d_645_4973)">
<path fill-rule="evenodd" clip-rule="evenodd" d="M169.748 169.111L152.664 178.975L169.748 188.838L186.832 178.975L169.748 169.111Z" fill="url(#paint8_linear_645_4973)"/>
</g>
<path fill-rule="evenodd" clip-rule="evenodd" d="M202.156 150.401L185.072 160.265V228.436L202.156 238.3L219.24 228.436V160.265L202.156 150.401Z" fill="#2A2C2E"/>
<path fill-rule="evenodd" clip-rule="evenodd" d="M219.241 160.265L202.156 170.128V238.299L219.241 228.436V160.265Z" fill="url(#paint9_linear_645_4973)"/>
<g filter="url(#filter3_d_645_4973)">
<path fill-rule="evenodd" clip-rule="evenodd" d="M202.156 150.401L185.072 160.265L202.156 170.128L219.24 160.265L202.156 150.401Z" fill="url(#paint10_linear_645_4973)"/>
</g>
<path fill-rule="evenodd" clip-rule="evenodd" d="M205.17 76.2836C211.106 72.8573 220.743 72.8573 226.678 76.2836C232.614 79.7105 232.614 85.2746 226.678 88.7015C220.743 92.1279 211.106 92.1279 205.17 88.7015C199.235 85.2746 199.235 79.7105 205.17 76.2836Z" fill="#2A2C2E"/>
<path fill-rule="evenodd" clip-rule="evenodd" d="M215.926 19.1133C227.797 19.1133 237.434 28.7506 237.434 40.6208C237.434 52.4914 227.797 62.1288 215.926 62.1288C204.055 62.1288 194.418 52.4914 194.418 40.6208C194.418 28.7506 204.055 19.1133 215.926 19.1133Z" fill="#2A2C2E"/>
</g>
<defs>
<filter id="filter0_d_645_4973" x="112.709" y="183.059" width="227.59" height="71.3774" filterUnits="userSpaceOnUse" color-interpolation-filters="sRGB">
<feFlood flood-opacity="0" result="BackgroundImageFix"/>
<feColorMatrix in="SourceAlpha" type="matrix" values="0 0 0 0 0 0 0 0 0 0 0 0 0 0 0 0 0 0 127 0" result="hardAlpha"/>
<feOffset dy="4"/>
<feGaussianBlur stdDeviation="2"/>
<feComposite in2="hardAlpha" operator="out"/>
<feColorMatrix type="matrix" values="0 0 0 0 0.0823529 0 0 0 0 0.0823529 0 0 0 0 0.0862745 0 0 0 0.2 0"/>
<feBlend mode="normal" in2="BackgroundImageFix" result="effect1_dropShadow_645_4973"/>
<feBlend mode="normal" in="SourceGraphic" in2="effect1_dropShadow_645_4973" result="shape"/>
</filter>
<filter id="filter1_d_645_4973" x="125.105" y="168.741" width="42.168" height="27.7271" filterUnits="userSpaceOnUse" color-interpolation-filters="sRGB">
<feFlood flood-opacity="0" result="BackgroundImageFix"/>
<feColorMatrix in="SourceAlpha" type="matrix" values="0 0 0 0 0 0 0 0 0 0 0 0 0 0 0 0 0 0 127 0" result="hardAlpha"/>
<feOffset dy="4"/>
<feGaussianBlur stdDeviation="2"/>
<feComposite in2="hardAlpha" operator="out"/>
<feColorMatrix type="matrix" values="0 0 0 0 0.0823529 0 0 0 0 0.0823529 0 0 0 0 0.0862745 0 0 0 0.1 0"/>
<feBlend mode="normal" in2="BackgroundImageFix" result="effect1_dropShadow_645_4973"/>
<feBlend mode="normal" in="SourceGraphic" in2="effect1_dropShadow_645_4973" result="shape"/>
</filter>
<filter id="filter2_d_645_4973" x="148.664" y="169.111" width="42.168" height="27.7271" filterUnits="userSpaceOnUse" color-interpolation-filters="sRGB">
<feFlood flood-opacity="0" result="BackgroundImageFix"/>
<feColorMatrix in="SourceAlpha" type="matrix" values="0 0 0 0 0 0 0 0 0 0 0 0 0 0 0 0 0 0 127 0" result="hardAlpha"/>
<feOffset dy="4"/>
<feGaussianBlur stdDeviation="2"/>
<feComposite in2="hardAlpha" operator="out"/>
<feColorMatrix type="matrix" values="0 0 0 0 0.0823529 0 0 0 0 0.0823529 0 0 0 0 0.0862745 0 0 0 0.1 0"/>
<feBlend mode="normal" in2="BackgroundImageFix" result="effect1_dropShadow_645_4973"/>
<feBlend mode="normal" in="SourceGraphic" in2="effect1_dropShadow_645_4973" result="shape"/>
</filter>
<filter id="filter3_d_645_4973" x="181.072" y="150.401" width="42.168" height="27.7271" filterUnits="userSpaceOnUse" color-interpolation-filters="sRGB">
<feFlood flood-opacity="0" result="BackgroundImageFix"/>
<feColorMatrix in="SourceAlpha" type="matrix" values="0 0 0 0 0 0 0 0 0 0 0 0 0 0 0 0 0 0 127 0" result="hardAlpha"/>
<feOffset dy="4"/>
<feGaussianBlur stdDeviation="2"/>
<feComposite in2="hardAlpha" operator="out"/>
<feColorMatrix type="matrix" values="0 0 0 0 0.0823529 0 0 0 0 0.0823529 0 0 0 0 0.0862745 0 0 0 0.1 0"/>
<feBlend mode="normal" in2="BackgroundImageFix" result="effect1_dropShadow_645_4973"/>
<feBlend mode="normal" in="SourceGraphic" in2="effect1_dropShadow_645_4973" result="shape"/>
</filter>
<linearGradient id="paint0_linear_645_4973" x1="85.5" y1="126" x2="136.204" y2="67.3296" gradientUnits="userSpaceOnUse">
<stop stop-color="#ABEADA"/>
<stop offset="1" stop-color="#FFEA9E"/>
</linearGradient>
<linearGradient id="paint1_linear_645_4973" x1="120.904" y1="65.7415" x2="181.873" y2="114.218" gradientUnits="userSpaceOnUse">
<stop stop-color="#FFEA9E"/>
<stop offset="1" stop-color="#ABEADA"/>
</linearGradient>
<linearGradient id="paint2_linear_645_4973" x1="242" y1="148" x2="232.912" y2="147.374" gradientUnits="userSpaceOnUse">
<stop stop-color="#FFEA9E"/>
<stop offset="1" stop-color="#ABEADA"/>
</linearGradient>
<linearGradient id="paint3_linear_645_4973" x1="53.5" y1="207.5" x2="304.032" y2="98.6061" gradientUnits="userSpaceOnUse">
<stop stop-color="#FFEA9E"/>
<stop offset="1" stop-color="#ABEADA"/>
</linearGradient>
<linearGradient id="paint4_linear_645_4973" x1="112.102" y1="183.059" x2="311.823" y2="291.51" gradientUnits="userSpaceOnUse">
<stop stop-color="#ABEADA"/>
<stop offset="1" stop-color="#FFEA9E"/>
</linearGradient>
<linearGradient id="paint5_linear_645_4973" x1="145.831" y1="178.604" x2="165.797" y2="180.355" gradientUnits="userSpaceOnUse">
<stop stop-color="#ABEADA"/>
<stop offset="1" stop-color="#FFEA9E"/>
</linearGradient>
<linearGradient id="paint6_linear_645_4973" x1="128.389" y1="168.741" x2="165.867" y2="178.914" gradientUnits="userSpaceOnUse">
<stop stop-color="#ABEADA"/>
<stop offset="1" stop-color="#FFEA9E"/>
</linearGradient>
<linearGradient id="paint7_linear_645_4973" x1="169.392" y1="178.975" x2="189.454" y2="180.05" gradientUnits="userSpaceOnUse">
<stop stop-color="#ABEADA"/>
<stop offset="1" stop-color="#FFEA9E"/>
</linearGradient>
<linearGradient id="paint8_linear_645_4973" x1="151.947" y1="169.111" x2="189.425" y2="179.285" gradientUnits="userSpaceOnUse">
<stop stop-color="#ABEADA"/>
<stop offset="1" stop-color="#FFEA9E"/>
</linearGradient>
<linearGradient id="paint9_linear_645_4973" x1="201.798" y1="160.265" x2="221.894" y2="160.954" gradientUnits="userSpaceOnUse">
<stop stop-color="#ABEADA"/>
<stop offset="1" stop-color="#FFEA9E"/>
</linearGradient>
<linearGradient id="paint10_linear_645_4973" x1="184.355" y1="150.401" x2="221.834" y2="160.575" gradientUnits="userSpaceOnUse">
<stop stop-color="#ABEADA"/>
<stop offset="1" stop-color="#FFEA9E"/>
</linearGradient>
<clipPath id="clip0_645_4973">
<rect width="453" height="300" rx="16" fill="white"/>
</clipPath>
</defs>
</svg>
