<svg width="140" height="140" viewBox="0 0 140 140" fill="none" xmlns="http://www.w3.org/2000/svg">
<rect width="140" height="140" rx="22" fill="#202224"/>
<g filter="url(#filter0_f_256_3028)">
<rect x="56" y="22" width="28" height="28" rx="6" fill="url(#paint0_linear_256_3028)"/>
<rect x="20" y="56" width="28" height="28" rx="6" fill="url(#paint1_linear_256_3028)"/>
<rect x="92" y="90" width="28" height="28" rx="6" fill="url(#paint2_linear_256_3028)"/>
</g>
<rect x="20.5" y="22.5" width="27" height="27" rx="5.5" stroke="white"/>
<rect x="56" y="22" width="28" height="28" rx="6" fill="url(#paint3_linear_256_3028)"/>
<rect x="92" y="22" width="28" height="28" rx="14" fill="white"/>
<rect x="20" y="56" width="28" height="28" rx="14" fill="url(#paint4_linear_256_3028)"/>
<rect x="56" y="56" width="28" height="28" rx="6" fill="white"/>
<rect x="92.5" y="56.5" width="27" height="27" rx="5.5" stroke="white"/>
<rect x="20" y="90" width="28" height="28" rx="6" fill="white"/>
<rect x="56.5" y="90.5" width="27" height="27" rx="5.5" stroke="white"/>
<rect x="92" y="90" width="28" height="28" rx="14" fill="url(#paint5_linear_256_3028)"/>
<defs>
<filter id="filter0_f_256_3028" x="11" y="13" width="118" height="114" filterUnits="userSpaceOnUse" color-interpolation-filters="sRGB">
<feFlood flood-opacity="0" result="BackgroundImageFix"/>
<feBlend mode="normal" in="SourceGraphic" in2="BackgroundImageFix" result="shape"/>
<feGaussianBlur stdDeviation="4.5" result="effect1_foregroundBlur_256_3028"/>
</filter>
<linearGradient id="paint0_linear_256_3028" x1="55.4125" y1="22" x2="87.5977" y2="27.0441" gradientUnits="userSpaceOnUse">
<stop stop-color="#ABEADA"/>
<stop offset="1" stop-color="#FFEA9E"/>
</linearGradient>
<linearGradient id="paint1_linear_256_3028" x1="19.4125" y1="56" x2="51.5977" y2="61.0441" gradientUnits="userSpaceOnUse">
<stop stop-color="#ABEADA"/>
<stop offset="1" stop-color="#FFEA9E"/>
</linearGradient>
<linearGradient id="paint2_linear_256_3028" x1="91.4125" y1="90" x2="123.598" y2="95.0441" gradientUnits="userSpaceOnUse">
<stop stop-color="#ABEADA"/>
<stop offset="1" stop-color="#FFEA9E"/>
</linearGradient>
<linearGradient id="paint3_linear_256_3028" x1="55.4125" y1="22" x2="87.5977" y2="27.0441" gradientUnits="userSpaceOnUse">
<stop stop-color="#ABEADA"/>
<stop offset="1" stop-color="#FFEA9E"/>
</linearGradient>
<linearGradient id="paint4_linear_256_3028" x1="19.4125" y1="56" x2="51.5977" y2="61.0441" gradientUnits="userSpaceOnUse">
<stop stop-color="#ABEADA"/>
<stop offset="1" stop-color="#FFEA9E"/>
</linearGradient>
<linearGradient id="paint5_linear_256_3028" x1="91.4125" y1="90" x2="123.598" y2="95.0441" gradientUnits="userSpaceOnUse">
<stop stop-color="#ABEADA"/>
<stop offset="1" stop-color="#FFEA9E"/>
</linearGradient>
</defs>
</svg>
