<svg width="140" height="140" viewBox="0 0 140 140" fill="none" xmlns="http://www.w3.org/2000/svg">
<rect width="140" height="140" rx="22" fill="#202224"/>
<g filter="url(#filter0_f_256_3038)">
<path d="M81.0217 30.8439L81.3936 31.197L81.8974 31.101L96.8272 28.2561L100.441 43.0185L100.563 43.5167L101.039 43.7083L115.137 49.3867L110.196 63.7596L110.03 64.2446L110.326 64.663L119.116 77.0618L107.189 86.482L106.787 86.7999L106.81 87.3122L107.501 102.495L92.3746 103.971L91.8641 104.021L91.6068 104.465L83.9799 117.611L70.4564 110.675L70 110.441L69.5436 110.675L56.0201 117.611L48.3932 104.465L48.1359 104.021L47.6254 103.971L32.4989 102.495L33.1901 87.3122L33.2134 86.7999L32.811 86.482L20.884 77.0618L29.6739 64.663L29.9705 64.2446L29.8038 63.7596L24.8631 49.3867L38.9609 43.7083L39.4366 43.5167L39.5586 43.0185L43.1728 28.2561L58.1026 31.101L58.6064 31.197L58.9783 30.8439L70 20.379L81.0217 30.8439Z" stroke="url(#paint0_linear_256_3038)" stroke-width="2"/>
</g>
<path d="M81.0217 30.8439L81.3936 31.197L81.8974 31.101L96.8272 28.2561L100.441 43.0185L100.563 43.5167L101.039 43.7083L115.137 49.3867L110.196 63.7596L110.03 64.2446L110.326 64.663L119.116 77.0618L107.189 86.482L106.787 86.7999L106.81 87.3122L107.501 102.495L92.3746 103.971L91.8641 104.021L91.6068 104.465L83.9799 117.611L70.4564 110.675L70 110.441L69.5436 110.675L56.0201 117.611L48.3932 104.465L48.1359 104.021L47.6254 103.971L32.4989 102.495L33.1901 87.3122L33.2134 86.7999L32.811 86.482L20.884 77.0618L29.6739 64.663L29.9705 64.2446L29.8038 63.7596L24.8631 49.3867L38.9609 43.7083L39.4366 43.5167L39.5586 43.0185L43.1728 28.2561L58.1026 31.101L58.6064 31.197L58.9783 30.8439L70 20.379L81.0217 30.8439Z" stroke="url(#paint1_linear_256_3038)" stroke-width="2"/>
<path d="M77.5775 42.5737L77.9494 42.9268L78.4532 42.8308L88.7175 40.8749L91.2024 51.0242L91.3243 51.5224L91.8001 51.714L101.492 55.6179L98.0957 65.4994L97.9289 65.9844L98.2256 66.4028L104.269 74.9271L96.0688 81.4035L95.6663 81.7214L95.6896 82.2338L96.1648 92.672L85.7653 93.6871L85.2548 93.7369L84.9974 94.1806L79.7539 103.219L70.4564 98.4502L70 98.2161L69.5436 98.4502L60.2461 103.219L55.0026 94.1806L54.7452 93.7369L54.2348 93.6871L43.8352 92.672L44.3104 82.2338L44.3337 81.7214L43.9312 81.4035L35.7313 74.9271L41.7744 66.4028L42.071 65.9844L41.9043 65.4994L38.5076 55.6179L48.1999 51.714L48.6757 51.5224L48.7976 51.0242L51.2825 40.8749L61.5468 42.8308L62.0506 42.9268L62.4225 42.5737L70 35.379L77.5775 42.5737Z" stroke="white" stroke-width="2"/>
<path d="M75.2814 50.3935L75.6533 50.7467L76.1571 50.6507L83.3111 49.2875L85.043 56.3613L85.165 56.8595L85.6407 57.0511L92.3961 59.772L90.0286 66.6593L89.8619 67.1443L90.1585 67.5627L94.3704 73.5039L88.6553 78.0179L88.2528 78.3358L88.2761 78.8481L88.6073 86.1234L81.359 86.8309L80.8486 86.8807L80.5912 87.3243L76.9365 93.6237L70.4564 90.3002L70 90.0662L69.5436 90.3002L63.0635 93.6237L59.4088 87.3243L59.1514 86.8807L58.641 86.8309L51.3927 86.1234L51.7239 78.8481L51.7472 78.3358L51.3447 78.0179L45.6296 73.5039L49.8415 67.5627L50.1381 67.1443L49.9714 66.6593L47.6039 59.772L54.3593 57.0511L54.835 56.8595L54.957 56.3613L56.6889 49.2875L63.8429 50.6507L64.3467 50.7467L64.7186 50.3935L70 45.379L75.2814 50.3935Z" stroke="url(#paint2_linear_256_3038)" stroke-width="2"/>
<path d="M69.9756 55.0137C78.2523 55.0137 85.0165 61.723 85.0839 69.9994C85.1513 78.2758 78.4963 84.9852 70.2196 84.9852C61.9429 84.9852 55.1787 78.2758 55.1114 69.9994C55.044 61.723 61.6989 55.0137 69.9756 55.0137Z" fill="white" stroke="#202224" stroke-width="5.97252"/>
<defs>
<filter id="filter0_f_256_3038" x="13.7195" y="13.2" width="112.561" height="111.534" filterUnits="userSpaceOnUse" color-interpolation-filters="sRGB">
<feFlood flood-opacity="0" result="BackgroundImageFix"/>
<feBlend mode="normal" in="SourceGraphic" in2="BackgroundImageFix" result="shape"/>
<feGaussianBlur stdDeviation="2.9" result="effect1_foregroundBlur_256_3038"/>
</filter>
<linearGradient id="paint0_linear_256_3038" x1="16.8598" y1="19" x2="134.106" y2="37.3751" gradientUnits="userSpaceOnUse">
<stop stop-color="#ABEADA"/>
<stop offset="1" stop-color="#FFEA9E"/>
</linearGradient>
<linearGradient id="paint1_linear_256_3038" x1="16.8598" y1="19" x2="134.106" y2="37.3751" gradientUnits="userSpaceOnUse">
<stop stop-color="#ABEADA"/>
<stop offset="1" stop-color="#FFEA9E"/>
</linearGradient>
<linearGradient id="paint2_linear_256_3038" x1="42.9089" y1="44" x2="102.681" y2="53.3677" gradientUnits="userSpaceOnUse">
<stop stop-color="#FFEA9E"/>
<stop offset="1" stop-color="#ABEADA"/>
</linearGradient>
</defs>
</svg>
