<svg width="140" height="140" viewBox="0 0 140 140" fill="none" xmlns="http://www.w3.org/2000/svg">
<rect width="140" height="140" rx="22" fill="#202224"/>
<rect x="16" y="69" width="108" height="2" fill="url(#paint0_linear_256_3023)"/>
<rect x="22.7344" y="96.1338" width="73.6968" height="2" transform="rotate(-30 22.7344 96.1338)" fill="url(#paint1_linear_256_3023)"/>
<rect x="32.5234" y="31.1089" width="79.2015" height="2" transform="rotate(45 32.5234 31.1089)" fill="url(#paint2_linear_256_3023)"/>
<rect x="19.5986" y="50.5908" width="77.76" height="2" transform="rotate(20 19.5986 50.5908)" fill="url(#paint3_linear_256_3023)"/>
<rect x="23.7344" y="42.1338" width="92.3553" height="2" transform="rotate(30 23.7344 42.1338)" fill="url(#paint4_linear_256_3023)"/>
<rect x="16.9941" y="59.6377" width="108" height="2" transform="rotate(10 16.9941 59.6377)" fill="url(#paint5_linear_256_3023)"/>
<rect x="31.1094" y="107.477" width="110.224" height="2" transform="rotate(-45 31.1094 107.477)" fill="url(#paint6_linear_256_3023)"/>
<rect x="18.915" y="87.5293" width="108" height="2" transform="rotate(-20 18.915 87.5293)" fill="url(#paint7_linear_256_3023)"/>
<rect x="16.6465" y="78.3921" width="77.9651" height="2" transform="rotate(-10 16.6465 78.3921)" fill="url(#paint8_linear_256_3023)"/>
<path d="M69.9874 62.4999C73.5773 62.4999 76.5111 65.4099 76.5403 68.9997C76.5696 72.5894 73.6831 75.4995 70.0933 75.4995C66.5034 75.4995 63.5696 72.5894 63.5403 68.9997C63.5111 65.4099 66.3976 62.4999 69.9874 62.4999Z" fill="white" stroke="#202224" stroke-width="3"/>
<g filter="url(#filter0_f_256_3023)">
<rect x="32.5234" y="31.1089" width="79.2015" height="2" transform="rotate(45 32.5234 31.1089)" fill="url(#paint9_linear_256_3023)"/>
<rect x="16.9941" y="59.6377" width="108" height="2" transform="rotate(10 16.9941 59.6377)" fill="url(#paint10_linear_256_3023)"/>
<rect x="31.1094" y="107.477" width="110.224" height="2" transform="rotate(-45 31.1094 107.477)" fill="url(#paint11_linear_256_3023)"/>
<rect x="18.915" y="87.5293" width="108" height="2" transform="rotate(-20 18.915 87.5293)" fill="url(#paint12_linear_256_3023)"/>
</g>
<ellipse cx="5" cy="5" rx="5" ry="5" transform="matrix(1 0 -0.00814113 -0.999967 65.0811 73.9995)" fill="white"/>
<defs>
<filter id="filter0_f_256_3023" x="7.64648" y="20.5361" width="124.707" height="97.3545" filterUnits="userSpaceOnUse" color-interpolation-filters="sRGB">
<feFlood flood-opacity="0" result="BackgroundImageFix"/>
<feBlend mode="normal" in="SourceGraphic" in2="BackgroundImageFix" result="shape"/>
<feGaussianBlur stdDeviation="4.5" result="effect1_foregroundBlur_256_3023"/>
</filter>
<linearGradient id="paint0_linear_256_3023" x1="13.7339" y1="69" x2="15.4853" y2="83.8222" gradientUnits="userSpaceOnUse">
<stop stop-color="#FFEA9E"/>
<stop offset="1" stop-color="#ABEADA"/>
</linearGradient>
<linearGradient id="paint1_linear_256_3023" x1="21.1881" y1="96.1338" x2="23.7148" y2="110.725" gradientUnits="userSpaceOnUse">
<stop stop-color="#FFEA9E"/>
<stop offset="1" stop-color="#ABEADA"/>
</linearGradient>
<linearGradient id="paint2_linear_256_3023" x1="30.8616" y1="31.1089" x2="33.2219" y2="45.7578" gradientUnits="userSpaceOnUse">
<stop stop-color="#ABEADA"/>
<stop offset="1" stop-color="#FFEA9E"/>
</linearGradient>
<linearGradient id="paint3_linear_256_3023" x1="17.9671" y1="50.5908" x2="20.3689" y2="65.2258" gradientUnits="userSpaceOnUse">
<stop stop-color="#FFEA9E"/>
<stop offset="1" stop-color="#ABEADA"/>
</linearGradient>
<linearGradient id="paint4_linear_256_3023" x1="21.7966" y1="42.1338" x2="23.8343" y2="56.8814" gradientUnits="userSpaceOnUse">
<stop stop-color="#ABEADA"/>
<stop offset="1" stop-color="#FFEA9E"/>
</linearGradient>
<linearGradient id="paint5_linear_256_3023" x1="14.7281" y1="59.6377" x2="16.4795" y2="74.4599" gradientUnits="userSpaceOnUse">
<stop stop-color="#ABEADA"/>
<stop offset="1" stop-color="#FFEA9E"/>
</linearGradient>
<linearGradient id="paint6_linear_256_3023" x1="28.7966" y1="107.477" x2="30.5136" y2="122.307" gradientUnits="userSpaceOnUse">
<stop stop-color="#ABEADA"/>
<stop offset="1" stop-color="#FFEA9E"/>
</linearGradient>
<linearGradient id="paint7_linear_256_3023" x1="16.649" y1="87.5293" x2="18.4004" y2="102.352" gradientUnits="userSpaceOnUse">
<stop stop-color="#ABEADA"/>
<stop offset="1" stop-color="#FFEA9E"/>
</linearGradient>
<linearGradient id="paint8_linear_256_3023" x1="15.0106" y1="78.3921" x2="17.4064" y2="93.0291" gradientUnits="userSpaceOnUse">
<stop stop-color="#ABEADA"/>
<stop offset="1" stop-color="#FFEA9E"/>
</linearGradient>
<linearGradient id="paint9_linear_256_3023" x1="30.8616" y1="31.1089" x2="33.2219" y2="45.7578" gradientUnits="userSpaceOnUse">
<stop stop-color="#ABEADA"/>
<stop offset="1" stop-color="#FFEA9E"/>
</linearGradient>
<linearGradient id="paint10_linear_256_3023" x1="14.7281" y1="59.6377" x2="16.4795" y2="74.4599" gradientUnits="userSpaceOnUse">
<stop stop-color="#ABEADA"/>
<stop offset="1" stop-color="#FFEA9E"/>
</linearGradient>
<linearGradient id="paint11_linear_256_3023" x1="28.7966" y1="107.477" x2="30.5136" y2="122.307" gradientUnits="userSpaceOnUse">
<stop stop-color="#ABEADA"/>
<stop offset="1" stop-color="#FFEA9E"/>
</linearGradient>
<linearGradient id="paint12_linear_256_3023" x1="16.649" y1="87.5293" x2="18.4004" y2="102.352" gradientUnits="userSpaceOnUse">
<stop stop-color="#ABEADA"/>
<stop offset="1" stop-color="#FFEA9E"/>
</linearGradient>
</defs>
</svg>
