<svg width="141" height="140" viewBox="0 0 141 140" fill="none" xmlns="http://www.w3.org/2000/svg">
<rect x="0.5" width="140" height="140" rx="22.6989" fill="#202224"/>
<rect width="77" height="1.3" rx="0.65" transform="matrix(0.939693 0.34202 0.34202 -0.939693 18.1831 39.1282)" fill="url(#paint0_linear_214_3102)"/>
<rect width="67" height="1.3" rx="0.65" transform="matrix(0.766044 0.642788 0.642788 -0.766044 41.5 17.5322)" fill="white"/>
<rect width="52" height="1.3" rx="0.65" transform="matrix(0.5 0.866025 0.866025 -0.5 72.5 10)" fill="url(#paint1_linear_214_3102)"/>
<rect width="32" height="1.3" rx="0.65" transform="matrix(0.173648 0.984808 0.984808 -0.173648 102.5 19.3474)" fill="white"/>
<rect x="19.126" y="99.8931" width="77" height="1.3" rx="0.65" transform="rotate(-20 19.126 99.8931)" fill="url(#paint2_linear_214_3102)"/>
<rect x="43.5" y="123.424" width="66" height="1.3" rx="0.65" transform="rotate(-40 43.5 123.424)" fill="white"/>
<rect width="80" height="1.3" rx="0.65" transform="matrix(1 0 0 -1 10.5 71)" fill="white"/>
<rect x="72.5" y="130.033" width="52" height="1.3" rx="0.65" transform="rotate(-60 72.5 130.033)" fill="url(#paint3_linear_214_3102)"/>
<rect x="103.439" y="119.875" width="31.3518" height="1.3" rx="0.65" transform="rotate(-80 103.439 119.875)" fill="white"/>
<circle cx="60" cy="60" r="60" transform="matrix(-1 0 0 1 130.5 10)" stroke="url(#paint4_linear_214_3102)" stroke-width="2"/>
<circle cx="50" cy="50" r="50" transform="matrix(1 0 0 -1 30.5 120)" stroke="white" stroke-width="2"/>
<circle cx="35" cy="35" r="35" transform="matrix(1 0 0 -1 60.5 105)" stroke="url(#paint5_linear_214_3102)" stroke-width="2"/>
<g style="mix-blend-mode:hard-light" filter="url(#filter0_f_214_3102)">
<circle cx="35" cy="35" r="35" transform="matrix(1 0 0 -1 60.5 105)" stroke="url(#paint6_linear_214_3102)" stroke-width="2"/>
</g>
<circle cx="20" cy="20" r="20" transform="matrix(1 0 0 -1 90.5 90)" stroke="white" stroke-width="2"/>
<circle cx="45.5" cy="70" r="6.5" transform="rotate(-90 45.5 70)" fill="white" stroke="#202224" stroke-width="3"/>
<circle cx="67.5" cy="22" r="6.5" transform="rotate(-90 67.5 22)" fill="white" stroke="#202224" stroke-width="3"/>
<circle cx="77.5" cy="80" r="6.5" transform="rotate(-90 77.5 80)" fill="white" stroke="#202224" stroke-width="3"/>
<circle cx="28.5" cy="27" r="6.5" transform="rotate(-90 28.5 27)" fill="white" stroke="#202224" stroke-width="3"/>
<circle cx="18.5" cy="101" r="6.5" transform="rotate(-90 18.5 101)" fill="white" stroke="#202224" stroke-width="3"/>
<circle cx="92.5" cy="116" r="6.5" transform="rotate(-90 92.5 116)" fill="white" stroke="#202224" stroke-width="3"/>
<defs>
<filter id="filter0_f_214_3102" x="53" y="27.5" width="85" height="85" filterUnits="userSpaceOnUse" color-interpolation-filters="sRGB">
<feFlood flood-opacity="0" result="BackgroundImageFix"/>
<feBlend mode="normal" in="SourceGraphic" in2="BackgroundImageFix" result="shape"/>
<feGaussianBlur stdDeviation="3.25" result="effect1_foregroundBlur_214_3102"/>
</filter>
<linearGradient id="paint0_linear_214_3102" x1="-1.61563" y1="9.44793e-08" x2="-0.575324" y2="9.6569" gradientUnits="userSpaceOnUse">
<stop stop-color="#ABEADA"/>
<stop offset="1" stop-color="#FFEA9E"/>
</linearGradient>
<linearGradient id="paint1_linear_214_3102" x1="-1.09107" y1="9.44793e-08" x2="0.428583" y2="9.52656" gradientUnits="userSpaceOnUse">
<stop stop-color="#ABEADA"/>
<stop offset="1" stop-color="#FFEA9E"/>
</linearGradient>
<linearGradient id="paint2_linear_214_3102" x1="17.5104" y1="99.8931" x2="18.5507" y2="109.55" gradientUnits="userSpaceOnUse">
<stop stop-color="#ABEADA"/>
<stop offset="1" stop-color="#FFEA9E"/>
</linearGradient>
<linearGradient id="paint3_linear_214_3102" x1="71.4089" y1="130.033" x2="72.9286" y2="139.56" gradientUnits="userSpaceOnUse">
<stop stop-color="#ABEADA"/>
<stop offset="1" stop-color="#FFEA9E"/>
</linearGradient>
<linearGradient id="paint4_linear_214_3102" x1="-2.51786" y1="8.72117e-06" x2="135.419" y2="21.6178" gradientUnits="userSpaceOnUse">
<stop stop-color="#ABEADA"/>
<stop offset="1" stop-color="#FFEA9E"/>
</linearGradient>
<linearGradient id="paint5_linear_214_3102" x1="-1.46875" y1="5.08735e-06" x2="78.9942" y2="12.6104" gradientUnits="userSpaceOnUse">
<stop stop-color="#ABEADA"/>
<stop offset="1" stop-color="#FFEA9E"/>
</linearGradient>
<linearGradient id="paint6_linear_214_3102" x1="-1.46875" y1="5.08735e-06" x2="78.9942" y2="12.6104" gradientUnits="userSpaceOnUse">
<stop stop-color="#ABEADA"/>
<stop offset="1" stop-color="#FFEA9E"/>
</linearGradient>
</defs>
</svg>
