<svg width="141" height="140" viewBox="0 0 141 140" fill="none" xmlns="http://www.w3.org/2000/svg">
<rect x="0.75" width="140" height="140" rx="22.6989" fill="#202224"/>
<path d="M115.03 31.0097C106.558 21.3873 95.181 14.7867 82.6223 12.2068C70.0635 9.62693 57.0061 11.2081 45.4261 16.7111C33.8462 22.2142 24.3739 31.3395 18.4428 42.7061C12.5117 54.0728 10.4445 67.0621 12.5542 79.7084" stroke="url(#paint0_linear_214_3125)" stroke-width="2"/>
<rect x="-1.73209" width="72" height="72" rx="15.3233" transform="matrix(0.866044 -0.499967 0.866044 0.499967 13.5185 97.1318)" fill="#202224" stroke="url(#paint1_linear_214_3125)" stroke-width="2"/>
<mask id="mask0_214_3125" style="mask-type:alpha" maskUnits="userSpaceOnUse" x="21" y="21" width="107" height="108">
<path fill-rule="evenodd" clip-rule="evenodd" d="M122.75 21H24.75V91.7507C19.3417 95.725 19.8101 101.496 26.1553 105.159L61.9691 125.834C68.82 129.789 79.9275 129.789 86.7784 125.834L122.592 105.159C129.39 101.235 129.443 94.8907 122.75 90.9289V21Z" fill="#D9D9D9"/>
</mask>
<g mask="url(#mask0_214_3125)">
<path d="M36.2503 91.9997L48.7503 84.4998L52.7503 86.9998L52.7503 73.4998L63.7504 66.9999V55.4999L74.7504 49.4999L85.7501 54.4998L85.7502 84.4998L97.2505 91.9997L108.25 115.5L87.7503 128L72.2503 132L54.2503 124.5L38.25 115.5L36.2503 91.9997Z" fill="#202224"/>
<g clip-path="url(#clip0_214_3125)">
<rect x="85.7505" y="38" width="23" height="100" rx="1" fill="#202224"/>
<rect x="85.7505" y="38" width="1.5" height="100" rx="0.75" fill="white"/>
<rect x="91.1255" y="38" width="1.5" height="100" rx="0.75" fill="white"/>
<rect x="96.5005" y="38" width="1.5" height="100" rx="0.75" fill="white"/>
<rect x="101.875" y="38" width="1.5" height="100" rx="0.75" fill="white"/>
<rect x="107.25" y="38" width="1.5" height="100" rx="0.75" fill="url(#paint2_linear_214_3125)"/>
</g>
<g filter="url(#filter0_d_214_3125)">
<rect width="15" height="15" rx="3" transform="matrix(0.866044 -0.499967 0.866044 0.499967 84.2656 38.7026)" fill="url(#paint3_linear_214_3125)"/>
</g>
<g style="mix-blend-mode:hard-light" opacity="0.5" filter="url(#filter1_f_214_3125)">
<rect width="13.7142" height="16.0061" rx="3" transform="matrix(0.866044 -0.499967 0.866044 0.499967 82.4688 38.8567)" fill="url(#paint4_linear_214_3125)"/>
</g>
<g clip-path="url(#clip1_214_3125)">
<rect x="63.7505" y="55" width="1.5" height="100" rx="0.75" fill="white"/>
<rect x="69.1255" y="55" width="1.5" height="100" rx="0.75" fill="white"/>
<rect x="74.5005" y="55" width="1.5" height="100" rx="0.75" fill="white"/>
<rect x="79.8755" y="55" width="1.5" height="100" rx="0.75" fill="white"/>
</g>
<g filter="url(#filter2_d_214_3125)">
<rect width="15" height="15" rx="3" transform="matrix(0.866044 -0.499967 0.866044 0.499967 62.2656 55.7026)" fill="#202224"/>
<rect x="1.29907" width="13.5" height="13.5" rx="2.25" transform="matrix(0.866044 -0.499967 0.866044 0.499967 62.4396 56.3521)" stroke="white" stroke-width="1.5"/>
</g>
<g clip-path="url(#clip2_214_3125)">
<rect x="36.7505" y="91" width="1.5" height="100" rx="0.75" fill="#B0EAD6"/>
<rect x="42.1255" y="91" width="1.5" height="100" rx="0.75" fill="white"/>
<rect x="47.5005" y="91" width="1.5" height="100" rx="0.75" fill="white"/>
<rect x="58.2505" y="91" width="1.5" height="100" rx="0.75" fill="white"/>
</g>
<g style="mix-blend-mode:hard-light" opacity="0.6" filter="url(#filter3_f_214_3125)">
<rect width="13.7685" height="12.7675" rx="3" transform="matrix(0.866044 -0.499967 0.866044 0.499967 36.75 88.8838)" fill="url(#paint5_linear_214_3125)"/>
</g>
<g filter="url(#filter4_d_214_3125)">
<rect width="15" height="15" rx="3" transform="matrix(0.866044 -0.499967 0.866044 0.499967 34.75 92.4995)" fill="url(#paint6_linear_214_3125)"/>
</g>
<g filter="url(#filter5_d_214_3125)">
<rect width="15" height="15" rx="3" transform="matrix(0.866044 -0.499967 0.866044 0.499967 78.2651 93.7026)" fill="#202224"/>
<rect x="1.29907" width="13.5" height="13.5" rx="2.25" transform="matrix(0.866044 -0.499967 0.866044 0.499967 78.4392 94.3521)" stroke="white" stroke-width="1.5"/>
</g>
<g clip-path="url(#clip3_214_3125)">
<path d="M53.7505 126.5L53.2504 72.9998L71.1447 72.4172L74.2504 74.4998L74.2504 132L64.2505 132L53.7505 126.5Z" fill="#202224"/>
<rect x="52.7505" y="73" width="1.5" height="100" rx="0.75" fill="white"/>
<rect x="58.1255" y="73" width="1.5" height="100" rx="0.75" fill="white"/>
<rect x="63.5005" y="73" width="1.5" height="100" rx="0.75" fill="white"/>
<rect x="68.8755" y="73" width="1.5" height="100" rx="0.75" fill="white"/>
</g>
<g filter="url(#filter6_d_214_3125)">
<rect width="15" height="15" rx="3" transform="matrix(0.866044 -0.499967 0.866044 0.499967 51.2656 73.7026)" fill="white"/>
</g>
</g>
<circle cx="13.75" cy="78" r="6.5" transform="rotate(-90 13.75 78)" fill="white" stroke="#202224" stroke-width="3"/>
<circle cx="114.75" cy="30" r="6.5" transform="rotate(-90 114.75 30)" fill="white" stroke="#202224" stroke-width="3"/>
<circle cx="44.75" cy="17" r="6.5" transform="rotate(-90 44.75 17)" fill="white" stroke="#202224" stroke-width="3"/>
<defs>
<filter id="filter0_d_214_3125" x="83.9876" y="32.0818" width="26.5375" height="17.0417" filterUnits="userSpaceOnUse" color-interpolation-filters="sRGB">
<feFlood flood-opacity="0" result="BackgroundImageFix"/>
<feColorMatrix in="SourceAlpha" type="matrix" values="0 0 0 0 0 0 0 0 0 0 0 0 0 0 0 0 0 0 127 0" result="hardAlpha"/>
<feOffset dy="2"/>
<feGaussianBlur stdDeviation="0.9"/>
<feComposite in2="hardAlpha" operator="out"/>
<feColorMatrix type="matrix" values="0 0 0 0 0.00574364 0 0 0 0 0.112837 0 0 0 0 0.219931 0 0 0 0.3 0"/>
<feBlend mode="hard-light" in2="BackgroundImageFix" result="effect1_dropShadow_214_3125"/>
<feBlend mode="normal" in="SourceGraphic" in2="effect1_dropShadow_214_3125" result="shape"/>
</filter>
<filter id="filter1_f_214_3125" x="79.2907" y="28.1787" width="32.0953" height="22.5018" filterUnits="userSpaceOnUse" color-interpolation-filters="sRGB">
<feFlood flood-opacity="0" result="BackgroundImageFix"/>
<feBlend mode="normal" in="SourceGraphic" in2="BackgroundImageFix" result="shape"/>
<feGaussianBlur stdDeviation="2.35" result="effect1_foregroundBlur_214_3125"/>
</filter>
<filter id="filter2_d_214_3125" x="61.9876" y="49.0818" width="26.5375" height="17.0417" filterUnits="userSpaceOnUse" color-interpolation-filters="sRGB">
<feFlood flood-opacity="0" result="BackgroundImageFix"/>
<feColorMatrix in="SourceAlpha" type="matrix" values="0 0 0 0 0 0 0 0 0 0 0 0 0 0 0 0 0 0 127 0" result="hardAlpha"/>
<feOffset dy="2"/>
<feGaussianBlur stdDeviation="0.9"/>
<feComposite in2="hardAlpha" operator="out"/>
<feColorMatrix type="matrix" values="0 0 0 0 0.00574364 0 0 0 0 0.112837 0 0 0 0 0.219931 0 0 0 0.3 0"/>
<feBlend mode="hard-light" in2="BackgroundImageFix" result="effect1_dropShadow_214_3125"/>
<feBlend mode="normal" in="SourceGraphic" in2="effect1_dropShadow_214_3125" result="shape"/>
</filter>
<filter id="filter3_f_214_3125" x="24.972" y="69.5787" width="46.5375" height="38.1098" filterUnits="userSpaceOnUse" color-interpolation-filters="sRGB">
<feFlood flood-opacity="0" result="BackgroundImageFix"/>
<feBlend mode="normal" in="SourceGraphic" in2="BackgroundImageFix" result="shape"/>
<feGaussianBlur stdDeviation="6.65" result="effect1_foregroundBlur_214_3125"/>
</filter>
<filter id="filter4_d_214_3125" x="34.472" y="85.8787" width="26.5375" height="17.0417" filterUnits="userSpaceOnUse" color-interpolation-filters="sRGB">
<feFlood flood-opacity="0" result="BackgroundImageFix"/>
<feColorMatrix in="SourceAlpha" type="matrix" values="0 0 0 0 0 0 0 0 0 0 0 0 0 0 0 0 0 0 127 0" result="hardAlpha"/>
<feOffset dy="2"/>
<feGaussianBlur stdDeviation="0.9"/>
<feComposite in2="hardAlpha" operator="out"/>
<feColorMatrix type="matrix" values="0 0 0 0 0.00574364 0 0 0 0 0.112837 0 0 0 0 0.219931 0 0 0 0.3 0"/>
<feBlend mode="hard-light" in2="BackgroundImageFix" result="effect1_dropShadow_214_3125"/>
<feBlend mode="normal" in="SourceGraphic" in2="effect1_dropShadow_214_3125" result="shape"/>
</filter>
<filter id="filter5_d_214_3125" x="77.9871" y="87.0818" width="26.5375" height="17.0417" filterUnits="userSpaceOnUse" color-interpolation-filters="sRGB">
<feFlood flood-opacity="0" result="BackgroundImageFix"/>
<feColorMatrix in="SourceAlpha" type="matrix" values="0 0 0 0 0 0 0 0 0 0 0 0 0 0 0 0 0 0 127 0" result="hardAlpha"/>
<feOffset dy="2"/>
<feGaussianBlur stdDeviation="0.9"/>
<feComposite in2="hardAlpha" operator="out"/>
<feColorMatrix type="matrix" values="0 0 0 0 0.00574364 0 0 0 0 0.112837 0 0 0 0 0.219931 0 0 0 0.3 0"/>
<feBlend mode="hard-light" in2="BackgroundImageFix" result="effect1_dropShadow_214_3125"/>
<feBlend mode="normal" in="SourceGraphic" in2="effect1_dropShadow_214_3125" result="shape"/>
</filter>
<filter id="filter6_d_214_3125" x="50.9876" y="67.0818" width="26.5375" height="17.0417" filterUnits="userSpaceOnUse" color-interpolation-filters="sRGB">
<feFlood flood-opacity="0" result="BackgroundImageFix"/>
<feColorMatrix in="SourceAlpha" type="matrix" values="0 0 0 0 0 0 0 0 0 0 0 0 0 0 0 0 0 0 127 0" result="hardAlpha"/>
<feOffset dy="2"/>
<feGaussianBlur stdDeviation="0.9"/>
<feComposite in2="hardAlpha" operator="out"/>
<feColorMatrix type="matrix" values="0 0 0 0 0.00574364 0 0 0 0 0.112837 0 0 0 0 0.219931 0 0 0 0.3 0"/>
<feBlend mode="hard-light" in2="BackgroundImageFix" result="effect1_dropShadow_214_3125"/>
<feBlend mode="normal" in="SourceGraphic" in2="effect1_dropShadow_214_3125" result="shape"/>
</filter>
<linearGradient id="paint0_linear_214_3125" x1="8.23214" y1="130" x2="146.169" y2="108.382" gradientUnits="userSpaceOnUse">
<stop stop-color="#ABEADA"/>
<stop offset="1" stop-color="#FFEA9E"/>
</linearGradient>
<linearGradient id="paint1_linear_214_3125" x1="-1.46875" y1="5.08735e-06" x2="78.9942" y2="12.6104" gradientUnits="userSpaceOnUse">
<stop stop-color="#ABEADA"/>
<stop offset="1" stop-color="#FFEA9E"/>
</linearGradient>
<linearGradient id="paint2_linear_214_3125" x1="108.25" y1="40.5" x2="109.46" y2="40.5302" gradientUnits="userSpaceOnUse">
<stop offset="0.14404" stop-color="#B9EAD0"/>
<stop offset="1" stop-color="#E0EAB4"/>
</linearGradient>
<linearGradient id="paint3_linear_214_3125" x1="-0.314732" y1="1.09015e-06" x2="16.9273" y2="2.70222" gradientUnits="userSpaceOnUse">
<stop stop-color="#ABEADA"/>
<stop offset="1" stop-color="#FFEA9E"/>
</linearGradient>
<linearGradient id="paint4_linear_214_3125" x1="-0.287754" y1="1.16326e-06" x2="15.5775" y2="2.13041" gradientUnits="userSpaceOnUse">
<stop stop-color="#ABEADA"/>
<stop offset="1" stop-color="#FFEA9E"/>
</linearGradient>
<linearGradient id="paint5_linear_214_3125" x1="-0.288893" y1="9.27893e-07" x2="15.476" y2="2.66443" gradientUnits="userSpaceOnUse">
<stop stop-color="#ABEADA"/>
<stop offset="1" stop-color="#FFEA9E"/>
</linearGradient>
<linearGradient id="paint6_linear_214_3125" x1="-0.314732" y1="1.09015e-06" x2="16.9273" y2="2.70222" gradientUnits="userSpaceOnUse">
<stop stop-color="#ABEADA"/>
<stop offset="1" stop-color="#FFEA9E"/>
</linearGradient>
<clipPath id="clip0_214_3125">
<rect x="85.7505" y="38" width="23" height="100" rx="1" fill="white"/>
</clipPath>
<clipPath id="clip1_214_3125">
<rect x="63.7505" y="55" width="23" height="100" rx="1" fill="white"/>
</clipPath>
<clipPath id="clip2_214_3125">
<rect x="36.7505" y="91" width="23" height="100" rx="1" fill="white"/>
</clipPath>
<clipPath id="clip3_214_3125">
<rect x="52.7505" y="73" width="23" height="100" rx="1" fill="white"/>
</clipPath>
</defs>
</svg>
