<svg width="140" height="140" viewBox="0 0 140 140" fill="none" xmlns="http://www.w3.org/2000/svg">
<rect width="140" height="140" rx="22.6989" fill="#202224"/>
<path d="M51.5676 13.2993L70.001 129.733L88.4343 13.2993" stroke="url(#paint0_linear_214_2225)" stroke-width="2"/>
<path d="M35.1174 21.8164L88.5507 126.583L70.1174 10.6164" stroke="url(#paint1_linear_214_2225)" stroke-width="2"/>
<path d="M21.5374 35.1875L104.73 118.315L51.3633 13.7201" stroke="url(#paint2_linear_214_2225)" stroke-width="2"/>
<path d="M70.0837 10.3311L51.6693 126.773L105.215 21.7458" stroke="url(#paint3_linear_214_2225)" stroke-width="2"/>
<path d="M88.4346 13.4167L35.1179 118.417L118.301 35.1167" stroke="url(#paint4_linear_214_2225)" stroke-width="2"/>
<path d="M105.119 21.8167L21.8185 105L126.819 51.6834" stroke="url(#paint5_linear_214_2225)" stroke-width="2"/>
<path d="M118.418 35.1174L13.4178 88.4341L129.734 70.1174" stroke="url(#paint6_linear_214_2225)" stroke-width="2"/>
<path d="M126.819 51.6836L10.2689 70.1169L126.819 88.6669" stroke="url(#paint7_linear_214_2225)" stroke-width="2"/>
<path d="M129.735 70.1177L13.3013 51.6844L118.301 105.234" stroke="url(#paint8_linear_214_2225)" stroke-width="2"/>
<path d="M35.0007 21.4265L88.5646 126.628L70.063 10.0341" stroke="url(#paint9_linear_214_2225)" stroke-width="2"/>
<path d="M21.6191 35.1956L104.817 118.346L51.4449 13.5259" stroke="url(#paint10_linear_214_2225)" stroke-width="2"/>
<path d="M13.1833 51.6836L117.6 104.884L35.1167 21.8169" stroke="url(#paint11_linear_214_2225)" stroke-width="2"/>
<path d="M10.1501 70.1177L126.7 88.6677L21.7587 35.2663" stroke="url(#paint12_linear_214_2225)" stroke-width="2"/>
<circle cx="69.9999" cy="69.9995" r="58.7333" stroke="url(#paint13_linear_214_2225)" stroke-width="2"/>
<circle cx="70.0011" cy="10.2655" r="4.19959" fill="white"/>
<circle cx="70.0011" cy="129.734" r="4.19959" fill="white"/>
<circle cx="51.5416" cy="13.1895" r="4.19959" transform="rotate(-18 51.5416 13.1895)" fill="white"/>
<circle cx="88.46" cy="126.811" r="4.19959" transform="rotate(-18 88.46 126.811)" fill="white"/>
<circle cx="34.8892" cy="21.6742" r="4.19959" transform="rotate(-36 34.8892 21.6742)" fill="white"/>
<circle cx="105.111" cy="118.326" r="4.19959" transform="rotate(-36 105.111 118.326)" fill="white"/>
<circle cx="21.6744" cy="34.8893" r="4.19959" transform="rotate(-54 21.6744 34.8893)" fill="white"/>
<circle cx="118.327" cy="105.111" r="4.19959" transform="rotate(-54 118.327 105.111)" fill="white"/>
<circle cx="13.1902" cy="51.5412" r="4.19959" transform="rotate(-72 13.1902 51.5412)" fill="white"/>
<circle cx="126.81" cy="88.459" r="4.19959" transform="rotate(-72 126.81 88.459)" fill="white"/>
<circle cx="10.2665" cy="70.0004" r="4.19959" transform="rotate(-90 10.2665 70.0004)" fill="white"/>
<circle cx="129.735" cy="70.0001" r="4.19959" transform="rotate(-90 129.735 70.0001)" fill="white"/>
<circle cx="4.19959" cy="4.19959" r="4.19959" transform="matrix(-1 0 0 1 74.2017 6.06592)" fill="white"/>
<circle cx="4.19959" cy="4.19959" r="4.19959" transform="matrix(-1 0 0 1 74.2017 125.534)" fill="white"/>
<circle cx="4.19959" cy="4.19959" r="4.19959" transform="matrix(-0.951057 -0.309017 -0.309017 0.951057 93.7524 10.4932)" fill="white"/>
<circle cx="4.19959" cy="4.19959" r="4.19959" transform="matrix(-0.951057 -0.309017 -0.309017 0.951057 56.8342 124.114)" fill="white"/>
<circle cx="4.19959" cy="4.19959" r="4.19959" transform="matrix(-0.809017 -0.587785 -0.587785 0.809017 110.979 20.7451)" fill="white"/>
<circle cx="4.19959" cy="4.19959" r="4.19959" transform="matrix(-0.809017 -0.587785 -0.587785 0.809017 40.7566 117.397)" fill="white"/>
<circle cx="4.19959" cy="4.19959" r="4.19959" transform="matrix(-0.587785 -0.809017 -0.809017 0.587785 124.195 35.8184)" fill="white"/>
<circle cx="4.19959" cy="4.19959" r="4.19959" transform="matrix(-0.587785 -0.809017 -0.809017 0.587785 27.5425 106.04)" fill="white"/>
<circle cx="4.19959" cy="4.19959" r="4.19959" transform="matrix(-0.309017 -0.951057 -0.951057 0.309017 132.104 54.2361)" fill="white"/>
<circle cx="4.19959" cy="4.19959" r="4.19959" transform="matrix(-0.309017 -0.951057 -0.951057 0.309017 18.4832 91.1543)" fill="white"/>
<circle cx="4.19959" cy="4.19959" r="4.19959" transform="matrix(0 -1 -1 0 133.935 74.2)" fill="white"/>
<circle cx="4.19959" cy="4.19959" r="4.19959" transform="matrix(0 -1 -1 0 14.4668 74.1997)" fill="white"/>
<defs>
<linearGradient id="paint0_linear_214_2225" x1="50.7941" y1="13.2993" x2="94.1055" y2="15.4486" gradientUnits="userSpaceOnUse">
<stop stop-color="#ABEADA"/>
<stop offset="1" stop-color="#FFEA9E"/>
</linearGradient>
<linearGradient id="paint1_linear_214_2225" x1="34.3841" y1="22.0547" x2="76.1047" y2="10.7496" gradientUnits="userSpaceOnUse">
<stop stop-color="#ABEADA"/>
<stop offset="1" stop-color="#FFEA9E"/>
</linearGradient>
<linearGradient id="paint2_linear_214_2225" x1="20.9136" y1="35.6407" x2="57.0988" y2="11.9966" gradientUnits="userSpaceOnUse">
<stop stop-color="#ABEADA"/>
<stop offset="1" stop-color="#FFEA9E"/>
</linearGradient>
<linearGradient id="paint3_linear_214_2225" x1="69.3466" y1="10.0916" x2="109.952" y2="25.5536" gradientUnits="userSpaceOnUse">
<stop stop-color="#ABEADA"/>
<stop offset="1" stop-color="#FFEA9E"/>
</linearGradient>
<linearGradient id="paint4_linear_214_2225" x1="87.8079" y1="12.9615" x2="121.627" y2="40.1999" gradientUnits="userSpaceOnUse">
<stop stop-color="#ABEADA"/>
<stop offset="1" stop-color="#FFEA9E"/>
</linearGradient>
<linearGradient id="paint5_linear_214_2225" x1="104.664" y1="21.1897" x2="128.41" y2="57.5457" gradientUnits="userSpaceOnUse">
<stop stop-color="#ABEADA"/>
<stop offset="1" stop-color="#FFEA9E"/>
</linearGradient>
<linearGradient id="paint6_linear_214_2225" x1="118.179" y1="34.3834" x2="129.497" y2="76.1447" gradientUnits="userSpaceOnUse">
<stop stop-color="#ABEADA"/>
<stop offset="1" stop-color="#FFEA9E"/>
</linearGradient>
<linearGradient id="paint7_linear_214_2225" x1="126.819" y1="50.9076" x2="124.658" y2="94.3556" gradientUnits="userSpaceOnUse">
<stop stop-color="#ABEADA"/>
<stop offset="1" stop-color="#FFEA9E"/>
</linearGradient>
<linearGradient id="paint8_linear_214_2225" x1="129.974" y1="69.3807" x2="114.516" y2="109.977" gradientUnits="userSpaceOnUse">
<stop stop-color="#ABEADA"/>
<stop offset="1" stop-color="#FFEA9E"/>
</linearGradient>
<linearGradient id="paint9_linear_214_2225" x1="34.2651" y1="21.6656" x2="76.1201" y2="10.3226" gradientUnits="userSpaceOnUse">
<stop stop-color="#ABEADA"/>
<stop offset="1" stop-color="#FFEA9E"/>
</linearGradient>
<linearGradient id="paint10_linear_214_2225" x1="20.9933" y1="35.6502" x2="57.2987" y2="11.9354" gradientUnits="userSpaceOnUse">
<stop stop-color="#ABEADA"/>
<stop offset="1" stop-color="#FFEA9E"/>
</linearGradient>
<linearGradient id="paint11_linear_214_2225" x1="12.7264" y1="52.3126" x2="40.0795" y2="18.3799" gradientUnits="userSpaceOnUse">
<stop stop-color="#ABEADA"/>
<stop offset="1" stop-color="#FFEA9E"/>
</linearGradient>
<linearGradient id="paint12_linear_214_2225" x1="9.91198" y1="70.8507" x2="25.2745" y2="30.4662" gradientUnits="userSpaceOnUse">
<stop stop-color="#ABEADA"/>
<stop offset="1" stop-color="#FFEA9E"/>
</linearGradient>
<linearGradient id="paint13_linear_214_2225" x1="7.75994" y1="10.2661" x2="145.083" y2="31.7878" gradientUnits="userSpaceOnUse">
<stop stop-color="#ABEADA"/>
<stop offset="1" stop-color="#FFEA9E"/>
</linearGradient>
</defs>
</svg>
