<svg width="101" height="100" viewBox="0 0 101 100" fill="none" xmlns="http://www.w3.org/2000/svg">
<g clip-path="url(#clip0_443_4127)">
<rect x="0.666016" width="100" height="100" rx="22" fill="#202224"/>
<rect width="1" height="102.288" transform="matrix(1 0 0 -1 9.66602 101.288)" fill="url(#paint0_linear_443_4127)"/>
<rect width="1" height="102.288" transform="matrix(1 0 0 -1 29.666 101.288)" fill="white"/>
<rect width="1" height="102.288" transform="matrix(1 0 0 -1 49.666 101.288)" fill="url(#paint1_linear_443_4127)"/>
<rect width="1" height="102.288" transform="matrix(1 0 0 -1 69.666 101.288)" fill="white"/>
<rect width="1" height="102.288" transform="matrix(1 0 0 -1 89.666 101.288)" fill="url(#paint2_linear_443_4127)"/>
<g opacity="0.5">
<rect width="1" height="102.288" transform="matrix(0 -1 -1 0 101.309 90.644)" fill="url(#paint3_linear_443_4127)"/>
<rect width="1" height="102.288" transform="matrix(0 -1 -1 0 101.309 70.644)" fill="white"/>
<rect width="1" height="102.288" transform="matrix(0 -1 -1 0 101.309 50.644)" fill="url(#paint4_linear_443_4127)"/>
<rect width="1" height="102.288" transform="matrix(0 -1 -1 0 101.309 30.644)" fill="white"/>
<rect width="1" height="102.288" transform="matrix(0 -1 -1 0 101.309 10.644)" fill="url(#paint5_linear_443_4127)"/>
</g>
<path d="M19.6454 33.5001C23.2352 33.5001 26.1837 36.41 26.231 39.9996C26.2783 43.5891 23.4065 46.499 19.8166 46.499C16.2268 46.499 13.2783 43.5891 13.231 39.9996C13.1837 36.41 16.0555 33.5001 19.6454 33.5001Z" fill="white" stroke="#202224" stroke-width="3"/>
<path d="M59.6454 53.5001C63.2352 53.5001 66.1837 56.41 66.231 59.9996C66.2783 63.5891 63.4065 66.499 59.8166 66.499C56.2268 66.499 53.2783 63.5891 53.231 59.9996C53.1837 56.41 56.0555 53.5001 59.6454 53.5001Z" fill="white" stroke="#202224" stroke-width="3"/>
<path d="M40.6454 73.5001C44.2352 73.5001 47.1837 76.41 47.231 79.9996C47.2783 83.5891 44.4065 86.499 40.8166 86.499C37.2268 86.499 34.2783 83.5891 34.231 79.9996C34.1837 76.41 37.0555 73.5001 40.6454 73.5001Z" fill="white" stroke="#202224" stroke-width="3"/>
<path d="M59.6454 14.5001C63.2352 14.5001 66.1837 17.41 66.231 20.9996C66.2783 24.5891 63.4065 27.499 59.8166 27.499C56.2268 27.499 53.2783 24.5891 53.231 20.9996C53.1837 17.41 56.0555 14.5001 59.6454 14.5001Z" fill="white" stroke="#202224" stroke-width="3"/>
<g style="mix-blend-mode:hard-light" opacity="0.59" filter="url(#filter0_f_443_4127)">
<rect x="69" y="71" width="42" height="5" transform="rotate(-90 69 71)" fill="url(#paint6_linear_443_4127)"/>
</g>
<g style="mix-blend-mode:hard-light" opacity="0.59" filter="url(#filter1_f_443_4127)">
<rect x="9" y="66" width="54" height="5" fill="url(#paint7_linear_443_4127)"/>
</g>
</g>
<defs>
<filter id="filter0_f_443_4127" x="50.3" y="10.3" width="42.4" height="79.4" filterUnits="userSpaceOnUse" color-interpolation-filters="sRGB">
<feFlood flood-opacity="0" result="BackgroundImageFix"/>
<feBlend mode="normal" in="SourceGraphic" in2="BackgroundImageFix" result="shape"/>
<feGaussianBlur stdDeviation="9.35" result="effect1_foregroundBlur_443_4127"/>
</filter>
<filter id="filter1_f_443_4127" x="-9.7" y="47.3" width="91.4" height="42.4" filterUnits="userSpaceOnUse" color-interpolation-filters="sRGB">
<feFlood flood-opacity="0" result="BackgroundImageFix"/>
<feBlend mode="normal" in="SourceGraphic" in2="BackgroundImageFix" result="shape"/>
<feGaussianBlur stdDeviation="9.35" result="effect1_foregroundBlur_443_4127"/>
</filter>
<linearGradient id="paint0_linear_443_4127" x1="1" y1="114.322" x2="-0.279593" y2="114.318" gradientUnits="userSpaceOnUse">
<stop stop-color="#ABEADA"/>
<stop offset="1" stop-color="#FFEA9E"/>
</linearGradient>
<linearGradient id="paint1_linear_443_4127" x1="1" y1="114.322" x2="-0.279593" y2="114.318" gradientUnits="userSpaceOnUse">
<stop stop-color="#ABEADA"/>
<stop offset="1" stop-color="#FFEA9E"/>
</linearGradient>
<linearGradient id="paint2_linear_443_4127" x1="1" y1="114.322" x2="-0.279593" y2="114.318" gradientUnits="userSpaceOnUse">
<stop stop-color="#ABEADA"/>
<stop offset="1" stop-color="#FFEA9E"/>
</linearGradient>
<linearGradient id="paint3_linear_443_4127" x1="1" y1="114.322" x2="-0.279593" y2="114.318" gradientUnits="userSpaceOnUse">
<stop stop-color="#ABEADA"/>
<stop offset="1" stop-color="#FFEA9E"/>
</linearGradient>
<linearGradient id="paint4_linear_443_4127" x1="1" y1="114.322" x2="-0.279593" y2="114.318" gradientUnits="userSpaceOnUse">
<stop stop-color="#ABEADA"/>
<stop offset="1" stop-color="#FFEA9E"/>
</linearGradient>
<linearGradient id="paint5_linear_443_4127" x1="1" y1="114.322" x2="-0.279593" y2="114.318" gradientUnits="userSpaceOnUse">
<stop stop-color="#ABEADA"/>
<stop offset="1" stop-color="#FFEA9E"/>
</linearGradient>
<linearGradient id="paint6_linear_443_4127" x1="68.1187" y1="71" x2="86.2168" y2="94.8255" gradientUnits="userSpaceOnUse">
<stop stop-color="#ABEADA"/>
<stop offset="1" stop-color="#FFEA9E"/>
</linearGradient>
<linearGradient id="paint7_linear_443_4127" x1="7.86696" y1="66" x2="24.3217" y2="93.8514" gradientUnits="userSpaceOnUse">
<stop stop-color="#ABEADA"/>
<stop offset="1" stop-color="#FFEA9E"/>
</linearGradient>
<clipPath id="clip0_443_4127">
<rect x="0.666016" width="100" height="100" rx="22" fill="white"/>
</clipPath>
</defs>
</svg>
