<svg width="100" height="100" viewBox="0 0 100 100" fill="none" xmlns="http://www.w3.org/2000/svg">
<g clip-path="url(#clip0_443_4069)">
<rect width="100" height="100" rx="22" fill="#202224"/>
<path d="M50 11L60.5335 39.4665L89 50L60.5335 60.5335L50 89L39.4665 60.5335L11 50L39.4665 39.4665L50 11Z" fill="white"/>
<path d="M49.5 27L55.8471 44.1529L73 50.5L55.8471 56.8471L49.5 74L43.1529 56.8471L26 50.5L43.1529 44.1529L49.5 27Z" fill="#202224"/>
<path d="M52.8136 9.95889L50 2.35537L47.1864 9.95889L37.1316 37.1316L9.95889 47.1864L2.35537 50L9.95889 52.8136L37.1316 62.8684L47.1864 90.0411L50 97.6446L52.8136 90.0411L62.8684 62.8684L90.0411 52.8136L97.6446 50L90.0411 47.1864L62.8684 37.1316L52.8136 9.95889Z" stroke="url(#paint0_linear_443_4069)" stroke-width="6"/>
<g style="mix-blend-mode:hard-light" opacity="0.5" filter="url(#filter0_f_443_4069)">
<path d="M52.8136 9.95889L50 2.35537L47.1864 9.95889L37.1316 37.1316L9.95889 47.1864L2.35537 50L9.95889 52.8136L37.1316 62.8684L47.1864 90.0411L50 97.6446L52.8136 90.0411L62.8684 62.8684L90.0411 52.8136L97.6446 50L90.0411 47.1864L62.8684 37.1316L52.8136 9.95889Z" stroke="url(#paint1_linear_443_4069)" stroke-width="6"/>
</g>
<path d="M49.4972 45.5001C52.2685 45.5001 54.5447 47.7465 54.5812 50.5176C54.6177 53.2886 52.4007 55.535 49.6294 55.535C46.8581 55.535 44.582 53.2886 44.5455 50.5176C44.509 47.7465 46.7259 45.5001 49.4972 45.5001Z" fill="white" stroke="#202224" stroke-width="3"/>
</g>
<defs>
<filter id="filter0_f_443_4069" x="-20.4891" y="-20.4893" width="140.978" height="140.978" filterUnits="userSpaceOnUse" color-interpolation-filters="sRGB">
<feFlood flood-opacity="0" result="BackgroundImageFix"/>
<feBlend mode="normal" in="SourceGraphic" in2="BackgroundImageFix" result="shape"/>
<feGaussianBlur stdDeviation="7.1" result="effect1_foregroundBlur_443_4069"/>
</filter>
<linearGradient id="paint0_linear_443_4069" x1="9.36339" y1="11" x2="99.0222" y2="25.0515" gradientUnits="userSpaceOnUse">
<stop stop-color="#ABEADA"/>
<stop offset="1" stop-color="#FFEA9E"/>
</linearGradient>
<linearGradient id="paint1_linear_443_4069" x1="9.36339" y1="11" x2="99.0222" y2="25.0515" gradientUnits="userSpaceOnUse">
<stop stop-color="#ABEADA"/>
<stop offset="1" stop-color="#FFEA9E"/>
</linearGradient>
<clipPath id="clip0_443_4069">
<rect width="100" height="100" rx="22" fill="white"/>
</clipPath>
</defs>
</svg>
