<svg width="101" height="100" viewBox="0 0 101 100" fill="none" xmlns="http://www.w3.org/2000/svg">
<g clip-path="url(#clip0_443_4008)">
<rect x="0.666016" width="100" height="100" rx="22" fill="#202224"/>
<path d="M51.166 85C41.7508 85 32.7213 81.2598 26.0637 74.6023C19.4062 67.9447 15.666 58.9152 15.666 49.5C15.666 40.0848 19.4062 31.0553 26.0637 24.3977C32.7213 17.7402 41.7508 14 51.166 14V49.5V85Z" fill="white"/>
<path d="M48.166 112C31.59 112 15.6929 105.415 3.97184 93.6942C-7.74918 81.9731 -14.334 66.076 -14.334 49.5C-14.334 32.924 -7.74918 17.0268 3.97184 5.30583C15.6929 -6.4152 31.59 -13 48.166 -13V49.5L48.166 112Z" fill="white" fill-opacity="0.19"/>
<path d="M51.166 85C60.5812 85 69.6108 81.2598 76.2683 74.6023C82.9258 67.9447 86.666 58.9152 86.666 49.5C86.666 40.0848 82.9258 31.0553 76.2683 24.3977C69.6108 17.7402 60.5812 14 51.166 14V49.5V85Z" fill="url(#paint0_linear_443_4008)"/>
<rect x="47.666" y="-7" width="6" height="109" fill="#202224"/>
<rect x="-3.83398" y="53" width="6" height="109" transform="rotate(-90 -3.83398 53)" fill="#202224"/>
<g style="mix-blend-mode:hard-light" opacity="0.6" filter="url(#filter0_f_443_4008)">
<path d="M93 43.5C93 34.0848 89.2598 25.0552 82.6023 18.3977C75.9447 11.7402 66.9152 8 57.5 8V22.1357C63.1662 22.1357 68.6003 24.3866 72.6069 28.3931C76.6134 32.3997 78.8643 37.8338 78.8643 43.5L93 43.5Z" fill="url(#paint1_linear_443_4008)"/>
</g>
</g>
<defs>
<filter id="filter0_f_443_4008" x="33.9" y="-15.6" width="82.7" height="82.7" filterUnits="userSpaceOnUse" color-interpolation-filters="sRGB">
<feFlood flood-opacity="0" result="BackgroundImageFix"/>
<feBlend mode="normal" in="SourceGraphic" in2="BackgroundImageFix" result="shape"/>
<feGaussianBlur stdDeviation="11.8" result="effect1_foregroundBlur_443_4008"/>
</filter>
<linearGradient id="paint0_linear_443_4008" x1="88.1557" y1="14" x2="6.54328" y2="26.7905" gradientUnits="userSpaceOnUse">
<stop stop-color="#ABEADA"/>
<stop offset="1" stop-color="#FFEA9E"/>
</linearGradient>
<linearGradient id="paint1_linear_443_4008" x1="94.4897" y1="8.00001" x2="12.8773" y2="20.7905" gradientUnits="userSpaceOnUse">
<stop stop-color="#ABEADA"/>
<stop offset="1" stop-color="#FFEA9E"/>
</linearGradient>
<clipPath id="clip0_443_4008">
<rect x="0.666016" width="100" height="100" rx="22" fill="white"/>
</clipPath>
</defs>
</svg>
